SplineFontDB: 3.0
FontName: Vaigai-Italic
FullName: Vaigai Italic
FamilyName: Vaigai
Weight: Book
Copyright: Copyright (c) 1995-2015, NLCI (http://www.nlci.in/fonts/) Derived from SAU Vaigai Italic by ttfbuilder v0.33
Version: 1.0 Thu Aug 08 15:05:36 1996
ItalicAngle: 12
UnderlinePosition: -532.48
UnderlineWidth: 40.96
Ascent: 1638
Descent: 410
InvalidEm: 0
sfntRevision: 0x00010000
LayerCount: 2
Layer: 0 1 "Back" 1
Layer: 1 1 "Fore" 0
XUID: [1021 228 418438370 2827793]
StyleMap: 0x0041
FSType: 0
OS2Version: 1
OS2_WeightWidthSlopeOnly: 0
OS2_UseTypoMetrics: 0
CreationTime: 1522121141
ModificationTime: 1522121179
PfmFamily: 17
TTFWeight: 400
TTFWidth: 5
LineGap: 0
VLineGap: 0
Panose: 2 0 0 3 0 0 0 0 0 0
OS2TypoAscent: 2187
OS2TypoAOffset: 0
OS2TypoDescent: -735
OS2TypoDOffset: 0
OS2TypoLinegap: 0
OS2WinAscent: 2187
OS2WinAOffset: 0
OS2WinDescent: 735
OS2WinDOffset: 0
HheadAscent: 2187
HheadAOffset: 0
HheadDescent: -735
HheadDOffset: 0
OS2SubXSize: 1434
OS2SubYSize: 1331
OS2SubXOff: 0
OS2SubYOff: 293
OS2SupXSize: 1434
OS2SupYSize: 1331
OS2SupXOff: 0
OS2SupYOff: 928
OS2StrikeYSize: 102
OS2StrikeYPos: 530
OS2Vendor: 'Alts'
OS2CodePages: 00000001.00000000
OS2UnicodeRanges: 80108003.02002000.00000000.00000000
Lookup: 260 0 0 "_holdAnchorsbase" { "_someAnchorsbase"  } []
DEI: 91125
ShortTable: maxp 16
  1
  0
  339
  199
  12
  303
  16
  1
  0
  0
  0
  0
  3
  0
  3
  2
EndShort

StartChar: .notdef
Encoding: 0 -1 0
Width: 1024
Flags: W
LayerCount: 2
Fore
SplineSet
63 0 m 1,0,-1
 63 1536 l 1,1,-1
 961 1536 l 1,2,-1
 961 0 l 1,3,-1
 63 0 l 1,0,-1
897 63 m 1,4,-1
 897 1473 l 1,5,-1
 127 1473 l 1,6,-1
 127 63 l 1,7,-1
 897 63 l 1,4,-1
EndSplineSet
EndChar

StartChar: exclam
Encoding: 4 33 4
Width: 433
Flags: W
LayerCount: 2
Fore
SplineSet
267 397 m 0,0,1
 247 383 247 383 227.5 373 c 0,2,3
 208 363 208 363 183 355 c 0,4,-1
 159 376 l 0,5,-1
 234 1334 l 0,6,7
 250 1345 250 1345 275 1360 c 0,8,9
 300 1375 300 1375 327.5 1390 c 0,10,11
 355 1405 355 1405 381.5 1417.5 c 0,12,13
 408 1430 408 1430 429 1436 c 0,14,-1
 467 1409 l 0,15,-1
 267 397 l 0,0,1
306 157 m 0,16,17
 306 125 306 125 295 92 c 0,18,19
 284 59 284 59 263 31.5 c 0,20,21
 242 4 242 4 212 -13.5 c 0,22,23
 182 -31 182 -31 145 -31 c 0,24,25
 97 -31 97 -31 73 -2.5 c 0,26,27
 49 26 49 26 49 73 c 0,28,29
 49 103 49 103 61 135.5 c 0,30,31
 73 168 73 168 94.5 194.5 c 0,32,33
 116 221 116 221 146 238.5 c 0,34,35
 176 256 176 256 211 256 c 0,36,37
 256 256 256 256 281 228.5 c 0,38,39
 306 201 306 201 306 157 c 0,16,17
EndSplineSet
EndChar

StartChar: quotedbl
Encoding: 5 34 5
Width: 824
Flags: W
LayerCount: 2
Fore
SplineSet
656 868 m 0,0,1
 640 859 640 859 617 855 c 0,2,3
 594 851 594 851 572 851 c 0,4,-1
 593 1372 l 0,5,6
 605 1378 605 1378 626 1387 c 0,7,8
 647 1396 647 1396 670 1404.5 c 0,9,10
 693 1413 693 1413 713.5 1420 c 0,11,12
 734 1427 734 1427 744 1430 c 0,13,-1
 783 1407 l 0,14,-1
 656 868 l 0,0,1
314 868 m 0,15,16
 297 859 297 859 274.5 855 c 0,17,18
 252 851 252 851 230 851 c 0,19,-1
 251 1372 l 0,20,21
 263 1378 263 1378 284 1387 c 0,22,23
 305 1396 305 1396 328 1404.5 c 0,24,25
 351 1413 351 1413 371.5 1420 c 0,26,27
 392 1427 392 1427 402 1430 c 0,28,-1
 442 1407 l 0,29,-1
 314 868 l 0,15,16
EndSplineSet
EndChar

StartChar: numbersign
Encoding: 6 35 6
Width: 859
Flags: W
LayerCount: 2
Fore
SplineSet
369 595 m 0,0,-1
 541 595 l 0,1,-1
 634 841 l 0,2,-1
 462 841 l 0,3,-1
 369 595 l 0,0,-1
794 966 m 0,4,-1
 935 966 l 0,5,-1
 955 941 l 0,6,7
 951 930 951 930 945 916 c 0,8,9
 939 902 939 902 932 888 c 0,10,11
 925 874 925 874 918.5 861.5 c 0,12,13
 912 849 912 849 908 841 c 0,14,-1
 746 841 l 0,15,-1
 653 595 l 0,16,-1
 798 595 l 0,17,-1
 817 568 l 0,18,19
 813 558 813 558 807 545 c 0,20,21
 801 532 801 532 795 518 c 0,22,23
 789 504 789 504 782.5 491.5 c 0,24,25
 776 479 776 479 772 470 c 0,26,-1
 605 470 l 0,27,-1
 492 170 l 0,28,29
 474 156 474 156 446.5 146 c 0,30,31
 419 136 419 136 393 127 c 0,32,-1
 372 147 l 0,33,-1
 494 470 l 0,34,-1
 322 470 l 0,35,-1
 209 170 l 0,36,37
 190 156 190 156 163 146 c 0,38,39
 136 136 136 136 110 127 c 0,40,-1
 87 147 l 0,41,-1
 209 470 l 0,42,-1
 69 470 l 0,43,-1
 51 495 l 0,44,45
 55 505 55 505 60.5 518 c 0,46,47
 66 531 66 531 72 544 c 0,48,-1
 85 571 l 0,49,50
 92 585 92 585 98 595 c 0,51,-1
 257 595 l 0,52,-1
 350 841 l 0,53,-1
 207 841 l 0,54,-1
 188 865 l 0,55,56
 196 887 196 887 210 916.5 c 0,57,58
 224 946 224 946 235 966 c 0,59,-1
 398 966 l 0,60,-1
 506 1251 l 0,61,62
 527 1267 527 1267 554 1275 c 0,63,64
 581 1283 581 1283 603 1292 c 0,65,-1
 625 1270 l 0,66,-1
 510 966 l 0,67,-1
 681 966 l 0,68,-1
 789 1251 l 0,69,70
 811 1267 811 1267 838 1275 c 0,71,72
 865 1283 865 1283 886 1292 c 0,73,-1
 909 1270 l 0,74,-1
 794 966 l 0,4,-1
EndSplineSet
EndChar

StartChar: dollar
Encoding: 7 36 7
Width: 859
Flags: W
LayerCount: 2
Fore
SplineSet
269 950 m 0,0,1
 269 930 269 930 275 909.5 c 0,2,3
 281 889 281 889 297.5 868 c 0,4,5
 314 847 314 847 342 824.5 c 0,6,7
 370 802 370 802 415 777 c 0,8,-1
 464 1125 l 0,9,10
 420 1121 420 1121 384 1104.5 c 0,11,12
 348 1088 348 1088 322.5 1063.5 c 0,13,14
 297 1039 297 1039 283 1009.5 c 0,15,16
 269 980 269 980 269 950 c 0,0,1
624 343 m 0,17,18
 624 403 624 403 589.5 450.5 c 0,19,20
 555 498 555 498 474 546 c 0,21,-1
 411 103 l 0,22,23
 457 112 457 112 496.5 133 c 0,24,25
 536 154 536 154 564 185.5 c 0,26,27
 592 217 592 217 608 257 c 0,28,29
 624 297 624 297 624 343 c 0,17,18
831 1144 m 0,30,31
 837 1140 837 1140 825.5 1116.5 c 0,32,33
 814 1093 814 1093 796 1065.5 c 0,34,35
 778 1038 778 1038 759 1014 c 0,36,37
 740 990 740 990 731 984 c 0,38,-1
 693 990 l 0,39,40
 672 1030 672 1030 636.5 1064 c 0,41,42
 601 1098 601 1098 554 1114 c 0,43,-1
 500 734 l 0,44,45
 570 699 570 699 621.5 665.5 c 0,46,47
 673 632 673 632 707 595 c 0,48,49
 741 558 741 558 757.5 515 c 0,50,51
 774 472 774 472 774 418 c 0,52,53
 774 341 774 341 746.5 270.5 c 0,54,55
 719 200 719 200 668.5 141.5 c 0,56,57
 618 83 618 83 548 41.5 c 0,58,59
 478 0 478 0 394 -18 c 0,60,-1
 378 -136 l 0,61,62
 360 -151 360 -151 345.5 -158 c 0,63,64
 331 -165 331 -165 307 -171 c 0,65,-1
 284 -147 l 0,66,-1
 300 -30 l 0,67,68
 295 -31 295 -31 289 -31 c 0,69,-1
 277 -31 l 0,70,71
 238 -31 238 -31 187.5 -17.5 c 0,72,73
 137 -4 137 -4 92 17 c 0,74,75
 47 38 47 38 16.5 64 c 0,76,77
 -14 90 -14 90 -14 116 c 0,78,79
 -14 129 -14 129 -1.5 155 c 0,80,81
 11 181 11 181 28.5 207.5 c 0,82,83
 46 234 46 234 65.5 254 c 0,84,85
 85 274 85 274 99 274 c 0,86,87
 110 274 110 274 126 250 c 0,88,89
 142 226 142 226 167.5 195 c 0,90,91
 193 164 193 164 229.5 136 c 0,92,93
 266 108 266 108 319 100 c 0,94,-1
 388 591 l 0,95,-1
 360 604 l 0,96,97
 234 661 234 661 180 732 c 0,98,99
 126 803 126 803 126 883 c 0,100,101
 126 939 126 939 149.5 994.5 c 0,102,103
 173 1050 173 1050 218 1096.5 c 0,104,105
 263 1143 263 1143 328.5 1177 c 0,106,107
 394 1211 394 1211 478 1224 c 0,108,-1
 494 1338 l 0,109,110
 507 1346 507 1346 514.5 1351 c 0,111,112
 522 1356 522 1356 528 1359.5 c 0,113,114
 534 1363 534 1363 541.5 1366.5 c 0,115,116
 549 1370 549 1370 562 1374 c 0,117,-1
 587 1349 l 0,118,-1
 570 1231 l 0,119,-1
 572 1231 l 0,120,121
 648 1231 648 1231 715.5 1205 c 0,122,123
 783 1179 783 1179 831 1144 c 0,30,31
EndSplineSet
EndChar

StartChar: percent
Encoding: 8 37 8
Width: 1339
Flags: W
LayerCount: 2
Fore
SplineSet
659 973 m 0,0,1
 659 904 659 904 635.5 830.5 c 0,2,3
 612 757 612 757 567.5 696 c 0,4,5
 523 635 523 635 460 596 c 0,6,7
 397 557 397 557 318 557 c 0,8,9
 268 557 268 557 228 577.5 c 0,10,11
 188 598 188 598 159.5 634 c 0,12,13
 131 670 131 670 116 718.5 c 0,14,15
 101 767 101 767 101 822 c 0,16,17
 101 868 101 868 112 916.5 c 0,18,19
 123 965 123 965 143.5 1011 c 0,20,21
 164 1057 164 1057 194 1098 c 0,22,23
 224 1139 224 1139 262 1169.5 c 0,24,25
 300 1200 300 1200 345.5 1218 c 0,26,27
 391 1236 391 1236 444 1236 c 0,28,29
 493 1236 493 1236 533 1216.5 c 0,30,31
 573 1197 573 1197 601 1161.5 c 0,32,33
 629 1126 629 1126 644 1078 c 0,34,35
 659 1030 659 1030 659 973 c 0,0,1
506 985 m 0,36,37
 506 1075 506 1075 477.5 1115.5 c 0,38,39
 449 1156 449 1156 407 1156 c 0,40,41
 376 1156 376 1156 353 1136.5 c 0,42,43
 330 1117 330 1117 313.5 1085.5 c 0,44,45
 297 1054 297 1054 286 1014 c 0,46,47
 275 974 275 974 268 934.5 c 0,48,49
 261 895 261 895 258.5 858.5 c 0,50,51
 256 822 256 822 256 797 c 0,52,53
 256 714 256 714 283 675.5 c 0,54,55
 310 637 310 637 355 637 c 0,56,57
 383 637 383 637 405 655 c 0,58,59
 427 673 427 673 443.5 702.5 c 0,60,61
 460 732 460 732 472 769 c 0,62,63
 484 806 484 806 491.5 845 c 0,64,65
 499 884 499 884 502.5 920.5 c 0,66,67
 506 957 506 957 506 985 c 0,36,37
260 13 m 0,68,69
 249 6 249 6 231.5 -0.5 c 0,70,71
 214 -7 214 -7 194 -13.5 c 0,72,73
 174 -20 174 -20 155 -25 c 0,74,75
 136 -30 136 -30 124 -34 c 0,76,-1
 105 0 l 0,77,-1
 1085 1192 l 0,78,79
 1098 1199 1098 1199 1115.5 1205.5 c 0,80,81
 1133 1212 1133 1212 1151 1218 c 0,82,83
 1169 1224 1169 1224 1186.5 1229 c 0,84,85
 1204 1234 1204 1234 1217 1237 c 0,86,-1
 1241 1205 l 0,87,-1
 260 13 l 0,68,69
1244 385 m 0,88,89
 1244 316 1244 316 1220 242 c 0,90,91
 1196 168 1196 168 1152 107.5 c 0,92,93
 1108 47 1108 47 1044.5 8 c 0,94,95
 981 -31 981 -31 903 -31 c 0,96,97
 853 -31 853 -31 813 -10.5 c 0,98,99
 773 10 773 10 744.5 46 c 0,100,101
 716 82 716 82 700.5 130.5 c 0,102,103
 685 179 685 179 685 235 c 0,104,105
 685 304 685 304 709 377 c 0,106,107
 733 450 733 450 778 510 c 0,108,109
 823 570 823 570 886.5 609 c 0,110,111
 950 648 950 648 1028 648 c 0,112,113
 1077 648 1077 648 1117 628.5 c 0,114,115
 1157 609 1157 609 1185.5 574 c 0,116,117
 1214 539 1214 539 1229 490.5 c 0,118,119
 1244 442 1244 442 1244 385 c 0,88,89
1089 397 m 0,120,121
 1089 486 1089 486 1061 527.5 c 0,122,123
 1033 569 1033 569 993 569 c 0,124,125
 962 569 962 569 939 549.5 c 0,126,127
 916 530 916 530 899 498 c 0,128,129
 882 466 882 466 871 426.5 c 0,130,131
 860 387 860 387 853.5 347 c 0,132,133
 847 307 847 307 844 270.5 c 0,134,135
 841 234 841 234 841 209 c 0,136,137
 841 127 841 127 867 88 c 0,138,139
 893 49 893 49 939 49 c 0,140,141
 967 49 967 49 989 67 c 0,142,143
 1011 85 1011 85 1027.5 114.5 c 0,144,145
 1044 144 1044 144 1056 181 c 0,146,147
 1068 218 1068 218 1075 257 c 0,148,149
 1082 296 1082 296 1085.5 332.5 c 0,150,151
 1089 369 1089 369 1089 397 c 0,120,121
EndSplineSet
EndChar

StartChar: ampersand
Encoding: 9 38 9
Width: 1224
Flags: W
LayerCount: 2
Fore
SplineSet
1306 748 m 0,0,1
 1280 717 1280 717 1251.5 690.5 c 0,2,3
 1223 664 1223 664 1199 647 c 0,4,5
 1167 664 1167 664 1125.5 676 c 0,6,7
 1084 688 1084 688 1052 690 c 0,8,9
 1066 657 1066 657 1067.5 621 c 0,10,11
 1069 585 1069 585 1062 527 c 0,12,13
 1052 459 1052 459 1015 384 c 0,14,15
 978 309 978 309 920 237 c 0,16,17
 962 186 962 186 1001 147 c 0,18,19
 1067 77 1067 77 1172 103 c 0,20,-1
 1175 50 l 0,21,22
 1133 31 1133 31 1094 16 c 0,23,24
 1055 1 1055 1 1023.5 -9.5 c 0,25,26
 992 -20 992 -20 969 -25.5 c 0,27,28
 946 -31 946 -31 936 -31 c 0,29,30
 916 -31 916 -31 874 4 c 0,31,32
 832 39 832 39 778 101 c 0,33,34
 699 41 699 41 606.5 5 c 0,35,36
 514 -31 514 -31 413 -31 c 0,37,38
 325 -31 325 -31 255 -5 c 0,39,40
 185 21 185 21 139 71 c 0,41,42
 93 121 93 121 74 193.5 c 0,43,44
 55 266 55 266 68 360 c 0,45,46
 82 471 82 471 168.5 580.5 c 0,47,48
 255 690 255 690 403 794 c 0,49,50
 386 866 386 866 379.5 936.5 c 0,51,52
 373 1007 373 1007 382 1073 c 0,53,54
 393 1154 393 1154 427.5 1223 c 0,55,56
 462 1292 462 1292 512.5 1342.5 c 0,57,58
 563 1393 563 1393 625 1421.5 c 0,59,60
 687 1450 687 1450 752 1450 c 0,61,62
 813 1450 813 1450 854 1429 c 0,63,64
 895 1408 895 1408 918 1373 c 0,65,66
 941 1338 941 1338 948 1292 c 0,67,68
 955 1246 955 1246 948 1197 c 0,69,70
 940 1146 940 1146 913.5 1096 c 0,71,72
 887 1046 887 1046 846.5 999 c 0,73,74
 806 952 806 952 754 909 c 0,75,76
 702 866 702 866 644 829 c 0,77,-1
 588 793 l 0,78,79
 635 666 635 666 707 543 c 0,80,81
 779 420 779 420 856 317 c 0,82,83
 914 403 914 403 928 486 c 0,84,85
 935 532 935 532 927.5 571 c 0,86,87
 920 610 920 610 903.5 638.5 c 0,88,89
 887 667 887 667 863 682.5 c 0,90,91
 839 698 839 698 812 698 c 0,92,-1
 793 728 l 0,93,94
 799 734 799 734 808.5 743 c 0,95,96
 818 752 818 752 829 760.5 c 0,97,98
 840 769 840 769 851.5 776 c 0,99,100
 863 783 863 783 873 787 c 0,101,-1
 1287 787 l 0,102,-1
 1306 748 l 0,0,1
466 94 m 0,103,104
 537 94 537 94 600 116 c 0,105,106
 663 138 663 138 717 176 c 0,107,108
 679 226 679 226 640 284.5 c 0,109,110
 601 343 601 343 564 408 c 0,111,112
 527 473 527 473 494.5 542 c 0,113,114
 462 611 462 611 437 682 c 0,115,116
 345 604 345 604 301.5 532.5 c 0,117,118
 258 461 258 461 247 381 c 0,119,120
 238 311 238 311 253.5 257.5 c 0,121,122
 269 204 269 204 300.5 167.5 c 0,123,124
 332 131 332 131 375.5 112.5 c 0,125,126
 419 94 419 94 466 94 c 0,103,104
536 1130 m 0,127,128
 528 1074 528 1074 534 1014 c 0,129,130
 540 954 540 954 557 890 c 0,131,132
 617 926 617 926 658.5 961.5 c 0,133,134
 700 997 700 997 726.5 1031.5 c 0,135,136
 753 1066 753 1066 766.5 1099 c 0,137,138
 780 1132 780 1132 785 1164 c 0,139,140
 792 1200 792 1200 789.5 1231.5 c 0,141,142
 787 1263 787 1263 774.5 1286.5 c 0,143,144
 762 1310 762 1310 740 1323 c 0,145,146
 718 1336 718 1336 686 1336 c 0,147,148
 653 1336 653 1336 627.5 1318.5 c 0,149,150
 602 1301 602 1301 583.5 1272.5 c 0,151,152
 565 1244 565 1244 553 1206.5 c 0,153,154
 541 1169 541 1169 536 1130 c 0,127,128
EndSplineSet
EndChar

StartChar: quotesingle
Encoding: 10 39 10
Width: 433
Flags: W
LayerCount: 2
Fore
SplineSet
314 868 m 0,0,1
 297 859 297 859 274.5 855 c 0,2,3
 252 851 252 851 230 851 c 0,4,-1
 251 1372 l 0,5,6
 263 1378 263 1378 284 1387 c 0,7,8
 305 1396 305 1396 327.5 1404.5 c 0,9,10
 350 1413 350 1413 370.5 1420 c 0,11,12
 391 1427 391 1427 402 1430 c 0,13,-1
 442 1407 l 0,14,-1
 314 868 l 0,0,1
EndSplineSet
EndChar

StartChar: parenleft
Encoding: 11 40 11
Width: 613
Flags: W
LayerCount: 2
Fore
SplineSet
719 1549 m 0,0,1
 651 1498 651 1498 587 1415.5 c 0,2,3
 523 1333 523 1333 468.5 1222 c 0,4,5
 414 1111 414 1111 372.5 973 c 0,6,7
 331 835 331 835 309 675 c 0,8,9
 288 529 288 529 288 390 c 0,10,11
 288 251 288 251 308 129.5 c 0,12,13
 328 8 328 8 367.5 -92 c 0,14,15
 407 -192 407 -192 466 -260 c 0,16,-1
 421 -315 l 0,17,18
 325 -262 325 -262 257.5 -165 c 0,19,20
 190 -68 190 -68 151.5 58.5 c 0,21,22
 113 185 113 185 104.5 335 c 0,23,24
 96 485 96 485 119 644 c 0,25,26
 142 808 142 808 194 959 c 0,27,28
 246 1110 246 1110 320 1236 c 0,29,30
 394 1362 394 1362 488.5 1457 c 0,31,32
 583 1552 583 1552 691 1604 c 0,33,-1
 719 1549 l 0,0,1
EndSplineSet
EndChar

StartChar: parenright
Encoding: 12 41 12
Width: 613
Flags: W
LayerCount: 2
Fore
SplineSet
515 630 m 0,0,1
 492 465 492 465 440 316.5 c 0,2,3
 388 168 388 168 313.5 45 c 0,4,5
 239 -78 239 -78 145 -170.5 c 0,6,7
 51 -263 51 -263 -57 -315 c 0,8,-1
 -87 -260 l 0,9,10
 -19 -209 -19 -209 45 -128.5 c 0,11,12
 109 -48 109 -48 164 60.5 c 0,13,14
 219 169 219 169 260.5 304 c 0,15,16
 302 439 302 439 325 600 c 0,17,18
 345 745 345 745 345 886 c 0,19,20
 345 1027 345 1027 325.5 1151.5 c 0,21,22
 306 1276 306 1276 266.5 1378.5 c 0,23,24
 227 1481 227 1481 168 1549 c 0,25,-1
 213 1604 l 0,26,27
 309 1550 309 1550 376 1451 c 0,28,29
 443 1352 443 1352 481.5 1222.5 c 0,30,31
 520 1093 520 1093 528.5 941 c 0,32,33
 537 789 537 789 515 630 c 0,0,1
EndSplineSet
EndChar

StartChar: asterisk
Encoding: 13 42 13
Width: 730
Flags: W
LayerCount: 2
Fore
SplineSet
425 1199 m 0,0,-1
 681 1391 l 0,1,2
 690 1384 690 1384 702.5 1374 c 0,3,4
 715 1364 715 1364 728 1352.5 c 0,5,6
 741 1341 741 1341 752.5 1330 c 0,7,8
 764 1319 764 1319 769 1311 c 0,9,-1
 762 1265 l 0,10,-1
 451 1135 l 0,11,-1
 704 1017 l 0,12,13
 702 1005 702 1005 698 987 c 0,14,15
 694 969 694 969 689.5 949.5 c 0,16,17
 685 930 685 930 680 912.5 c 0,18,19
 675 895 675 895 671 884 c 0,20,-1
 629 862 l 0,21,-1
 409 1070 l 0,22,-1
 405 761 l 0,23,24
 394 755 394 755 377.5 746.5 c 0,25,26
 361 738 361 738 343.5 730.5 c 0,27,28
 326 723 326 723 309.5 717 c 0,29,30
 293 711 293 711 283 709 c 0,31,-1
 251 732 l 0,32,-1
 339 1069 l 0,33,-1
 83 877 l 0,34,35
 74 884 74 884 61 894.5 c 0,36,37
 48 905 48 905 35 916 c 0,38,39
 22 927 22 927 11 938 c 0,40,41
 0 949 0 949 -6 957 c 0,42,-1
 4 1004 l 0,43,-1
 313 1133 l 0,44,-1
 59 1251 l 0,45,46
 62 1263 62 1263 66 1281.5 c 0,47,48
 70 1300 70 1300 74.5 1319 c 0,49,50
 79 1338 79 1338 83.5 1355.5 c 0,51,52
 88 1373 88 1373 93 1383 c 0,53,-1
 135 1405 l 0,54,-1
 354 1198 l 0,55,-1
 359 1508 l 0,56,57
 369 1514 369 1514 385.5 1522 c 0,58,59
 402 1530 402 1530 419.5 1537.5 c 0,60,61
 437 1545 437 1545 453.5 1551.5 c 0,62,63
 470 1558 470 1558 481 1561 c 0,64,-1
 515 1535 l 0,65,-1
 425 1199 l 0,0,-1
EndSplineSet
EndChar

StartChar: plus
Encoding: 14 43 14
Width: 786
Flags: W
LayerCount: 2
Fore
SplineSet
736 599 m 0,0,1
 733 588 733 588 727.5 574.5 c 0,2,3
 722 561 722 561 715 547 c 0,4,5
 708 533 708 533 701.5 520.5 c 0,6,7
 695 508 695 508 691 500 c 0,8,-1
 459 500 l 0,9,-1
 421 232 l 0,10,11
 412 227 412 227 399 222 c 0,12,13
 386 217 386 217 372 212.5 c 0,14,15
 358 208 358 208 344.5 204.5 c 0,16,17
 331 201 331 201 321 199 c 0,18,-1
 299 223 l 0,19,-1
 338 500 l 0,20,-1
 91 500 l 0,21,-1
 70 527 l 0,22,23
 74 537 74 537 79.5 550 c 0,24,25
 85 563 85 563 91.5 576.5 c 0,26,27
 98 590 98 590 104.5 602.5 c 0,28,29
 111 615 111 615 116 625 c 0,30,-1
 355 625 l 0,31,-1
 394 895 l 0,32,33
 402 898 402 898 415 902 c 0,34,35
 428 906 428 906 442.5 910.5 c 0,36,37
 457 915 457 915 470.5 919 c 0,38,39
 484 923 484 923 494 926 c 0,40,-1
 516 901 l 0,41,-1
 477 625 l 0,42,-1
 716 625 l 0,43,-1
 736 599 l 0,0,1
EndSplineSet
EndChar

StartChar: comma
Encoding: 15 44 15
Width: 433
Flags: W
LayerCount: 2
Fore
SplineSet
327 107 m 0,0,1
 327 76 327 76 314.5 38 c 0,2,3
 302 0 302 0 280 -41.5 c 0,4,5
 258 -83 258 -83 229 -125 c 0,6,7
 200 -167 200 -167 166.5 -205 c 0,8,9
 133 -243 133 -243 97 -275 c 0,10,11
 61 -307 61 -307 26 -328 c 0,12,-1
 -16 -288 l 0,13,14
 61 -207 61 -207 99 -135.5 c 0,15,16
 137 -64 137 -64 137 -8 c 0,17,18
 137 11 137 11 131.5 28.5 c 0,19,20
 126 46 126 46 113 59 c 0,21,22
 100 72 100 72 79 78.5 c 0,23,24
 58 85 58 85 28 81 c 0,25,-1
 20 137 l 0,26,27
 33 149 33 149 65 167 c 0,28,29
 97 185 97 185 134.5 201 c 0,30,31
 172 217 172 217 207 228 c 0,32,33
 242 239 242 239 260 239 c 0,34,35
 278 229 278 229 290.5 219 c 0,36,37
 303 209 303 209 311 194 c 0,38,39
 319 179 319 179 323 158.5 c 0,40,41
 327 138 327 138 327 107 c 0,0,1
EndSplineSet
EndChar

StartChar: hyphen
Encoding: 16 45 16
Width: 654
Flags: W
LayerCount: 2
Fore
SplineSet
553 424 m 1,0,-1
 61 424 l 1,1,-1
 88 561 l 1,2,-1
 580 561 l 1,3,-1
 553 424 l 1,0,-1
EndSplineSet
Refer: 356 727 N 1 0 0 1 0 0 2
EndChar

StartChar: period
Encoding: 17 46 17
Width: 433
Flags: W
LayerCount: 2
Fore
SplineSet
306 157 m 0,0,1
 306 125 306 125 295 92 c 0,2,3
 284 59 284 59 263 31.5 c 0,4,5
 242 4 242 4 212 -13.5 c 0,6,7
 182 -31 182 -31 145 -31 c 0,8,9
 97 -31 97 -31 73 -2.5 c 0,10,11
 49 26 49 26 49 73 c 0,12,13
 49 103 49 103 61 135.5 c 0,14,15
 73 168 73 168 94.5 194.5 c 0,16,17
 116 221 116 221 146 238.5 c 0,18,19
 176 256 176 256 211 256 c 0,20,21
 256 256 256 256 281 228.5 c 0,22,23
 306 201 306 201 306 157 c 0,0,1
EndSplineSet
EndChar

StartChar: slash
Encoding: 18 47 18
Width: 842
Flags: W
LayerCount: 2
Fore
SplineSet
63 -280 m 0,0,1
 53 -287 53 -287 34 -295 c 0,2,3
 15 -303 15 -303 -6 -311 c 0,4,5
 -27 -319 -27 -319 -47.5 -325.5 c 0,6,7
 -68 -332 -68 -332 -80 -336 c 0,8,-1
 -111 -309 l 0,9,-1
 791 1545 l 0,10,11
 804 1554 804 1554 822 1562 c 0,12,13
 840 1570 840 1570 858.5 1577 c 0,14,15
 877 1584 877 1584 895 1589.5 c 0,16,17
 913 1595 913 1595 928 1599 c 0,18,-1
 962 1575 l 0,19,-1
 63 -280 l 0,0,1
EndSplineSet
EndChar

StartChar: zero
Encoding: 19 48 19
Width: 859
Flags: W
LayerCount: 2
Fore
SplineSet
834 784 m 0,0,1
 834 719 834 719 827.5 649.5 c 0,2,3
 821 580 821 580 806 509.5 c 0,4,5
 791 439 791 439 765.5 369.5 c 0,6,7
 740 300 740 300 702 236 c 0,8,9
 669 180 669 180 630 131.5 c 0,10,11
 591 83 591 83 545.5 47 c 0,12,13
 500 11 500 11 447 -10 c 0,14,15
 394 -31 394 -31 333 -31 c 0,16,17
 261 -31 261 -31 207 4 c 0,18,19
 153 39 153 39 116 100.5 c 0,20,21
 79 162 79 162 60.5 244.5 c 0,22,23
 42 327 42 327 42 422 c 0,24,25
 42 553 42 553 70 690 c 0,26,27
 98 827 98 827 169 961 c 0,28,29
 200 1018 200 1018 239 1068 c 0,30,31
 278 1118 278 1118 324.5 1155 c 0,32,33
 371 1192 371 1192 425 1213.5 c 0,34,35
 479 1235 479 1235 542 1235 c 0,36,37
 612 1235 612 1235 666.5 1202 c 0,38,39
 721 1169 721 1169 758 1109 c 0,40,41
 795 1049 795 1049 814.5 966 c 0,42,43
 834 883 834 883 834 784 c 0,0,1
652 794 m 0,44,45
 652 875 652 875 639.5 935.5 c 0,46,47
 627 996 627 996 605 1036 c 0,48,49
 583 1076 583 1076 553.5 1095.5 c 0,50,51
 524 1115 524 1115 491 1115 c 0,52,53
 436 1115 436 1115 395 1077 c 0,54,55
 354 1039 354 1039 324 978 c 0,56,57
 294 917 294 917 274.5 840.5 c 0,58,59
 255 764 255 764 243.5 687 c 0,60,61
 232 610 232 610 227.5 541 c 0,62,63
 223 472 223 472 223 425 c 0,64,65
 223 257 223 257 266 174 c 0,66,67
 309 91 309 91 387 91 c 0,68,69
 441 91 441 91 481.5 128.5 c 0,70,71
 522 166 522 166 551.5 226 c 0,72,73
 581 286 581 286 600.5 362.5 c 0,74,75
 620 439 620 439 631.5 517 c 0,76,77
 643 595 643 595 647.5 668 c 0,78,79
 652 741 652 741 652 794 c 0,44,45
EndSplineSet
EndChar

StartChar: one
Encoding: 20 49 20
Width: 859
Flags: W
LayerCount: 2
Fore
SplineSet
701 0 m 0,0,-1
 65 0 l 0,1,-1
 73 63 l 0,2,3
 146 72 146 72 195 83.5 c 0,4,5
 244 95 244 95 274 107 c 0,6,7
 304 119 304 119 317 130.5 c 0,8,9
 330 142 330 142 332 153 c 0,10,-1
 437 930 l 0,11,12
 443 970 443 970 443.5 992 c 0,13,14
 444 1014 444 1014 435 1028 c 0,15,16
 430 1034 430 1034 415.5 1038 c 0,17,18
 401 1042 401 1042 373 1041 c 0,19,20
 345 1040 345 1040 302 1034 c 0,21,22
 259 1028 259 1028 198 1014 c 0,23,-1
 184 1075 l 0,24,25
 223 1086 223 1086 282 1107 c 0,26,27
 341 1128 341 1128 402.5 1153 c 0,28,29
 464 1178 464 1178 520 1202.5 c 0,30,31
 576 1227 576 1227 609 1245 c 0,32,-1
 639 1208 l 0,33,-1
 496 153 l 0,34,35
 494 143 494 143 502.5 131.5 c 0,36,37
 511 120 511 120 534.5 108 c 0,38,39
 558 96 558 96 600.5 84 c 0,40,41
 643 72 643 72 710 63 c 0,42,-1
 701 0 l 0,0,-1
EndSplineSet
EndChar

StartChar: two
Encoding: 21 50 21
Width: 859
Flags: W
LayerCount: 2
Fore
SplineSet
818 1011 m 0,0,1
 818 969 818 969 806.5 923.5 c 0,2,3
 795 878 795 878 767 822.5 c 0,4,5
 739 767 739 767 693 700 c 0,6,7
 647 633 647 633 578 549.5 c 0,8,9
 509 466 509 466 414 363 c 0,10,11
 319 260 319 260 195 134 c 0,12,-1
 565 134 l 0,13,14
 580 134 580 134 593 142 c 0,15,16
 606 150 606 150 617.5 163.5 c 0,17,18
 629 177 629 177 638 194 c 0,19,20
 647 211 647 211 655 229 c 0,21,22
 673 270 673 270 684 324 c 0,23,-1
 737 310 l 0,24,-1
 682 0 l 0,25,-1
 12 0 l 0,26,-1
 -3 74 l 0,27,28
 178 255 178 255 301.5 395 c 0,29,30
 425 535 425 535 501 643.5 c 0,31,32
 577 752 577 752 610 833 c 0,33,34
 643 914 643 914 643 977 c 0,35,36
 643 1049 643 1049 602 1091.5 c 0,37,38
 561 1134 561 1134 485 1134 c 0,39,40
 448 1134 448 1134 419 1115 c 0,41,42
 390 1096 390 1096 369.5 1066.5 c 0,43,44
 349 1037 349 1037 337 1000.5 c 0,45,46
 325 964 325 964 322 929 c 0,47,48
 290 910 290 910 251 895 c 0,49,50
 212 880 212 880 170 875 c 0,51,-1
 148 918 l 0,52,53
 155 970 155 970 192.5 1026 c 0,54,55
 230 1082 230 1082 287 1128.5 c 0,56,57
 344 1175 344 1175 415.5 1205 c 0,58,59
 487 1235 487 1235 562 1235 c 0,60,61
 614 1235 614 1235 660.5 1222.5 c 0,62,63
 707 1210 707 1210 742 1183 c 0,64,65
 777 1156 777 1156 797.5 1113.5 c 0,66,67
 818 1071 818 1071 818 1011 c 0,0,1
EndSplineSet
EndChar

StartChar: three
Encoding: 22 51 22
Width: 859
Flags: W
LayerCount: 2
Fore
SplineSet
768 1001 m 0,0,1
 768 947 768 947 750.5 900.5 c 0,2,3
 733 854 733 854 702 815.5 c 0,4,5
 671 777 671 777 629 747.5 c 0,6,7
 587 718 587 718 539 698 c 0,8,9
 586 692 586 692 624 668 c 0,10,11
 662 644 662 644 688.5 607 c 0,12,13
 715 570 715 570 729.5 524 c 0,14,15
 744 478 744 478 744 428 c 0,16,17
 744 334 744 334 711 250.5 c 0,18,19
 678 167 678 167 618 104.5 c 0,20,21
 558 42 558 42 474.5 5.5 c 0,22,23
 391 -31 391 -31 290 -31 c 0,24,25
 219 -31 219 -31 143 7 c 0,26,27
 67 45 67 45 -7 124 c 0,28,-1
 37 201 l 0,29,30
 75 167 75 167 107 145 c 0,31,32
 139 123 139 123 169 109.5 c 0,33,34
 199 96 199 96 229 90.5 c 0,35,36
 259 85 259 85 294 85 c 0,37,38
 358 85 358 85 408.5 110 c 0,39,40
 459 135 459 135 494 178.5 c 0,41,42
 529 222 529 222 547 279 c 0,43,44
 565 336 565 336 565 401 c 0,45,46
 565 457 565 457 549 497.5 c 0,47,48
 533 538 533 538 506.5 564.5 c 0,49,50
 480 591 480 591 445.5 603.5 c 0,51,52
 411 616 411 616 375 616 c 0,53,-1
 356 616 l 0,54,55
 350 616 350 616 344.5 615 c 0,56,57
 339 614 339 614 332 613 c 0,58,59
 325 612 325 612 311 609 c 0,60,-1
 305 679 l 0,61,62
 365 696 365 696 418 720.5 c 0,63,64
 471 745 471 745 510 780.5 c 0,65,66
 549 816 549 816 571.5 864.5 c 0,67,68
 594 913 594 913 594 977 c 0,69,70
 594 1008 594 1008 586.5 1036.5 c 0,71,72
 579 1065 579 1065 562.5 1087 c 0,73,74
 546 1109 546 1109 521 1121.5 c 0,75,76
 496 1134 496 1134 460 1134 c 0,77,78
 428 1134 428 1134 401 1121 c 0,79,80
 374 1108 374 1108 355.5 1085.5 c 0,81,82
 337 1063 337 1063 327 1033 c 0,83,84
 317 1003 317 1003 318 968 c 0,85,86
 283 949 283 949 242 935.5 c 0,87,88
 201 922 201 922 160 919 c 0,89,-1
 138 960 l 0,90,91
 144 1002 144 1002 178 1050 c 0,92,93
 212 1098 212 1098 264 1139.5 c 0,94,95
 316 1181 316 1181 381.5 1208 c 0,96,97
 447 1235 447 1235 516 1235 c 0,98,99
 583 1235 583 1235 631 1215.5 c 0,100,101
 679 1196 679 1196 709.5 1163.5 c 0,102,103
 740 1131 740 1131 754 1088.5 c 0,104,105
 768 1046 768 1046 768 1001 c 0,0,1
EndSplineSet
EndChar

StartChar: four
Encoding: 23 52 23
Width: 859
Flags: W
LayerCount: 2
Fore
SplineSet
795 432 m 0,0,1
 770 401 770 401 748 381.5 c 0,2,3
 726 362 726 362 704 345 c 0,4,-1
 642 345 l 0,5,-1
 611 114 l 0,6,7
 609 106 609 106 614 99.5 c 0,8,9
 619 93 619 93 632.5 85.5 c 0,10,11
 646 78 646 78 669.5 70 c 0,12,13
 693 62 693 62 729 53 c 0,14,-1
 722 0 l 0,15,-1
 250 0 l 0,16,-1
 257 53 l 0,17,18
 317 64 317 64 355.5 73.5 c 0,19,20
 394 83 394 83 416 91.5 c 0,21,22
 438 100 438 100 447 108 c 0,23,24
 456 116 456 116 458 125 c 0,25,-1
 486 345 l 0,26,-1
 45 345 l 0,27,-1
 16 381 l 0,28,-1
 568 1172 l 0,29,30
 612 1189 612 1189 655 1209 c 0,31,32
 698 1229 698 1229 730 1245 c 0,33,-1
 759 1208 l 0,34,-1
 658 463 l 0,35,-1
 773 463 l 0,36,-1
 795 432 l 0,0,1
185 462 m 0,37,-1
 504 462 l 0,38,-1
 581 1020 l 0,39,-1
 185 462 l 0,37,-1
EndSplineSet
EndChar

StartChar: five
Encoding: 24 53 24
Width: 859
Flags: W
LayerCount: 2
Fore
SplineSet
836 1192 m 0,0,1
 824 1175 824 1175 807.5 1156 c 0,2,3
 791 1137 791 1137 773.5 1118.5 c 0,4,5
 756 1100 756 1100 740 1084.5 c 0,6,7
 724 1069 724 1069 712 1060 c 0,8,-1
 348 1060 l 0,9,10
 342 1031 342 1031 331 987.5 c 0,11,12
 320 944 320 944 308 899.5 c 0,13,14
 296 855 296 855 285 815.5 c 0,15,16
 274 776 274 776 267 754 c 0,17,18
 304 768 304 768 355 776.5 c 0,19,20
 406 785 406 785 456 785 c 0,21,22
 530 785 530 785 586.5 759 c 0,23,24
 643 733 643 733 681 690 c 0,25,26
 719 647 719 647 738.5 591.5 c 0,27,28
 758 536 758 536 758 477 c 0,29,30
 758 417 758 417 745 356.5 c 0,31,32
 732 296 732 296 706.5 239.5 c 0,33,34
 681 183 681 183 643.5 133.5 c 0,35,36
 606 84 606 84 557 47.5 c 0,37,38
 508 11 508 11 448 -10 c 0,39,40
 388 -31 388 -31 318 -31 c 0,41,42
 233 -31 233 -31 152 6.5 c 0,43,44
 71 44 71 44 -1 123 c 0,45,-1
 46 197 l 0,46,47
 91 162 91 162 128.5 139.5 c 0,48,49
 166 117 166 117 197.5 104 c 0,50,51
 229 91 229 91 257 86.5 c 0,52,53
 285 82 285 82 312 82 c 0,54,55
 380 82 380 82 431 113 c 0,56,57
 482 144 482 144 515.5 194.5 c 0,58,59
 549 245 549 245 565.5 309 c 0,60,61
 582 373 582 373 582 439 c 0,62,63
 582 488 582 488 568.5 529 c 0,64,65
 555 570 555 570 528.5 600 c 0,66,67
 502 630 502 630 464.5 646.5 c 0,68,69
 427 663 427 663 379 663 c 0,70,71
 320 663 320 663 266 641.5 c 0,72,73
 212 620 212 620 158 580 c 0,74,-1
 120 613 l 0,75,76
 131 649 131 649 145 697 c 0,77,78
 159 745 159 745 174 799 c 0,79,80
 189 853 189 853 204.5 910 c 0,81,82
 220 967 220 967 233.5 1020.5 c 0,83,84
 247 1074 247 1074 258.5 1121.5 c 0,85,86
 270 1169 270 1169 276 1204 c 0,87,-1
 701 1204 l 0,88,89
 726 1204 726 1204 746.5 1206.5 c 0,90,91
 767 1209 767 1209 781 1213 c 0,92,93
 798 1217 798 1217 811 1223 c 0,94,-1
 836 1192 l 0,0,1
EndSplineSet
EndChar

StartChar: six
Encoding: 25 54 25
Width: 859
Flags: W
LayerCount: 2
Fore
SplineSet
824 1180 m 0,0,1
 713 1157 713 1157 625 1109 c 0,2,3
 537 1061 537 1061 470 993.5 c 0,4,5
 403 926 403 926 356 842 c 0,6,7
 309 758 309 758 282 664 c 0,8,9
 349 724 349 724 411.5 749.5 c 0,10,11
 474 775 474 775 528 775 c 0,12,13
 592 775 592 775 642 754.5 c 0,14,15
 692 734 692 734 726.5 696 c 0,16,17
 761 658 761 658 778.5 604 c 0,18,19
 796 550 796 550 796 483 c 0,20,21
 796 429 796 429 783 369.5 c 0,22,23
 770 310 770 310 745 253 c 0,24,25
 720 196 720 196 683.5 144.5 c 0,26,27
 647 93 647 93 600 54 c 0,28,29
 553 15 553 15 497 -8 c 0,30,31
 441 -31 441 -31 376 -31 c 0,32,33
 309 -31 309 -31 252 -2.5 c 0,34,35
 195 26 195 26 153 77.5 c 0,36,37
 111 129 111 129 87.5 201 c 0,38,39
 64 273 64 273 64 360 c 0,40,41
 64 468 64 468 87 571.5 c 0,42,43
 110 675 110 675 154.5 768.5 c 0,44,45
 199 862 199 862 263.5 943 c 0,46,47
 328 1024 328 1024 411.5 1087 c 0,48,49
 495 1150 495 1150 596.5 1192 c 0,50,51
 698 1234 698 1234 815 1249 c 0,52,-1
 824 1180 l 0,0,1
465 654 m 0,53,54
 413 654 413 654 360.5 626 c 0,55,56
 308 598 308 598 254 538 c 0,57,58
 247 497 247 497 244.5 456 c 0,59,60
 242 415 242 415 242 373 c 0,61,62
 242 298 242 298 255 243.5 c 0,63,64
 268 189 268 189 292 153.5 c 0,65,66
 316 118 316 118 350 101 c 0,67,68
 384 84 384 84 426 84 c 0,69,70
 464 84 464 84 493 100.5 c 0,71,72
 522 117 522 117 544 145 c 0,73,74
 566 173 566 173 581.5 209 c 0,75,76
 597 245 597 245 606.5 283 c 0,77,78
 616 321 616 321 620 359.5 c 0,79,80
 624 398 624 398 624 430 c 0,81,82
 624 498 624 498 609.5 541.5 c 0,83,84
 595 585 595 585 572 610 c 0,85,86
 549 635 549 635 521 644.5 c 0,87,88
 493 654 493 654 465 654 c 0,53,54
EndSplineSet
EndChar

StartChar: seven
Encoding: 26 55 26
Width: 859
Flags: W
LayerCount: 2
Fore
SplineSet
901 1167 m 0,0,1
 844 1059 844 1059 787 949 c 0,2,3
 730 839 730 839 676 732.5 c 0,4,5
 622 626 622 626 572 525 c 0,6,7
 522 424 522 424 479 335.5 c 0,8,9
 436 247 436 247 401.5 173 c 0,10,11
 367 99 367 99 344 46 c 0,12,13
 309 21 309 21 261.5 1.5 c 0,14,15
 214 -18 214 -18 168 -31 c 0,16,-1
 133 5 l 0,17,18
 232 158 232 158 313 294.5 c 0,19,20
 394 431 394 431 464.5 559 c 0,21,22
 535 687 535 687 600 810.5 c 0,23,24
 665 934 665 934 733 1061 c 0,25,-1
 319 1061 l 0,26,27
 306 1061 306 1061 292 1059 c 0,28,29
 278 1057 278 1057 260.5 1042.5 c 0,30,31
 243 1028 243 1028 222 997 c 0,32,33
 201 966 201 966 173 908 c 0,34,-1
 129 928 l 0,35,36
 135 951 135 951 145 989 c 0,37,38
 155 1027 155 1027 166 1067.5 c 0,39,40
 177 1108 177 1108 188 1145 c 0,41,42
 199 1182 199 1182 208 1204 c 0,43,-1
 876 1204 l 0,44,-1
 901 1167 l 0,0,1
EndSplineSet
EndChar

StartChar: eight
Encoding: 27 56 27
Width: 859
Flags: W
LayerCount: 2
Fore
SplineSet
817 1001 m 0,0,1
 817 947 817 947 797 902 c 0,2,3
 777 857 777 857 745 819.5 c 0,4,5
 713 782 713 782 672 750.5 c 0,6,7
 631 719 631 719 589 692 c 0,8,9
 627 669 627 669 661.5 642 c 0,10,11
 696 615 696 615 722.5 579.5 c 0,12,13
 749 544 749 544 764.5 499.5 c 0,14,15
 780 455 780 455 780 397 c 0,16,17
 780 312 780 312 743.5 234.5 c 0,18,19
 707 157 707 157 645.5 98 c 0,20,21
 584 39 584 39 503.5 4 c 0,22,23
 423 -31 423 -31 336 -31 c 0,24,25
 259 -31 259 -31 202.5 -8 c 0,26,27
 146 15 146 15 108 54 c 0,28,29
 70 93 70 93 51.5 143.5 c 0,30,31
 33 194 33 194 33 250 c 0,32,33
 33 317 33 317 58.5 375.5 c 0,34,35
 84 434 84 434 125.5 483 c 0,36,37
 167 532 167 532 220.5 572 c 0,38,39
 274 612 274 612 330 642 c 0,40,41
 297 662 297 662 267 684.5 c 0,42,43
 237 707 237 707 214.5 736.5 c 0,44,45
 192 766 192 766 178.5 803 c 0,46,47
 165 840 165 840 165 889 c 0,48,49
 165 962 165 962 197 1025.5 c 0,50,51
 229 1089 229 1089 282.5 1135.5 c 0,52,53
 336 1182 336 1182 405.5 1208.5 c 0,54,55
 475 1235 475 1235 551 1235 c 0,56,57
 618 1235 618 1235 668 1217.5 c 0,58,59
 718 1200 718 1200 751 1169 c 0,60,61
 784 1138 784 1138 800.5 1095 c 0,62,63
 817 1052 817 1052 817 1001 c 0,0,1
600 342 m 0,64,65
 600 395 600 395 583 434.5 c 0,66,67
 566 474 566 474 538.5 504 c 0,68,69
 511 534 511 534 475 557.5 c 0,70,71
 439 581 439 581 401 602 c 0,72,73
 357 570 357 570 322 536 c 0,74,75
 287 502 287 502 262.5 463 c 0,76,77
 238 424 238 424 224.5 377.5 c 0,78,79
 211 331 211 331 211 274 c 0,80,81
 211 231 211 231 223.5 195 c 0,82,83
 236 159 236 159 259.5 133 c 0,84,85
 283 107 283 107 315.5 92.5 c 0,86,87
 348 78 348 78 388 78 c 0,88,89
 439 78 439 78 478.5 101.5 c 0,90,91
 518 125 518 125 545 162.5 c 0,92,93
 572 200 572 200 586 247.5 c 0,94,95
 600 295 600 295 600 342 c 0,64,65
320 940 m 0,96,97
 320 902 320 902 336 873 c 0,98,99
 352 844 352 844 379 820 c 0,100,101
 406 796 406 796 441 775 c 0,102,103
 476 754 476 754 515 733 c 0,104,105
 544 755 544 755 569 780 c 0,106,107
 594 805 594 805 612 834.5 c 0,108,109
 630 864 630 864 640.5 898.5 c 0,110,111
 651 933 651 933 651 975 c 0,112,113
 651 1053 651 1053 608 1093.5 c 0,114,115
 565 1134 565 1134 492 1134 c 0,116,117
 455 1134 455 1134 423.5 1117.5 c 0,118,119
 392 1101 392 1101 369 1073.5 c 0,120,121
 346 1046 346 1046 333 1011 c 0,122,123
 320 976 320 976 320 940 c 0,96,97
EndSplineSet
EndChar

StartChar: nine
Encoding: 28 57 28
Width: 859
Flags: W
LayerCount: 2
Fore
SplineSet
838 862 m 0,0,1
 838 691 838 691 789 537 c 0,2,3
 740 383 740 383 644 261.5 c 0,4,5
 548 140 548 140 407 60 c 0,6,7
 266 -20 266 -20 82 -43 c 0,8,-1
 73 26 l 0,9,10
 192 53 192 53 284 102 c 0,11,12
 376 151 376 151 444 219 c 0,13,14
 512 287 512 287 557 372.5 c 0,15,16
 602 458 602 458 626 559 c 0,17,18
 574 505 574 505 509.5 471 c 0,19,20
 445 437 445 437 371 437 c 0,21,22
 307 437 307 437 257.5 459 c 0,23,24
 208 481 208 481 173.5 520 c 0,25,26
 139 559 139 559 121 611.5 c 0,27,28
 103 664 103 664 103 725 c 0,29,30
 103 782 103 782 118.5 842.5 c 0,31,32
 134 903 134 903 162.5 959.5 c 0,33,34
 191 1016 191 1016 231 1066 c 0,35,36
 271 1116 271 1116 320.5 1153.5 c 0,37,38
 370 1191 370 1191 427.5 1213 c 0,39,40
 485 1235 485 1235 549 1235 c 0,41,42
 610 1235 610 1235 662.5 1212.5 c 0,43,44
 715 1190 715 1190 754 1144 c 0,45,46
 793 1098 793 1098 815.5 1027.5 c 0,47,48
 838 957 838 957 838 862 c 0,0,1
434 560 m 0,49,50
 501 560 501 560 553.5 595 c 0,51,52
 606 630 606 630 648 685 c 0,53,54
 657 760 657 760 657 841 c 0,55,56
 657 920 657 920 643.5 974 c 0,57,58
 630 1028 630 1028 608 1061 c 0,59,60
 586 1094 586 1094 557.5 1108.5 c 0,61,62
 529 1123 529 1123 499 1123 c 0,63,64
 434 1123 434 1123 391 1088.5 c 0,65,66
 348 1054 348 1054 322 1002 c 0,67,68
 296 950 296 950 285 887.5 c 0,69,70
 274 825 274 825 274 770 c 0,71,72
 274 708 274 708 289.5 667.5 c 0,73,74
 305 627 305 627 329 603 c 0,75,76
 353 579 353 579 381 569.5 c 0,77,78
 409 560 409 560 434 560 c 0,49,50
EndSplineSet
EndChar

StartChar: colon
Encoding: 29 58 29
Width: 433
Flags: W
LayerCount: 2
Fore
SplineSet
306 157 m 0,0,1
 306 125 306 125 295 92 c 0,2,3
 284 59 284 59 263 31.5 c 0,4,5
 242 4 242 4 212 -13.5 c 0,6,7
 182 -31 182 -31 145 -31 c 0,8,9
 97 -31 97 -31 73 -2.5 c 0,10,11
 49 26 49 26 49 73 c 0,12,13
 49 103 49 103 61 135.5 c 0,14,15
 73 168 73 168 94.5 194.5 c 0,16,17
 116 221 116 221 146 238.5 c 0,18,19
 176 256 176 256 211 256 c 0,20,21
 256 256 256 256 281 228.5 c 0,22,23
 306 201 306 201 306 157 c 0,0,1
404 861 m 0,24,25
 404 830 404 830 393 797 c 0,26,27
 382 764 382 764 361.5 737 c 0,28,29
 341 710 341 710 311 693 c 0,30,31
 281 676 281 676 244 676 c 0,32,33
 196 676 196 676 172 704 c 0,34,35
 148 732 148 732 148 779 c 0,36,37
 148 809 148 809 160 841 c 0,38,39
 172 873 172 873 193.5 899.5 c 0,40,41
 215 926 215 926 244.5 943.5 c 0,42,43
 274 961 274 961 309 961 c 0,44,45
 354 961 354 961 379 933.5 c 0,46,47
 404 906 404 906 404 861 c 0,24,25
EndSplineSet
EndChar

StartChar: semicolon
Encoding: 30 59 30
Width: 433
Flags: W
LayerCount: 2
Fore
SplineSet
327 107 m 0,0,1
 327 76 327 76 314.5 38 c 0,2,3
 302 0 302 0 280 -41.5 c 0,4,5
 258 -83 258 -83 229 -125 c 0,6,7
 200 -167 200 -167 166.5 -205 c 0,8,9
 133 -243 133 -243 97 -275 c 0,10,11
 61 -307 61 -307 26 -328 c 0,12,-1
 -16 -288 l 0,13,14
 61 -207 61 -207 99 -135.5 c 0,15,16
 137 -64 137 -64 137 -8 c 0,17,18
 137 11 137 11 131.5 28.5 c 0,19,20
 126 46 126 46 113 59 c 0,21,22
 100 72 100 72 79 78.5 c 0,23,24
 58 85 58 85 28 81 c 0,25,-1
 20 137 l 0,26,27
 33 149 33 149 65 167 c 0,28,29
 97 185 97 185 134.5 201 c 0,30,31
 172 217 172 217 207 228 c 0,32,33
 242 239 242 239 260 239 c 0,34,35
 278 229 278 229 290.5 219 c 0,36,37
 303 209 303 209 311 194 c 0,38,39
 319 179 319 179 323 158.5 c 0,40,41
 327 138 327 138 327 107 c 0,0,1
404 861 m 0,42,43
 404 830 404 830 393 797 c 0,44,45
 382 764 382 764 362 737 c 0,46,47
 342 710 342 710 312 693 c 0,48,49
 282 676 282 676 245 676 c 0,50,51
 197 676 197 676 172.5 704 c 0,52,53
 148 732 148 732 148 779 c 0,54,55
 148 809 148 809 160 841 c 0,56,57
 172 873 172 873 193.5 899.5 c 0,58,59
 215 926 215 926 245 943.5 c 0,60,61
 275 961 275 961 310 961 c 0,62,63
 355 961 355 961 379.5 933.5 c 0,64,65
 404 906 404 906 404 861 c 0,42,43
EndSplineSet
EndChar

StartChar: less
Encoding: 31 60 31
Width: 855
Flags: W
LayerCount: 2
Fore
SplineSet
821 879 m 0,0,1
 817 869 817 869 811.5 854 c 0,2,3
 806 839 806 839 800.5 823 c 0,4,5
 795 807 795 807 789 792 c 0,6,7
 783 777 783 777 779 768 c 0,8,-1
 251 565 l 0,9,-1
 727 361 l 0,10,-1
 740 322 l 0,11,12
 717 302 717 302 698.5 286 c 0,13,14
 680 270 680 270 649 251 c 0,15,-1
 75 498 l 0,16,-1
 53 529 l 0,17,18
 56 541 56 541 61.5 555 c 0,19,20
 67 569 67 569 73 583 c 0,21,22
 79 597 79 597 84.5 610 c 0,23,24
 90 623 90 623 95 632 c 0,25,-1
 799 906 l 0,26,-1
 821 879 l 0,0,1
EndSplineSet
EndChar

StartChar: equal
Encoding: 32 61 32
Width: 855
Flags: W
LayerCount: 2
Fore
SplineSet
776 449 m 0,0,1
 773 438 773 438 767 424.5 c 0,2,3
 761 411 761 411 754.5 397 c 0,4,5
 748 383 748 383 741.5 370.5 c 0,6,7
 735 358 735 358 731 350 c 0,8,-1
 68 350 l 0,9,-1
 48 377 l 0,10,11
 52 387 52 387 57.5 400 c 0,12,13
 63 413 63 413 69.5 426.5 c 0,14,15
 76 440 76 440 82.5 452.5 c 0,16,17
 89 465 89 465 94 475 c 0,18,-1
 756 475 l 0,19,-1
 776 449 l 0,0,1
816 749 m 0,20,21
 813 738 813 738 807.5 724.5 c 0,22,23
 802 711 802 711 795 697 c 0,24,25
 788 683 788 683 781.5 670.5 c 0,26,27
 775 658 775 658 771 650 c 0,28,-1
 109 650 l 0,29,-1
 88 677 l 0,30,31
 92 687 92 687 97.5 700 c 0,32,33
 103 713 103 713 109.5 726.5 c 0,34,35
 116 740 116 740 122.5 752.5 c 0,36,37
 129 765 129 765 134 775 c 0,38,-1
 796 775 l 0,39,-1
 816 749 l 0,20,21
EndSplineSet
EndChar

StartChar: greater
Encoding: 33 62 33
Width: 855
Flags: W
LayerCount: 2
Fore
SplineSet
797 628 m 0,0,1
 789 605 789 605 777 575 c 0,2,3
 765 545 765 545 754 525 c 0,4,-1
 50 251 l 0,5,-1
 29 279 l 0,6,7
 33 289 33 289 38 304 c 0,8,9
 43 319 43 319 48.5 335 c 0,10,11
 54 351 54 351 59.5 366 c 0,12,13
 65 381 65 381 70 390 c 0,14,-1
 598 592 l 0,15,-1
 122 796 l 0,16,-1
 109 835 l 0,17,18
 121 845 121 845 130.5 854 c 0,19,20
 140 863 140 863 150.5 871.5 c 0,21,22
 161 880 161 880 173 888.5 c 0,23,24
 185 897 185 897 200 906 c 0,25,-1
 774 659 l 0,26,-1
 797 628 l 0,0,1
EndSplineSet
EndChar

StartChar: question
Encoding: 34 63 34
Width: 835
Flags: W
LayerCount: 2
Fore
SplineSet
837 1186 m 0,0,1
 837 1099 837 1099 810.5 1033.5 c 0,2,3
 784 968 784 968 743.5 914 c 0,4,5
 703 860 703 860 654.5 813 c 0,6,7
 606 766 606 766 562 717.5 c 0,8,9
 518 669 518 669 485 614.5 c 0,10,11
 452 560 452 560 442 490 c 0,12,-1
 430 397 l 0,13,14
 411 383 411 383 391 372 c 0,15,16
 371 361 371 361 346 353 c 0,17,-1
 323 374 l 0,18,-1
 328 493 l 0,19,20
 330 558 330 558 354 614 c 0,21,22
 378 670 378 670 413.5 720 c 0,23,24
 449 770 449 770 490 817 c 0,25,26
 531 864 531 864 566 913 c 0,27,28
 601 962 601 962 624 1014.5 c 0,29,30
 647 1067 647 1067 647 1128 c 0,31,32
 647 1222 647 1222 607 1276 c 0,33,34
 567 1330 567 1330 488 1330 c 0,35,36
 449 1330 449 1330 419.5 1311.5 c 0,37,38
 390 1293 390 1293 372 1261 c 0,39,40
 354 1229 354 1229 349 1186.5 c 0,41,42
 344 1144 344 1144 353 1096 c 0,43,44
 309 1076 309 1076 266.5 1065 c 0,45,46
 224 1054 224 1054 180 1049 c 0,47,-1
 157 1083 l 0,48,49
 157 1147 157 1147 186.5 1209 c 0,50,51
 216 1271 216 1271 271 1320 c 0,52,53
 326 1369 326 1369 403.5 1399.5 c 0,54,55
 481 1430 481 1430 576 1430 c 0,56,57
 642 1430 642 1430 691 1411 c 0,58,59
 740 1392 740 1392 772.5 1359 c 0,60,61
 805 1326 805 1326 821 1281.5 c 0,62,63
 837 1237 837 1237 837 1186 c 0,0,1
467 157 m 0,64,65
 467 125 467 125 456 92 c 0,66,67
 445 59 445 59 424 31.5 c 0,68,69
 403 4 403 4 373 -13.5 c 0,70,71
 343 -31 343 -31 306 -31 c 0,72,73
 260 -31 260 -31 235 -2.5 c 0,74,75
 210 26 210 26 210 73 c 0,76,77
 210 103 210 103 222 135.5 c 0,78,79
 234 168 234 168 255.5 194.5 c 0,80,81
 277 221 277 221 306.5 238.5 c 0,82,83
 336 256 336 256 371 256 c 0,84,85
 418 256 418 256 442.5 228.5 c 0,86,87
 467 201 467 201 467 157 c 0,64,65
EndSplineSet
EndChar

StartChar: at
Encoding: 35 64 35
Width: 1627
Flags: W
LayerCount: 2
Fore
SplineSet
944 403 m 0,0,1
 950 448 950 448 958.5 499 c 0,2,3
 967 550 967 550 975.5 598.5 c 0,4,5
 984 647 984 647 991 688.5 c 0,6,7
 998 730 998 730 1003 755 c 0,8,9
 974 779 974 779 940 799 c 0,10,11
 906 819 906 819 867 819 c 0,12,13
 823 819 823 819 786.5 797.5 c 0,14,15
 750 776 750 776 719.5 740 c 0,16,17
 689 704 689 704 666 658 c 0,18,19
 643 612 643 612 627.5 563 c 0,20,21
 612 514 612 514 604 466 c 0,22,23
 596 418 596 418 596 379 c 0,24,25
 596 317 596 317 606 268.5 c 0,26,27
 616 220 616 220 632.5 186 c 0,28,29
 649 152 649 152 671 134 c 0,30,31
 693 116 693 116 717 116 c 0,32,33
 739 116 739 116 766 140 c 0,34,35
 793 164 793 164 823 204 c 0,36,37
 853 244 853 244 884 295.5 c 0,38,39
 915 347 915 347 944 403 c 0,0,1
1541 549 m 0,40,41
 1529 462 1529 462 1498.5 385 c 0,42,43
 1468 308 1468 308 1426 242.5 c 0,44,45
 1384 177 1384 177 1333.5 124.5 c 0,46,47
 1283 72 1283 72 1231.5 35 c 0,48,49
 1180 -2 1180 -2 1131.5 -21.5 c 0,50,51
 1083 -41 1083 -41 1043 -41 c 0,52,53
 1026 -41 1026 -41 1007.5 -29.5 c 0,54,55
 989 -18 989 -18 972.5 13 c 0,56,57
 956 44 956 44 944.5 99 c 0,58,59
 933 154 933 154 931 241 c 0,60,61
 906 196 906 196 873 146.5 c 0,62,63
 840 97 840 97 802.5 55 c 0,64,65
 765 13 765 13 725.5 -14 c 0,66,67
 686 -41 686 -41 647 -41 c 0,68,69
 613 -41 613 -41 575 -22 c 0,70,71
 537 -3 537 -3 504.5 38.5 c 0,72,73
 472 80 472 80 450.5 145.5 c 0,74,75
 429 211 429 211 429 305 c 0,76,77
 429 384 429 384 445.5 459.5 c 0,78,79
 462 535 462 535 496 604 c 0,80,81
 530 673 530 673 581.5 733.5 c 0,82,83
 633 794 633 794 704 842 c 0,84,85
 731 860 731 860 764.5 877 c 0,86,87
 798 894 798 894 833.5 907 c 0,88,89
 869 920 869 920 904.5 928 c 0,90,91
 940 936 940 936 972 936 c 0,92,93
 1012 936 1012 936 1048 917.5 c 0,94,95
 1084 899 1084 899 1115 879 c 0,96,97
 1141 895 1141 895 1169 909 c 0,98,-1
 1223 936 l 0,99,-1
 1247 891 l 0,100,101
 1230 877 1230 877 1218.5 866 c 0,102,103
 1207 855 1207 855 1199 840.5 c 0,104,105
 1191 826 1191 826 1184.5 805 c 0,106,107
 1178 784 1178 784 1171 750 c 0,108,109
 1156 678 1156 678 1143.5 605 c 0,110,111
 1131 532 1131 532 1122 469 c 0,112,113
 1113 406 1113 406 1108 357.5 c 0,114,115
 1103 309 1103 309 1103 287 c 0,116,117
 1103 236 1103 236 1108 203.5 c 0,118,119
 1113 171 1113 171 1121 151.5 c 0,120,121
 1129 132 1129 132 1140 124.5 c 0,122,123
 1151 117 1151 117 1163 117 c 0,124,125
 1188 117 1188 117 1222.5 146.5 c 0,126,127
 1257 176 1257 176 1290.5 228.5 c 0,128,129
 1324 281 1324 281 1351.5 353 c 0,130,131
 1379 425 1379 425 1392 510 c 0,132,133
 1417 679 1417 679 1388 808.5 c 0,134,135
 1359 938 1359 938 1291.5 1026 c 0,136,137
 1224 1114 1224 1114 1127 1159 c 0,138,139
 1030 1204 1030 1204 919 1204 c 0,140,141
 830 1204 830 1204 749.5 1177 c 0,142,143
 669 1150 669 1150 599.5 1102.5 c 0,144,145
 530 1055 530 1055 472 989 c 0,146,147
 414 923 414 923 370 845.5 c 0,148,149
 326 768 326 768 296.5 681 c 0,150,151
 267 594 267 594 254 504 c 0,152,153
 229 322 229 322 265 182.5 c 0,154,155
 301 43 301 43 381 -51.5 c 0,156,157
 461 -146 461 -146 575 -195 c 0,158,159
 689 -244 689 -244 820 -244 c 0,160,161
 897 -244 897 -244 972.5 -225 c 0,162,163
 1048 -206 1048 -206 1114.5 -178.5 c 0,164,165
 1181 -151 1181 -151 1234 -119.5 c 0,166,167
 1287 -88 1287 -88 1319 -62 c 0,168,-1
 1340 -130 l 0,169,170
 1302 -168 1302 -168 1243 -211 c 0,171,172
 1184 -254 1184 -254 1108.5 -290.5 c 0,173,174
 1033 -327 1033 -327 942.5 -351 c 0,175,176
 852 -375 852 -375 751 -375 c 0,177,178
 583 -375 583 -375 447 -316 c 0,179,180
 311 -257 311 -257 219.5 -147.5 c 0,181,182
 128 -38 128 -38 89 117.5 c 0,183,184
 50 273 50 273 77 465 c 0,185,186
 93 577 93 577 134 685.5 c 0,187,188
 175 794 175 794 237.5 890 c 0,189,190
 300 986 300 986 381 1067.5 c 0,191,192
 462 1149 462 1149 557.5 1208 c 0,193,194
 653 1267 653 1267 760 1300 c 0,195,196
 867 1333 867 1333 981 1333 c 0,197,198
 1071 1333 1071 1333 1152.5 1309.5 c 0,199,200
 1234 1286 1234 1286 1302.5 1240.5 c 0,201,202
 1371 1195 1371 1195 1423.5 1128.5 c 0,203,204
 1476 1062 1476 1062 1508 974.5 c 0,205,206
 1540 887 1540 887 1549.5 780.5 c 0,207,208
 1559 674 1559 674 1541 549 c 0,40,41
EndSplineSet
EndChar

StartChar: A
Encoding: 36 65 36
Width: 1163
Flags: W
LayerCount: 2
Fore
SplineSet
732 540 m 0,0,-1
 640 1060 l 0,1,-1
 415 540 l 0,2,-1
 732 540 l 0,0,-1
371 439 m 0,3,-1
 233 121 l 0,4,5
 220 90 220 90 249.5 77 c 0,6,7
 279 64 279 64 355 53 c 0,8,-1
 348 0 l 0,9,-1
 -40 0 l 0,10,-1
 -33 53 l 0,11,12
 31 65 31 65 68 78.5 c 0,13,14
 105 92 105 92 118 121 c 0,15,-1
 599 1221 l 0,16,17
 616 1236 616 1236 637.5 1250 c 0,18,19
 659 1264 659 1264 681.5 1276.5 c 0,20,21
 704 1289 704 1289 725.5 1299.5 c 0,22,23
 747 1310 747 1310 764 1317 c 0,24,-1
 983 121 l 0,25,26
 986 107 986 107 991.5 96.5 c 0,27,28
 997 86 997 86 1009 77.5 c 0,29,30
 1021 69 1021 69 1040.5 63 c 0,31,32
 1060 57 1060 57 1092 53 c 0,33,-1
 1086 0 l 0,34,-1
 676 0 l 0,35,-1
 682 53 l 0,36,37
 753 58 753 58 783 73.5 c 0,38,39
 813 89 813 89 807 121 c 0,40,-1
 751 439 l 0,41,-1
 371 439 l 0,3,-1
EndSplineSet
EndChar

StartChar: B
Encoding: 37 66 37
Width: 1039
Flags: W
LayerCount: 2
Fore
SplineSet
556 1199 m 0,0,-1
 508 1199 l 0,1,2
 486 1199 486 1199 466 1198 c 0,3,-1
 402 730 l 0,4,-1
 434 730 l 0,5,6
 498 730 498 730 559 741.5 c 0,7,8
 620 753 620 753 667.5 782.5 c 0,9,10
 715 812 715 812 743.5 861.5 c 0,11,12
 772 911 772 911 772 987 c 0,13,14
 772 1047 772 1047 751 1087.5 c 0,15,16
 730 1128 730 1128 698.5 1152.5 c 0,17,18
 667 1177 667 1177 628.5 1188 c 0,19,20
 590 1199 590 1199 556 1199 c 0,0,-1
528 644 m 0,21,22
 484 644 484 644 451.5 639.5 c 0,23,24
 419 635 419 635 388 630 c 0,25,-1
 317 114 l 0,26,27
 315 107 315 107 329 94 c 0,28,29
 365 76 365 76 412.5 69.5 c 0,30,31
 460 63 460 63 502 63 c 0,32,33
 566 63 566 63 617 89 c 0,34,35
 668 115 668 115 704 158.5 c 0,36,37
 740 202 740 202 759 258 c 0,38,39
 778 314 778 314 778 375 c 0,40,41
 778 425 778 425 764.5 473 c 0,42,43
 751 521 751 521 721.5 559 c 0,44,45
 692 597 692 597 644.5 620.5 c 0,46,47
 597 644 597 644 528 644 c 0,21,22
964 410 m 0,48,49
 964 312 964 312 924.5 231 c 0,50,51
 885 150 885 150 818 92 c 0,52,53
 751 34 751 34 661 1.5 c 0,54,55
 571 -31 571 -31 471 -31 c 0,56,57
 451 -31 451 -31 422.5 -30 c 0,58,59
 394 -29 394 -29 361.5 -26.5 c 0,60,61
 329 -24 329 -24 294 -21.5 c 0,62,63
 259 -19 259 -19 226 -16 c 0,64,65
 148 -9 148 -9 61 0 c 0,66,-1
 -3 0 l 0,67,-1
 4 53 l 0,68,69
 67 67 67 67 103.5 83.5 c 0,70,71
 140 100 140 100 142 114 c 0,72,-1
 289 1185 l 0,73,74
 246 1180 246 1180 210 1173 c 0,75,76
 174 1166 174 1166 139 1158 c 0,77,-1
 139 1227 l 0,78,79
 231 1253 231 1253 340 1271.5 c 0,80,81
 449 1290 449 1290 588 1290 c 0,82,83
 765 1290 765 1290 861.5 1224 c 0,84,85
 958 1158 958 1158 958 1040 c 0,86,87
 958 988 958 988 941.5 939.5 c 0,88,89
 925 891 925 891 894.5 849.5 c 0,90,91
 864 808 864 808 821.5 775.5 c 0,92,93
 779 743 779 743 727 723 c 0,94,95
 779 712 779 712 823 684.5 c 0,96,97
 867 657 867 657 898 615.5 c 0,98,99
 929 574 929 574 946.5 522 c 0,100,101
 964 470 964 470 964 410 c 0,48,49
EndSplineSet
EndChar

StartChar: C
Encoding: 38 67 38
Width: 1010
Flags: W
LayerCount: 2
Fore
SplineSet
1036 1190 m 0,0,1
 1040 1185 1040 1185 1028 1164 c 0,2,3
 1016 1143 1016 1143 997 1117 c 0,4,5
 978 1091 978 1091 957.5 1066 c 0,6,7
 937 1041 937 1041 924 1030 c 0,8,-1
 884 1040 l 0,9,10
 866 1065 866 1065 843 1088 c 0,11,12
 820 1111 820 1111 791 1127.5 c 0,13,14
 762 1144 762 1144 727.5 1154 c 0,15,16
 693 1164 693 1164 652 1164 c 0,17,18
 612 1164 612 1164 566.5 1147.5 c 0,19,20
 521 1131 521 1131 481 1100 c 0,21,22
 418 1051 418 1051 374.5 977 c 0,23,24
 331 903 331 903 303.5 821.5 c 0,25,26
 276 740 276 740 264 659.5 c 0,27,28
 252 579 252 579 252 516 c 0,29,30
 252 407 252 407 281 329.5 c 0,31,32
 310 252 310 252 355 203 c 0,33,34
 400 154 400 154 454 131.5 c 0,35,36
 508 109 508 109 558 109 c 0,37,38
 585 109 585 109 618 116 c 0,39,40
 651 123 651 123 691.5 141 c 0,41,42
 732 159 732 159 780 189 c 0,43,44
 828 219 828 219 886 264 c 0,45,46
 891 262 891 262 895.5 254.5 c 0,47,48
 900 247 900 247 904 238.5 c 0,49,50
 908 230 908 230 911.5 222 c 0,51,52
 915 214 915 214 917 211 c 0,53,54
 849 143 849 143 788 97.5 c 0,55,56
 727 52 727 52 670.5 24 c 0,57,58
 614 -4 614 -4 563 -15.5 c 0,59,60
 512 -27 512 -27 465 -27 c 0,61,62
 386 -27 386 -27 314.5 5.5 c 0,63,64
 243 38 243 38 189 100 c 0,65,66
 135 162 135 162 103 252.5 c 0,67,68
 71 343 71 343 71 459 c 0,69,70
 71 553 71 553 90 650.5 c 0,71,72
 109 748 109 748 148.5 840.5 c 0,73,74
 188 933 188 933 249.5 1016.5 c 0,75,76
 311 1100 311 1100 395 1167 c 0,77,78
 468 1224 468 1224 557.5 1257 c 0,79,80
 647 1290 647 1290 741 1290 c 0,81,82
 840 1290 840 1290 916 1261 c 0,83,84
 992 1232 992 1232 1036 1190 c 0,0,1
EndSplineSet
EndChar

StartChar: D
Encoding: 39 68 39
Width: 1148
Flags: W
LayerCount: 2
Fore
SplineSet
1112 748 m 0,0,1
 1112 660 1112 660 1093.5 570.5 c 0,2,3
 1075 481 1075 481 1039.5 398 c 0,4,5
 1004 315 1004 315 951 242 c 0,6,7
 898 169 898 169 829 115.5 c 0,8,9
 760 62 760 62 675 31 c 0,10,11
 590 0 590 0 491 0 c 0,12,-1
 -3 0 l 0,13,-1
 5 53 l 0,14,15
 68 67 68 67 104.5 83.5 c 0,16,17
 141 100 141 100 143 114 c 0,18,-1
 290 1182 l 0,19,-1
 141 1164 l 0,20,-1
 141 1237 l 0,21,22
 256 1265 256 1265 374.5 1277.5 c 0,23,24
 493 1290 493 1290 596 1290 c 0,25,26
 722 1290 722 1290 818.5 1251.5 c 0,27,28
 915 1213 915 1213 980.5 1142.5 c 0,29,30
 1046 1072 1046 1072 1079 972 c 0,31,32
 1112 872 1112 872 1112 748 c 0,0,1
527 1199 m 0,33,34
 512 1199 512 1199 497 1198.5 c 0,35,36
 482 1198 482 1198 467 1197 c 0,37,-1
 324 147 l 0,38,39
 322 132 322 132 327.5 122 c 0,40,41
 333 112 333 112 349.5 105 c 0,42,43
 366 98 366 98 395.5 95 c 0,44,45
 425 92 425 92 470 92 c 0,46,47
 542 92 542 92 603.5 119.5 c 0,48,49
 665 147 665 147 715 194 c 0,50,51
 765 241 765 241 803.5 304 c 0,52,53
 842 367 842 367 867.5 437.5 c 0,54,55
 893 508 893 508 906.5 582.5 c 0,56,57
 920 657 920 657 920 727 c 0,58,59
 920 834 920 834 895.5 921 c 0,60,61
 871 1008 871 1008 822 1070 c 0,62,63
 773 1132 773 1132 699 1165.5 c 0,64,65
 625 1199 625 1199 527 1199 c 0,33,34
EndSplineSet
EndChar

StartChar: E
Encoding: 40 69 40
Width: 967
Flags: W
LayerCount: 2
Fore
SplineSet
886 264 m 0,0,1
 876 221 876 221 865.5 180 c 0,2,3
 855 139 855 139 845 103.5 c 0,4,5
 835 68 835 68 826.5 41.5 c 0,6,7
 818 15 818 15 812 0 c 0,8,-1
 -3 0 l 0,9,-1
 5 53 l 0,10,11
 68 67 68 67 105 83.5 c 0,12,13
 142 100 142 100 144 114 c 0,14,-1
 287 1145 l 0,15,16
 289 1157 289 1157 259 1175 c 0,17,18
 229 1193 229 1193 164 1207 c 0,19,-1
 171 1260 l 0,20,-1
 935 1260 l 0,21,-1
 962 1233 l 0,22,23
 957 1207 957 1207 949 1173.5 c 0,24,25
 941 1140 941 1140 931 1105.5 c 0,26,27
 921 1071 921 1071 910.5 1040 c 0,28,29
 900 1009 900 1009 892 990 c 0,30,-1
 840 990 l 0,31,32
 849 1082 849 1082 835.5 1120.5 c 0,33,34
 822 1159 822 1159 787 1159 c 0,35,-1
 460 1159 l 0,36,-1
 402 735 l 0,37,-1
 775 735 l 0,38,-1
 797 705 l 0,39,40
 787 691 787 691 774.5 674.5 c 0,41,42
 762 658 762 658 748.5 642 c 0,43,44
 735 626 735 626 721.5 612.5 c 0,45,46
 708 599 708 599 697 590 c 0,47,48
 682 606 682 606 665 617 c 0,49,50
 648 628 648 628 623 634 c 0,51,52
 598 640 598 640 562.5 642.5 c 0,53,54
 527 645 527 645 475 645 c 0,55,-1
 390 645 l 0,56,-1
 325 164 l 0,57,58
 323 149 323 149 328 137.5 c 0,59,60
 333 126 333 126 352 117.5 c 0,61,62
 371 109 371 109 407.5 104.5 c 0,63,64
 444 100 444 100 504 100 c 0,65,-1
 615 100 l 0,66,67
 657 100 657 100 687 107 c 0,68,69
 717 114 717 114 741.5 134 c 0,70,71
 766 154 766 154 788.5 190 c 0,72,73
 811 226 811 226 839 285 c 0,74,-1
 886 264 l 0,0,1
EndSplineSet
EndChar

StartChar: F
Encoding: 41 70 41
Width: 912
Flags: W
LayerCount: 2
Fore
SplineSet
970 1233 m 0,0,1
 965 1207 965 1207 957 1173.5 c 0,2,3
 949 1140 949 1140 939 1105.5 c 0,4,5
 929 1071 929 1071 919 1040 c 0,6,7
 909 1009 909 1009 901 990 c 0,8,-1
 850 990 l 0,9,10
 857 1082 857 1082 843.5 1120.5 c 0,11,12
 830 1159 830 1159 795 1159 c 0,13,-1
 460 1159 l 0,14,-1
 402 735 l 0,15,-1
 729 735 l 0,16,-1
 754 705 l 0,17,18
 743 690 743 690 730 673.5 c 0,19,20
 717 657 717 657 703.5 641 c 0,21,22
 690 625 690 625 677 612 c 0,23,24
 664 599 664 599 654 590 c 0,25,26
 638 606 638 606 620 617 c 0,27,28
 602 628 602 628 579.5 634 c 0,29,30
 557 640 557 640 529.5 642.5 c 0,31,32
 502 645 502 645 468 645 c 0,33,-1
 389 645 l 0,34,-1
 317 114 l 0,35,36
 315 102 315 102 348 87 c 0,37,38
 381 72 381 72 468 53 c 0,39,-1
 461 0 l 0,40,-1
 -3 0 l 0,41,-1
 5 53 l 0,42,43
 68 67 68 67 105 83.5 c 0,44,45
 142 100 142 100 144 114 c 0,46,-1
 287 1145 l 0,47,48
 289 1157 289 1157 259 1175 c 0,49,50
 229 1193 229 1193 164 1207 c 0,51,-1
 171 1260 l 0,52,-1
 944 1260 l 0,53,-1
 970 1233 l 0,0,1
EndSplineSet
EndChar

StartChar: G
Encoding: 42 71 42
Width: 1089
Flags: W
LayerCount: 2
Fore
SplineSet
1078 542 m 0,0,1
 1024 526 1024 526 999 504.5 c 0,2,3
 974 483 974 483 971 460 c 0,4,5
 967 433 967 433 961.5 390 c 0,6,7
 956 347 956 347 950 302 c 0,8,9
 944 257 944 257 939 217.5 c 0,10,11
 934 178 934 178 932 159 c 0,12,13
 856 98 856 98 796 61 c 0,14,15
 736 24 736 24 686 3.5 c 0,16,17
 636 -17 636 -17 593 -24 c 0,18,19
 550 -31 550 -31 510 -31 c 0,20,21
 424 -31 424 -31 344.5 3.5 c 0,22,23
 265 38 265 38 204.5 103 c 0,24,25
 144 168 144 168 107.5 263 c 0,26,27
 71 358 71 358 71 478 c 0,28,29
 71 573 71 573 93 668 c 0,30,31
 115 763 115 763 155 850 c 0,32,33
 195 937 195 937 250.5 1012 c 0,34,35
 306 1087 306 1087 374 1141 c 0,36,37
 459 1210 459 1210 563.5 1250 c 0,38,39
 668 1290 668 1290 796 1290 c 0,40,41
 827 1290 827 1290 865 1283 c 0,42,43
 903 1276 903 1276 941.5 1263 c 0,44,45
 980 1250 980 1250 1014.5 1231 c 0,46,47
 1049 1212 1049 1212 1075 1188 c 0,48,49
 1081 1183 1081 1183 1069 1161.5 c 0,50,51
 1057 1140 1057 1140 1037.5 1114.5 c 0,52,53
 1018 1089 1018 1089 996.5 1065 c 0,54,55
 975 1041 975 1041 961 1030 c 0,56,-1
 923 1038 l 0,57,58
 876 1105 876 1105 813.5 1137 c 0,59,60
 751 1169 751 1169 657 1169 c 0,61,62
 617 1169 617 1169 564.5 1143.5 c 0,63,64
 512 1118 512 1118 459 1073 c 0,65,66
 412 1034 412 1034 373.5 969 c 0,67,68
 335 904 335 904 307.5 827.5 c 0,69,70
 280 751 280 751 265 671 c 0,71,72
 250 591 250 591 250 521 c 0,73,74
 250 414 250 414 281 336 c 0,75,76
 312 258 312 258 360.5 207.5 c 0,77,78
 409 157 409 157 469 132.5 c 0,79,80
 529 108 529 108 588 108 c 0,81,82
 636 108 636 108 683.5 121.5 c 0,83,84
 731 135 731 135 766 161 c 0,85,-1
 806 460 l 0,86,87
 807 470 807 470 802.5 480 c 0,88,89
 798 490 798 490 776 500 c 0,90,91
 754 510 754 510 710.5 520 c 0,92,93
 667 530 667 530 592 542 c 0,94,-1
 598 595 l 0,95,-1
 1084 595 l 0,96,-1
 1078 542 l 0,0,1
EndSplineSet
EndChar

StartChar: H
Encoding: 43 72 43
Width: 1259
Flags: W
LayerCount: 2
Fore
SplineSet
599 1207 m 0,0,1
 536 1193 536 1193 499 1176 c 0,2,3
 462 1159 462 1159 459 1145 c 0,4,-1
 400 710 l 0,5,-1
 931 710 l 0,6,-1
 991 1145 l 0,7,8
 993 1157 993 1157 963 1175 c 0,9,10
 933 1193 933 1193 869 1207 c 0,11,-1
 875 1260 l 0,12,-1
 1312 1260 l 0,13,-1
 1305 1207 l 0,14,15
 1241 1193 1241 1193 1204 1176 c 0,16,17
 1167 1159 1167 1159 1165 1145 c 0,18,-1
 1023 114 l 0,19,20
 1021 102 1021 102 1051 84.5 c 0,21,22
 1081 67 1081 67 1146 53 c 0,23,-1
 1139 0 l 0,24,-1
 703 0 l 0,25,-1
 711 53 l 0,26,27
 775 67 775 67 811 83.5 c 0,28,29
 847 100 847 100 849 114 c 0,30,-1
 917 609 l 0,31,-1
 386 609 l 0,32,-1
 319 114 l 0,33,34
 316 102 316 102 346 84.5 c 0,35,36
 376 67 376 67 440 53 c 0,37,-1
 433 0 l 0,38,-1
 -3 0 l 0,39,-1
 5 53 l 0,40,41
 68 67 68 67 105 83.5 c 0,42,43
 142 100 142 100 144 114 c 0,44,-1
 287 1145 l 0,45,46
 289 1157 289 1157 259 1175 c 0,47,48
 229 1193 229 1193 164 1207 c 0,49,-1
 171 1260 l 0,50,-1
 607 1260 l 0,51,-1
 599 1207 l 0,0,1
EndSplineSet
EndChar

StartChar: I
Encoding: 44 73 44
Width: 593
Flags: W
LayerCount: 2
Fore
SplineSet
619 1207 m 0,0,1
 556 1193 556 1193 519 1176 c 0,2,3
 482 1159 482 1159 480 1145 c 0,4,-1
 337 114 l 0,5,6
 335 102 335 102 365 84.5 c 0,7,8
 395 67 395 67 460 53 c 0,9,-1
 453 0 l 0,10,-1
 18 0 l 0,11,-1
 26 53 l 0,12,13
 89 67 89 67 125.5 83.5 c 0,14,15
 162 100 162 100 165 114 c 0,16,-1
 305 1145 l 0,17,18
 307 1157 307 1157 277 1175 c 0,19,20
 247 1193 247 1193 184 1207 c 0,21,-1
 192 1260 l 0,22,-1
 626 1260 l 0,23,-1
 619 1207 l 0,0,1
EndSplineSet
EndChar

StartChar: J
Encoding: 45 74 45
Width: 598
Flags: W
LayerCount: 2
Fore
SplineSet
644 1207 m 0,0,1
 581 1193 581 1193 543.5 1176 c 0,2,3
 506 1159 506 1159 504 1145 c 0,4,-1
 375 205 l 0,5,6
 359 89 359 89 331.5 9 c 0,7,8
 304 -71 304 -71 269 -126.5 c 0,9,10
 234 -182 234 -182 194 -219.5 c 0,11,12
 154 -257 154 -257 113 -289 c 0,13,14
 86 -310 86 -310 53 -328 c 0,15,16
 20 -346 20 -346 -13.5 -359 c 0,17,18
 -47 -372 -47 -372 -77.5 -379 c 0,19,20
 -108 -386 -108 -386 -130 -386 c 0,21,22
 -161 -386 -161 -386 -189.5 -376.5 c 0,23,24
 -218 -367 -218 -367 -240 -353.5 c 0,25,26
 -262 -340 -262 -340 -275.5 -325.5 c 0,27,28
 -289 -311 -289 -311 -289 -301 c 0,29,30
 -289 -291 -289 -291 -272 -271 c 0,31,32
 -255 -251 -255 -251 -232.5 -231 c 0,33,34
 -210 -211 -210 -211 -186.5 -196 c 0,35,36
 -163 -181 -163 -181 -151 -181 c 0,37,38
 -141 -181 -141 -181 -129 -191.5 c 0,39,40
 -117 -202 -117 -202 -100.5 -214.5 c 0,41,42
 -84 -227 -84 -227 -61.5 -237.5 c 0,43,44
 -39 -248 -39 -248 -8 -248 c 0,45,46
 16 -248 16 -248 44 -232.5 c 0,47,48
 72 -217 72 -217 99.5 -175 c 0,49,50
 127 -133 127 -133 151.5 -58.5 c 0,51,52
 176 16 176 16 192 133 c 0,53,-1
 331 1145 l 0,54,55
 332 1151 332 1151 326 1158 c 0,56,57
 320 1165 320 1165 301.5 1173 c 0,58,59
 283 1181 283 1181 250 1189.5 c 0,60,61
 217 1198 217 1198 163 1207 c 0,62,-1
 169 1260 l 0,63,-1
 652 1260 l 0,64,-1
 644 1207 l 0,0,1
EndSplineSet
EndChar

StartChar: K
Encoding: 46 75 46
Width: 1136
Flags: W
LayerCount: 2
Fore
SplineSet
599 1207 m 0,0,1
 536 1193 536 1193 499 1176 c 0,2,3
 462 1159 462 1159 459 1145 c 0,4,-1
 392 652 l 0,5,-1
 834 1118 l 0,6,7
 859 1145 859 1145 868 1161 c 0,8,9
 877 1177 877 1177 870.5 1186 c 0,10,11
 864 1195 864 1195 843 1199.5 c 0,12,13
 822 1204 822 1204 787 1207 c 0,14,-1
 794 1260 l 0,15,-1
 1188 1260 l 0,16,-1
 1181 1207 l 0,17,18
 1150 1203 1150 1203 1127.5 1199 c 0,19,20
 1105 1195 1105 1195 1086.5 1188 c 0,21,22
 1068 1181 1068 1181 1052.5 1171 c 0,23,24
 1037 1161 1037 1161 1021 1145 c 0,25,-1
 543 672 l 0,26,-1
 894 172 l 0,27,28
 908 152 908 152 925.5 142 c 0,29,30
 943 132 943 132 966.5 131 c 0,31,32
 990 130 990 130 1021 138.5 c 0,33,34
 1052 147 1052 147 1093 164 c 0,35,-1
 1114 116 l 0,36,37
 1078 88 1078 88 1039 64 c 0,38,39
 1000 40 1000 40 963.5 23 c 0,40,41
 927 6 927 6 896 -4 c 0,42,43
 865 -14 865 -14 845 -14 c 0,44,45
 815 -14 815 -14 794.5 -2.5 c 0,46,47
 774 9 774 9 752 46 c 0,48,-1
 389 632 l 0,49,-1
 319 114 l 0,50,51
 316 102 316 102 346 84.5 c 0,52,53
 376 67 376 67 440 53 c 0,54,-1
 433 0 l 0,55,-1
 -3 0 l 0,56,-1
 5 53 l 0,57,58
 68 67 68 67 105 83.5 c 0,59,60
 142 100 142 100 144 114 c 0,61,-1
 287 1145 l 0,62,63
 289 1157 289 1157 259 1175 c 0,64,65
 229 1193 229 1193 164 1207 c 0,66,-1
 171 1260 l 0,67,-1
 607 1260 l 0,68,-1
 599 1207 l 0,0,1
EndSplineSet
EndChar

StartChar: L
Encoding: 47 76 47
Width: 943
Flags: W
LayerCount: 2
Fore
SplineSet
878 264 m 0,0,1
 868 221 868 221 857.5 180 c 0,2,3
 847 139 847 139 836.5 103.5 c 0,4,5
 826 68 826 68 817 41.5 c 0,6,7
 808 15 808 15 802 0 c 0,8,-1
 -3 0 l 0,9,-1
 5 53 l 0,10,11
 68 67 68 67 105 83.5 c 0,12,13
 142 100 142 100 144 114 c 0,14,-1
 287 1145 l 0,15,16
 289 1157 289 1157 259 1175 c 0,17,18
 229 1193 229 1193 164 1207 c 0,19,-1
 171 1260 l 0,20,-1
 607 1260 l 0,21,-1
 599 1207 l 0,22,23
 536 1193 536 1193 499 1176 c 0,24,25
 462 1159 462 1159 459 1145 c 0,26,-1
 325 167 l 0,27,28
 323 149 323 149 329 136.5 c 0,29,30
 335 124 335 124 353.5 115.5 c 0,31,32
 372 107 372 107 404.5 103.5 c 0,33,34
 437 100 437 100 487 100 c 0,35,-1
 607 100 l 0,36,37
 649 100 649 100 678.5 107 c 0,38,39
 708 114 708 114 732.5 134 c 0,40,41
 757 154 757 154 780 190 c 0,42,43
 803 226 803 226 831 285 c 0,44,-1
 878 264 l 0,0,1
EndSplineSet
EndChar

StartChar: M
Encoding: 48 77 48
Width: 1543
Flags: W
LayerCount: 2
Fore
SplineSet
1565 1207 m 0,0,1
 1539 1207 1539 1207 1505 1198 c 0,2,3
 1471 1189 1471 1189 1435 1174 c 0,4,-1
 1313 114 l 0,5,6
 1311 102 1311 102 1343.5 84.5 c 0,7,8
 1376 67 1376 67 1441 53 c 0,9,-1
 1434 0 l 0,10,-1
 1000 0 l 0,11,-1
 1007 53 l 0,12,13
 1071 67 1071 67 1111 83.5 c 0,14,15
 1151 100 1151 100 1153 114 c 0,16,-1
 1258 1023 l 0,17,-1
 724 0 l 0,18,-1
 668 0 l 0,19,-1
 396 1015 l 0,20,-1
 265 114 l 0,21,22
 263 102 263 102 292.5 84.5 c 0,23,24
 322 67 322 67 387 53 c 0,25,-1
 380 0 l 0,26,-1
 5 0 l 0,27,-1
 12 53 l 0,28,29
 77 67 77 67 112.5 83.5 c 0,30,31
 148 100 148 100 150 114 c 0,32,-1
 304 1170 l 0,33,34
 273 1190 273 1190 240 1198.5 c 0,35,36
 207 1207 207 1207 181 1207 c 0,37,-1
 188 1260 l 0,38,-1
 472 1260 l 0,39,40
 481 1260 481 1260 486.5 1257 c 0,41,42
 492 1254 492 1254 497.5 1245 c 0,43,44
 503 1236 503 1236 508 1219.5 c 0,45,46
 513 1203 513 1203 520 1176 c 0,47,-1
 762 302 l 0,48,-1
 1221 1176 l 0,49,50
 1235 1203 1235 1203 1245 1219.5 c 0,51,52
 1255 1236 1255 1236 1262.5 1245 c 0,53,54
 1270 1254 1270 1254 1277 1257 c 0,55,56
 1284 1260 1284 1260 1293 1260 c 0,57,-1
 1571 1260 l 0,58,-1
 1565 1207 l 0,0,1
EndSplineSet
EndChar

StartChar: N
Encoding: 49 78 49
Width: 1248
Flags: W
LayerCount: 2
Fore
SplineSet
1306 1207 m 0,0,1
 1239 1197 1239 1197 1206 1179.5 c 0,2,3
 1173 1162 1173 1162 1171 1145 c 0,4,-1
 1008 -31 l 0,5,6
 951 -24 951 -24 916.5 -5.5 c 0,7,8
 882 13 882 13 859 57 c 0,9,-1
 378 977 l 0,10,-1
 260 114 l 0,11,12
 258 102 258 102 284.5 83 c 0,13,14
 311 64 311 64 380 53 c 0,15,-1
 373 0 l 0,16,-1
 -1 0 l 0,17,-1
 7 53 l 0,18,19
 75 62 75 62 108 81 c 0,20,21
 141 100 141 100 143 114 c 0,22,-1
 285 1141 l 0,23,24
 259 1171 259 1171 228.5 1185.5 c 0,25,26
 198 1200 198 1200 158 1207 c 0,27,-1
 165 1260 l 0,28,-1
 369 1260 l 0,29,30
 389 1260 389 1260 400.5 1258.5 c 0,31,32
 412 1257 412 1257 421 1249.5 c 0,33,34
 430 1242 430 1242 439 1226 c 0,35,36
 448 1210 448 1210 462 1182 c 0,37,-1
 936 282 l 0,38,-1
 1054 1145 l 0,39,40
 1055 1151 1055 1151 1049.5 1159.5 c 0,41,42
 1044 1168 1044 1168 1030 1176.5 c 0,43,44
 1016 1185 1016 1185 992.5 1193 c 0,45,46
 969 1201 969 1201 933 1207 c 0,47,-1
 940 1260 l 0,48,-1
 1313 1260 l 0,49,-1
 1306 1207 l 0,0,1
EndSplineSet
EndChar

StartChar: O
Encoding: 50 79 50
Width: 1135
Flags: W
LayerCount: 2
Fore
SplineSet
1109 774 m 0,0,1
 1109 703 1109 703 1096.5 630 c 0,2,3
 1084 557 1084 557 1060 486 c 0,4,5
 1036 415 1036 415 1001 348.5 c 0,6,7
 966 282 966 282 921 225 c 0,8,9
 879 171 879 171 830 124.5 c 0,10,11
 781 78 781 78 725.5 43.5 c 0,12,13
 670 9 670 9 609 -11 c 0,14,15
 548 -31 548 -31 481 -31 c 0,16,17
 383 -31 383 -31 309 10 c 0,18,19
 235 51 235 51 185 121.5 c 0,20,21
 135 192 135 192 110 286 c 0,22,23
 85 380 85 380 85 485 c 0,24,25
 85 552 85 552 97 623 c 0,26,27
 109 694 109 694 131 763.5 c 0,28,29
 153 833 153 833 184.5 898 c 0,30,31
 216 963 216 963 256 1018 c 0,32,33
 298 1074 298 1074 347 1123.5 c 0,34,35
 396 1173 396 1173 453.5 1210 c 0,36,37
 511 1247 511 1247 576 1268.5 c 0,38,39
 641 1290 641 1290 715 1290 c 0,40,41
 816 1290 816 1290 890.5 1249 c 0,42,43
 965 1208 965 1208 1013.5 1137.5 c 0,44,45
 1062 1067 1062 1067 1085.5 973 c 0,46,47
 1109 879 1109 879 1109 774 c 0,0,1
930 756 m 0,48,49
 930 840 930 840 912.5 914.5 c 0,50,51
 895 989 895 989 861.5 1044 c 0,52,53
 828 1099 828 1099 778.5 1131 c 0,54,55
 729 1163 729 1163 665 1163 c 0,56,57
 594 1163 594 1163 537 1134 c 0,58,59
 480 1105 480 1105 435.5 1055.5 c 0,60,61
 391 1006 391 1006 359.5 942 c 0,62,63
 328 878 328 878 307.5 807.5 c 0,64,65
 287 737 287 737 277 666 c 0,66,67
 267 595 267 595 267 532 c 0,68,69
 267 439 267 439 285.5 360 c 0,70,71
 304 281 304 281 338.5 224 c 0,72,73
 373 167 373 167 422 135 c 0,74,75
 471 103 471 103 531 103 c 0,76,77
 604 103 604 103 661.5 133.5 c 0,78,79
 719 164 719 164 763.5 215.5 c 0,80,81
 808 267 808 267 839.5 334 c 0,82,83
 871 401 871 401 891 473.5 c 0,84,85
 911 546 911 546 920.5 619 c 0,86,87
 930 692 930 692 930 756 c 0,48,49
EndSplineSet
EndChar

StartChar: P
Encoding: 51 80 51
Width: 998
Flags: W
LayerCount: 2
Fore
SplineSet
1013 942 m 0,0,1
 1013 857 1013 857 978.5 782 c 0,2,3
 944 707 944 707 885 651 c 0,4,5
 826 595 826 595 747 562.5 c 0,6,7
 668 530 668 530 578 530 c 0,8,9
 540 530 540 530 501 539.5 c 0,10,11
 462 549 462 549 435 564 c 0,12,-1
 422 648 l 0,13,14
 456 634 456 634 487.5 624.5 c 0,15,16
 519 615 519 615 552 615 c 0,17,18
 616 615 616 615 668.5 636 c 0,19,20
 721 657 721 657 758 695 c 0,21,22
 795 733 795 733 815.5 786.5 c 0,23,24
 836 840 836 840 836 905 c 0,25,26
 836 989 836 989 809.5 1045 c 0,27,28
 783 1101 783 1101 739 1135.5 c 0,29,30
 695 1170 695 1170 636.5 1184.5 c 0,31,32
 578 1199 578 1199 514 1199 c 0,33,-1
 490 1199 l 0,34,35
 479 1199 479 1199 468 1198 c 0,36,-1
 319 114 l 0,37,38
 317 108 317 108 323 101 c 0,39,40
 329 94 329 94 346 86 c 0,41,42
 363 78 363 78 393 70 c 0,43,44
 423 62 423 62 470 53 c 0,45,-1
 463 0 l 0,46,-1
 -3 0 l 0,47,-1
 5 53 l 0,48,49
 68 67 68 67 104.5 83.5 c 0,50,51
 141 100 141 100 143 114 c 0,52,-1
 290 1184 l 0,53,54
 255 1179 255 1179 217.5 1172 c 0,55,56
 180 1165 180 1165 139 1155 c 0,57,-1
 139 1225 l 0,58,59
 228 1255 228 1255 335 1272.5 c 0,60,61
 442 1290 442 1290 572 1290 c 0,62,63
 675 1290 675 1290 756.5 1268 c 0,64,65
 838 1246 838 1246 895 1202 c 0,66,67
 952 1158 952 1158 982.5 1093 c 0,68,69
 1013 1028 1013 1028 1013 942 c 0,0,1
EndSplineSet
EndChar

StartChar: Q
Encoding: 52 81 52
Width: 1157
Flags: W
LayerCount: 2
Fore
SplineSet
1154 -120 m 0,0,1
 1125 -164 1125 -164 1096 -198.5 c 0,2,3
 1067 -233 1067 -233 1040.5 -257 c 0,4,5
 1014 -281 1014 -281 992 -294 c 0,6,7
 970 -307 970 -307 955 -307 c 0,8,9
 897 -307 897 -307 843.5 -276.5 c 0,10,11
 790 -246 790 -246 738 -202.5 c 0,12,13
 686 -159 686 -159 635 -111 c 0,14,15
 584 -63 584 -63 530 -28 c 0,16,17
 506 -31 506 -31 481 -31 c 0,18,19
 383 -31 383 -31 309 10 c 0,20,21
 235 51 235 51 185 121.5 c 0,22,23
 135 192 135 192 110 286 c 0,24,25
 85 380 85 380 85 485 c 0,26,27
 85 552 85 552 97 623 c 0,28,29
 109 694 109 694 131 763.5 c 0,30,31
 153 833 153 833 184.5 898 c 0,32,33
 216 963 216 963 256 1018 c 0,34,35
 298 1074 298 1074 347 1123.5 c 0,36,37
 396 1173 396 1173 453.5 1210 c 0,38,39
 511 1247 511 1247 576 1268.5 c 0,40,41
 641 1290 641 1290 715 1290 c 0,42,43
 816 1290 816 1290 890.5 1249 c 0,44,45
 965 1208 965 1208 1013.5 1137.5 c 0,46,47
 1062 1067 1062 1067 1085.5 973 c 0,48,49
 1109 879 1109 879 1109 774 c 0,50,51
 1109 703 1109 703 1096.5 630 c 0,52,53
 1084 557 1084 557 1060 486 c 0,54,55
 1036 415 1036 415 1001 348.5 c 0,56,57
 966 282 966 282 921 225 c 0,58,59
 869 159 869 159 808.5 105.5 c 0,60,61
 748 52 748 52 678 17 c 0,62,63
 720 -6 720 -6 759.5 -35 c 0,64,65
 799 -64 799 -64 836.5 -89.5 c 0,66,67
 874 -115 874 -115 911 -132.5 c 0,68,69
 948 -150 948 -150 984 -150 c 0,70,71
 996 -150 996 -150 1008 -146.5 c 0,72,73
 1020 -143 1020 -143 1036.5 -134.5 c 0,74,75
 1053 -126 1053 -126 1074.5 -111.5 c 0,76,77
 1096 -97 1096 -97 1127 -75 c 0,78,-1
 1154 -120 l 0,0,1
930 756 m 0,79,80
 930 840 930 840 912.5 914.5 c 0,81,82
 895 989 895 989 861.5 1044 c 0,83,84
 828 1099 828 1099 778.5 1131 c 0,85,86
 729 1163 729 1163 665 1163 c 0,87,88
 594 1163 594 1163 537 1134 c 0,89,90
 480 1105 480 1105 435.5 1055.5 c 0,91,92
 391 1006 391 1006 359.5 942 c 0,93,94
 328 878 328 878 307.5 807.5 c 0,95,96
 287 737 287 737 277 666 c 0,97,98
 267 595 267 595 267 532 c 0,99,100
 267 439 267 439 285.5 360 c 0,101,102
 304 281 304 281 338.5 224 c 0,103,104
 373 167 373 167 422 135 c 0,105,106
 471 103 471 103 531 103 c 0,107,108
 604 103 604 103 661.5 133.5 c 0,109,110
 719 164 719 164 763.5 215.5 c 0,111,112
 808 267 808 267 839.5 334 c 0,113,114
 871 401 871 401 891 473.5 c 0,115,116
 911 546 911 546 920.5 619 c 0,117,118
 930 692 930 692 930 756 c 0,79,80
EndSplineSet
EndChar

StartChar: R
Encoding: 53 82 53
Width: 1100
Flags: W
LayerCount: 2
Fore
SplineSet
1105 112 m 0,0,1
 1066 86 1066 86 1025.5 63 c 0,2,3
 985 40 985 40 949 23 c 0,4,5
 913 6 913 6 885 -4 c 0,6,7
 857 -14 857 -14 844 -14 c 0,8,9
 827 -14 827 -14 811 -9 c 0,10,11
 795 -4 795 -4 779 10 c 0,12,13
 763 24 763 24 746.5 50 c 0,14,15
 730 76 730 76 712 117 c 0,16,-1
 501 586 l 0,17,18
 472 588 472 588 442 591.5 c 0,19,20
 412 595 412 595 386 602 c 0,21,-1
 319 114 l 0,22,23
 316 102 316 102 347.5 84.5 c 0,24,25
 379 67 379 67 442 53 c 0,26,-1
 435 0 l 0,27,-1
 -3 0 l 0,28,-1
 5 53 l 0,29,30
 68 67 68 67 104.5 83.5 c 0,31,32
 141 100 141 100 143 114 c 0,33,-1
 289 1183 l 0,34,35
 250 1178 250 1178 212 1171.5 c 0,36,37
 174 1165 174 1165 138 1157 c 0,38,-1
 139 1227 l 0,39,40
 184 1240 184 1240 232.5 1251.5 c 0,41,42
 281 1263 281 1263 335 1271.5 c 0,43,44
 389 1280 389 1280 449 1285 c 0,45,46
 509 1290 509 1290 577 1290 c 0,47,48
 670 1290 670 1290 745.5 1269.5 c 0,49,50
 821 1249 821 1249 873.5 1208.5 c 0,51,52
 926 1168 926 1168 954.5 1108.5 c 0,53,54
 983 1049 983 1049 983 971 c 0,55,56
 983 929 983 929 964 873 c 0,57,58
 945 817 945 817 905 763 c 0,59,60
 865 709 865 709 802 664 c 0,61,62
 739 619 739 619 652 599 c 0,63,-1
 881 194 l 0,64,65
 898 164 898 164 914 148.5 c 0,66,67
 930 133 930 133 952 130 c 0,68,69
 974 127 974 127 1005 135 c 0,70,71
 1036 143 1036 143 1084 160 c 0,72,-1
 1105 112 l 0,0,1
530 1199 m 0,73,74
 514 1199 514 1199 498.5 1198.5 c 0,75,76
 483 1198 483 1198 467 1198 c 0,77,-1
 397 687 l 0,78,79
 451 672 451 672 505 672 c 0,80,81
 565 672 565 672 619.5 689 c 0,82,83
 674 706 674 706 716 740 c 0,84,85
 758 774 758 774 783 824.5 c 0,86,87
 808 875 808 875 808 942 c 0,88,89
 808 1016 808 1016 782 1065.5 c 0,90,91
 756 1115 756 1115 715.5 1144.5 c 0,92,93
 675 1174 675 1174 625.5 1186.5 c 0,94,95
 576 1199 576 1199 530 1199 c 0,73,74
EndSplineSet
EndChar

StartChar: S
Encoding: 54 83 54
Width: 924
Flags: W
LayerCount: 2
Fore
SplineSet
902 1198 m 0,0,1
 908 1193 908 1193 897 1170 c 0,2,3
 886 1147 886 1147 867.5 1120 c 0,4,5
 849 1093 849 1093 829 1069 c 0,6,7
 809 1045 809 1045 798 1039 c 0,8,-1
 759 1045 l 0,9,10
 728 1104 728 1104 676.5 1142.5 c 0,11,12
 625 1181 625 1181 565 1181 c 0,13,14
 512 1181 512 1181 471.5 1164.5 c 0,15,16
 431 1148 431 1148 403.5 1121 c 0,17,18
 376 1094 376 1094 362 1061 c 0,19,20
 348 1028 348 1028 348 995 c 0,21,22
 348 973 348 973 355 949 c 0,23,24
 362 925 362 925 384 899 c 0,25,26
 406 873 406 873 446.5 843.5 c 0,27,28
 487 814 487 814 554 780 c 0,29,30
 633 739 633 739 688.5 702 c 0,31,32
 744 665 744 665 779 625 c 0,33,34
 814 585 814 585 830 539.5 c 0,35,36
 846 494 846 494 846 438 c 0,37,38
 846 344 846 344 806.5 259 c 0,39,40
 767 174 767 174 699 109.5 c 0,41,42
 631 45 631 45 540 7 c 0,43,44
 449 -31 449 -31 346 -31 c 0,45,46
 304 -31 304 -31 250.5 -18 c 0,47,48
 197 -5 197 -5 150.5 16 c 0,49,50
 104 37 104 37 72 64 c 0,51,52
 40 91 40 91 40 118 c 0,53,54
 40 131 40 131 53.5 157 c 0,55,56
 67 183 67 183 85.5 209 c 0,57,58
 104 235 104 235 124.5 254.5 c 0,59,60
 145 274 145 274 159 274 c 0,61,62
 168 274 168 274 179 261 c 0,63,64
 190 248 190 248 205 229 c 0,65,66
 220 210 220 210 239.5 187.5 c 0,67,68
 259 165 259 165 284.5 146 c 0,69,70
 310 127 310 127 342 114 c 0,71,72
 374 101 374 101 415 101 c 0,73,74
 472 101 472 101 521 120 c 0,75,76
 570 139 570 139 606.5 172.5 c 0,77,78
 643 206 643 206 664 252 c 0,79,80
 685 298 685 298 685 353 c 0,81,82
 685 395 685 395 672 430.5 c 0,83,84
 659 466 659 466 628.5 500 c 0,85,86
 598 534 598 534 547 567 c 0,87,88
 496 600 496 600 420 636 c 0,89,90
 354 667 354 667 311 702 c 0,91,92
 268 737 268 737 243.5 774.5 c 0,93,94
 219 812 219 812 209 850.5 c 0,95,96
 199 889 199 889 199 928 c 0,97,98
 199 994 199 994 230.5 1059 c 0,99,100
 262 1124 262 1124 320 1175 c 0,101,102
 378 1226 378 1226 459.5 1258 c 0,103,104
 541 1290 541 1290 642 1290 c 0,105,106
 722 1290 722 1290 788 1262.5 c 0,107,108
 854 1235 854 1235 902 1198 c 0,0,1
EndSplineSet
EndChar

StartChar: T
Encoding: 55 84 55
Width: 1081
Flags: W
LayerCount: 2
Fore
SplineSet
709 0 m 0,0,-1
 238 0 l 0,1,-1
 245 53 l 0,2,3
 288 62 288 62 317.5 72 c 0,4,5
 347 82 347 82 365.5 91.5 c 0,6,7
 384 101 384 101 392.5 109.5 c 0,8,9
 401 118 401 118 402 125 c 0,10,-1
 546 1159 l 0,11,-1
 287 1159 l 0,12,13
 273 1159 273 1159 261 1152 c 0,14,15
 249 1145 249 1145 234 1125 c 0,16,17
 219 1105 219 1105 200 1068.5 c 0,18,19
 181 1032 181 1032 153 974 c 0,20,-1
 107 995 l 0,21,22
 111 1022 111 1022 118.5 1057.5 c 0,23,24
 126 1093 126 1093 135.5 1129.5 c 0,25,26
 145 1166 145 1166 155 1200.5 c 0,27,28
 165 1235 165 1235 174 1260 c 0,29,-1
 1119 1260 l 0,30,-1
 1143 1233 l 0,31,32
 1139 1209 1139 1209 1132 1176 c 0,33,34
 1125 1143 1125 1143 1116.5 1108 c 0,35,36
 1108 1073 1108 1073 1099 1039.5 c 0,37,38
 1090 1006 1090 1006 1081 979 c 0,39,-1
 1030 979 l 0,40,41
 1028 1028 1028 1028 1025 1062.5 c 0,42,43
 1022 1097 1022 1097 1015.5 1118.5 c 0,44,45
 1009 1140 1009 1140 997 1149.5 c 0,46,47
 985 1159 985 1159 965 1159 c 0,48,-1
 718 1159 l 0,49,-1
 577 125 l 0,50,51
 576 119 576 119 582.5 110.5 c 0,52,53
 589 102 589 102 605 92 c 0,54,55
 621 82 621 82 648 72 c 0,56,57
 675 62 675 62 716 53 c 0,58,-1
 709 0 l 0,0,-1
EndSplineSet
EndChar

StartChar: U
Encoding: 56 85 56
Width: 1241
Flags: W
LayerCount: 2
Fore
SplineSet
1295 1207 m 0,0,1
 1232 1193 1232 1193 1198.5 1176 c 0,2,3
 1165 1159 1165 1159 1163 1145 c 0,4,-1
 1074 512 l 0,5,6
 1056 381 1056 381 1011.5 279.5 c 0,7,8
 967 178 967 178 901 109 c 0,9,10
 835 40 835 40 750 4.5 c 0,11,12
 665 -31 665 -31 566 -31 c 0,13,14
 484 -31 484 -31 413.5 -6 c 0,15,16
 343 19 343 19 291.5 67 c 0,17,18
 240 115 240 115 211 185.5 c 0,19,20
 182 256 182 256 182 348 c 0,21,22
 182 401 182 401 191 463 c 0,23,-1
 288 1145 l 0,24,25
 290 1157 290 1157 260.5 1175 c 0,26,27
 231 1193 231 1193 166 1207 c 0,28,-1
 173 1260 l 0,29,-1
 607 1260 l 0,30,-1
 599 1207 l 0,31,32
 536 1193 536 1193 499 1176 c 0,33,34
 462 1159 462 1159 460 1145 c 0,35,-1
 372 510 l 0,36,37
 368 481 368 481 366.5 452 c 0,38,39
 365 423 365 423 365 397 c 0,40,41
 365 327 365 327 381.5 271.5 c 0,42,43
 398 216 398 216 430.5 177 c 0,44,45
 463 138 463 138 511.5 117 c 0,46,47
 560 96 560 96 624 96 c 0,48,49
 689 96 689 96 742 126.5 c 0,50,51
 795 157 795 157 835 208 c 0,52,53
 875 259 875 259 900.5 326.5 c 0,54,55
 926 394 926 394 936 469 c 0,56,-1
 1028 1145 l 0,57,58
 1030 1157 1030 1157 1003 1175 c 0,59,60
 976 1193 976 1193 911 1207 c 0,61,-1
 918 1260 l 0,62,-1
 1302 1260 l 0,63,-1
 1295 1207 l 0,0,1
EndSplineSet
EndChar

StartChar: V
Encoding: 57 86 57
Width: 1225
Flags: W
LayerCount: 2
Fore
SplineSet
1313 1207 m 0,0,1
 1249 1194 1249 1194 1211.5 1181.5 c 0,2,3
 1174 1169 1174 1169 1161 1141 c 0,4,-1
 664 67 l 0,5,6
 654 45 654 45 633 28.5 c 0,7,8
 612 12 612 12 587 0 c 0,9,10
 562 -12 562 -12 538 -19.5 c 0,11,12
 514 -27 514 -27 498 -31 c 0,13,-1
 250 1141 l 0,14,15
 245 1167 245 1167 219 1183 c 0,16,17
 193 1199 193 1199 134 1207 c 0,18,-1
 141 1260 l 0,19,-1
 564 1260 l 0,20,-1
 557 1207 l 0,21,22
 485 1202 485 1202 456 1187 c 0,23,24
 427 1172 427 1172 434 1142 c 0,25,-1
 622 225 l 0,26,-1
 1045 1141 l 0,27,28
 1059 1170 1059 1170 1030 1183.5 c 0,29,30
 1001 1197 1001 1197 928 1207 c 0,31,-1
 935 1260 l 0,32,-1
 1321 1260 l 0,33,-1
 1313 1207 l 0,0,1
EndSplineSet
EndChar

StartChar: W
Encoding: 58 87 58
Width: 1579
Flags: W
LayerCount: 2
Fore
SplineSet
1676 1207 m 0,0,1
 1610 1192 1610 1192 1571.5 1180 c 0,2,3
 1533 1168 1533 1168 1525 1145 c 0,4,-1
 1166 59 l 0,5,6
 1158 37 1158 37 1140 21.5 c 0,7,8
 1122 6 1122 6 1101 -4.5 c 0,9,10
 1080 -15 1080 -15 1059 -21.5 c 0,11,12
 1038 -28 1038 -28 1025 -31 c 0,13,-1
 851 923 l 0,14,-1
 469 59 l 0,15,16
 459 36 459 36 439.5 20.5 c 0,17,18
 420 5 420 5 397.5 -5.5 c 0,19,20
 375 -16 375 -16 353.5 -22 c 0,21,22
 332 -28 332 -28 318 -31 c 0,23,-1
 241 1137 l 0,24,25
 239 1162 239 1162 214 1178 c 0,26,27
 189 1194 189 1194 124 1207 c 0,28,-1
 131 1260 l 0,29,-1
 543 1260 l 0,30,-1
 536 1207 l 0,31,32
 491 1202 491 1202 464.5 1194.5 c 0,33,34
 438 1187 438 1187 424 1178 c 0,35,36
 410 1169 410 1169 406 1158.5 c 0,37,38
 402 1148 402 1148 403 1137 c 0,39,-1
 461 298 l 0,40,-1
 883 1260 l 0,41,-1
 951 1260 l 0,42,-1
 1134 298 l 0,43,-1
 1412 1145 l 0,44,45
 1416 1157 1416 1157 1407.5 1166 c 0,46,47
 1399 1175 1399 1175 1381 1182 c 0,48,49
 1363 1189 1363 1189 1337.5 1195 c 0,50,51
 1312 1201 1312 1201 1281 1207 c 0,52,-1
 1288 1260 l 0,53,-1
 1682 1260 l 0,54,-1
 1676 1207 l 0,0,1
EndSplineSet
EndChar

StartChar: X
Encoding: 59 88 59
Width: 1185
Flags: W
LayerCount: 2
Fore
SplineSet
1096 0 m 0,0,-1
 658 0 l 0,1,-1
 665 53 l 0,2,3
 706 57 706 57 731.5 63.5 c 0,4,5
 757 70 757 70 770 79.5 c 0,6,7
 783 89 783 89 783 103 c 0,8,9
 783 117 783 117 773 137 c 0,10,-1
 577 533 l 0,11,-1
 295 137 l 0,12,13
 263 93 263 93 287.5 76 c 0,14,15
 312 59 312 59 395 53 c 0,16,-1
 388 0 l 0,17,-1
 -25 0 l 0,18,-1
 -18 53 l 0,19,20
 43 58 43 58 87.5 77 c 0,21,22
 132 96 132 96 161 137 c 0,23,-1
 521 647 l 0,24,-1
 286 1123 l 0,25,26
 274 1145 274 1145 263 1159 c 0,27,28
 252 1173 252 1173 237 1182 c 0,29,30
 222 1191 222 1191 201.5 1196.5 c 0,31,32
 181 1202 181 1202 151 1207 c 0,33,-1
 158 1260 l 0,34,-1
 599 1260 l 0,35,-1
 592 1207 l 0,36,37
 513 1199 513 1199 486.5 1183 c 0,38,39
 460 1167 460 1167 482 1123 c 0,40,-1
 652 779 l 0,41,-1
 895 1123 l 0,42,43
 911 1146 911 1146 912.5 1160.5 c 0,44,45
 914 1175 914 1175 901 1184.5 c 0,46,47
 888 1194 888 1194 861 1199 c 0,48,49
 834 1204 834 1204 794 1207 c 0,50,-1
 802 1260 l 0,51,-1
 1216 1260 l 0,52,-1
 1208 1207 l 0,53,54
 1175 1203 1175 1203 1148.5 1197.5 c 0,55,56
 1122 1192 1122 1192 1100.5 1182.5 c 0,57,58
 1079 1173 1079 1173 1061.5 1158.5 c 0,59,60
 1044 1144 1044 1144 1029 1123 c 0,61,-1
 706 670 l 0,62,-1
 971 137 l 0,63,64
 981 116 981 116 993.5 101.5 c 0,65,66
 1006 87 1006 87 1021.5 77.5 c 0,67,68
 1037 68 1037 68 1057.5 62.5 c 0,69,70
 1078 57 1078 57 1104 53 c 0,71,-1
 1096 0 l 0,0,-1
EndSplineSet
EndChar

StartChar: Y
Encoding: 60 89 60
Width: 1153
Flags: W
LayerCount: 2
Fore
SplineSet
756 0 m 0,0,-1
 284 0 l 0,1,-1
 292 53 l 0,2,3
 335 62 335 62 365 72 c 0,4,5
 395 82 395 82 413.5 91.5 c 0,6,7
 432 101 432 101 440.5 109.5 c 0,8,9
 449 118 449 118 450 125 c 0,10,-1
 507 544 l 0,11,12
 488 618 488 618 459 702.5 c 0,13,14
 430 787 430 787 396 868.5 c 0,15,16
 362 950 362 950 326.5 1022 c 0,17,18
 291 1094 291 1094 260 1144 c 0,19,20
 251 1158 251 1158 240.5 1167 c 0,21,22
 230 1176 230 1176 214 1180.5 c 0,23,24
 198 1185 198 1185 174 1185.5 c 0,25,26
 150 1186 150 1186 114 1183 c 0,27,-1
 109 1236 l 0,28,29
 136 1242 136 1242 170 1249 c 0,30,31
 204 1256 204 1256 237.5 1261.5 c 0,32,33
 271 1267 271 1267 300.5 1271 c 0,34,35
 330 1275 330 1275 349 1275 c 0,36,37
 365 1275 365 1275 381.5 1264 c 0,38,39
 398 1253 398 1253 411 1233 c 0,40,41
 432 1200 432 1200 455 1156 c 0,42,43
 478 1112 478 1112 500.5 1063 c 0,44,45
 523 1014 523 1014 544.5 961.5 c 0,46,47
 566 909 566 909 585 858.5 c 0,48,49
 604 808 604 808 619 761.5 c 0,50,51
 634 715 634 715 644 678 c 0,52,-1
 943 1141 l 0,53,54
 960 1169 960 1169 938 1183 c 0,55,56
 916 1197 916 1197 847 1207 c 0,57,-1
 854 1260 l 0,58,-1
 1223 1260 l 0,59,-1
 1216 1207 l 0,60,61
 1152 1194 1152 1194 1118 1180.5 c 0,62,63
 1084 1167 1084 1167 1067 1141 c 0,64,-1
 680 535 l 0,65,-1
 624 125 l 0,66,67
 623 119 623 119 629.5 110.5 c 0,68,69
 636 102 636 102 651.5 92 c 0,70,71
 667 82 667 82 694.5 72 c 0,72,73
 722 62 722 62 763 53 c 0,74,-1
 756 0 l 0,0,-1
EndSplineSet
EndChar

StartChar: Z
Encoding: 61 90 61
Width: 1036
Flags: W
LayerCount: 2
Fore
SplineSet
268 110 m 0,0,-1
 732 110 l 0,1,2
 752 110 752 110 770 121.5 c 0,3,4
 788 133 788 133 806.5 159.5 c 0,5,6
 825 186 825 186 846 229.5 c 0,7,8
 867 273 867 273 893 337 c 0,9,-1
 951 321 l 0,10,11
 945 288 945 288 937.5 244.5 c 0,12,13
 930 201 930 201 922.5 156.5 c 0,14,15
 915 112 915 112 908 70.5 c 0,16,17
 901 29 901 29 896 0 c 0,18,-1
 47 0 l 0,19,-1
 26 48 l 0,20,-1
 809 1155 l 0,21,-1
 406 1155 l 0,22,23
 391 1155 391 1155 371 1142 c 0,24,25
 351 1129 351 1129 329.5 1102.5 c 0,26,27
 308 1076 308 1076 286.5 1036 c 0,28,29
 265 996 265 996 247 941 c 0,30,-1
 186 955 l 0,31,-1
 262 1284 l 0,32,33
 286 1275 286 1275 306.5 1270 c 0,34,35
 327 1265 327 1265 346.5 1263 c 0,36,37
 366 1261 366 1261 387.5 1260.5 c 0,38,39
 409 1260 409 1260 435 1260 c 0,40,-1
 1023 1260 l 0,41,-1
 1043 1212 l 0,42,-1
 268 110 l 0,0,-1
EndSplineSet
EndChar

StartChar: bracketleft
Encoding: 62 91 62
Width: 632
Flags: W
LayerCount: 2
Fore
SplineSet
732 1571 m 0,0,1
 729 1559 729 1559 723.5 1545 c 0,2,3
 718 1531 718 1531 712 1518 c 0,4,5
 706 1505 706 1505 700 1494 c 0,6,7
 694 1483 694 1483 690 1477 c 0,8,-1
 428 1477 l 0,9,-1
 193 -211 l 0,10,-1
 449 -211 l 0,11,-1
 480 -243 l 0,12,13
 477 -253 477 -253 472 -265.5 c 0,14,15
 467 -278 467 -278 461.5 -290.5 c 0,16,17
 456 -303 456 -303 450 -315 c 0,18,19
 444 -327 444 -327 439 -336 c 0,20,-1
 18 -336 l 0,21,-1
 290 1599 l 0,22,-1
 703 1599 l 0,23,-1
 732 1571 l 0,0,1
EndSplineSet
EndChar

StartChar: backslash
Encoding: 63 92 63
Width: 832
Flags: W
LayerCount: 2
Fore
SplineSet
660 -336 m 0,0,1
 649 -332 649 -332 630.5 -325.5 c 0,2,3
 612 -319 612 -319 592.5 -311 c 0,4,5
 573 -303 573 -303 556 -295 c 0,6,7
 539 -287 539 -287 532 -280 c 0,8,-1
 143 1575 l 0,9,-1
 182 1599 l 0,10,11
 196 1595 196 1595 213 1589.5 c 0,12,13
 230 1584 230 1584 248 1577 c 0,14,15
 266 1570 266 1570 282.5 1562 c 0,16,17
 299 1554 299 1554 311 1545 c 0,18,-1
 697 -309 l 0,19,-1
 660 -336 l 0,0,1
EndSplineSet
EndChar

StartChar: bracketright
Encoding: 64 93 64
Width: 616
Flags: W
LayerCount: 2
Fore
SplineSet
358 -336 m 0,0,-1
 -55 -336 l 0,1,-1
 -86 -305 l 0,2,3
 -82 -293 -82 -293 -76.5 -279.5 c 0,4,5
 -71 -266 -71 -266 -65.5 -253 c 0,6,7
 -60 -240 -60 -240 -54.5 -228.5 c 0,8,9
 -49 -217 -49 -217 -45 -211 c 0,10,-1
 217 -211 l 0,11,-1
 455 1477 l 0,12,-1
 201 1477 l 0,13,-1
 169 1506 l 0,14,15
 175 1528 175 1528 188 1555 c 0,16,17
 201 1582 201 1582 210 1599 c 0,18,-1
 628 1599 l 0,19,-1
 358 -336 l 0,0,-1
EndSplineSet
EndChar

StartChar: asciicircum
Encoding: 65 94 65
Width: 938
Flags: W
LayerCount: 2
Fore
SplineSet
854 635 m 0,0,1
 826 612 826 612 801.5 596.5 c 0,2,3
 777 581 777 581 743 565 c 0,4,-1
 713 592 l 0,5,-1
 553 1315 l 0,6,-1
 223 635 l 0,7,8
 212 625 212 625 197 614.5 c 0,9,10
 182 604 182 604 166.5 594.5 c 0,11,12
 151 585 151 585 137 577.5 c 0,13,14
 123 570 123 570 113 565 c 0,15,-1
 94 592 l 0,16,-1
 516 1462 l 0,17,18
 529 1474 529 1474 547 1486.5 c 0,19,20
 565 1499 565 1499 584 1511 c 0,21,22
 603 1523 603 1523 621 1533 c 0,23,24
 639 1543 639 1543 653 1550 c 0,25,-1
 854 635 l 0,0,1
EndSplineSet
EndChar

StartChar: underscore
Encoding: 66 95 66
Width: 902
Flags: W
LayerCount: 2
Fore
SplineSet
751 -159 m 0,0,1
 748 -170 748 -170 742.5 -182.5 c 0,2,3
 737 -195 737 -195 731 -208.5 c 0,4,5
 725 -222 725 -222 718.5 -234.5 c 0,6,7
 712 -247 712 -247 707 -256 c 0,8,-1
 -27 -256 l 0,9,-1
 -46 -227 l 0,10,11
 -40 -207 -40 -207 -26.5 -179 c 0,12,13
 -13 -151 -13 -151 1 -131 c 0,14,-1
 731 -131 l 0,15,-1
 751 -159 l 0,0,1
EndSplineSet
EndChar

StartChar: grave
Encoding: 67 96 67
Width: 606
Flags: W
LayerCount: 2
Fore
SplineSet
569 1050 m 0,0,1
 549 1038 549 1038 533.5 1032 c 0,2,3
 518 1026 518 1026 500 1024 c 0,4,-1
 237 1402 l 0,5,-1
 272 1443 l 0,6,7
 284 1445 284 1445 306 1448.5 c 0,8,9
 328 1452 328 1452 352.5 1455 c 0,10,11
 377 1458 377 1458 399.5 1460 c 0,12,13
 422 1462 422 1462 435 1462 c 0,14,-1
 569 1050 l 0,0,1
EndSplineSet
EndChar

StartChar: a
Encoding: 68 97 68
Width: 943
Flags: W
LayerCount: 2
Fore
SplineSet
927 81 m 0,0,1
 841 22 841 22 780.5 -9.5 c 0,2,3
 720 -41 720 -41 688 -41 c 0,4,5
 670 -41 670 -41 652 -29 c 0,6,7
 634 -17 634 -17 618.5 15 c 0,8,9
 603 47 603 47 592.5 103 c 0,10,11
 582 159 582 159 581 246 c 0,12,13
 554 200 554 200 516.5 149.5 c 0,14,15
 479 99 479 99 437 56.5 c 0,16,17
 395 14 395 14 351 -13.5 c 0,18,19
 307 -41 307 -41 266 -41 c 0,20,21
 232 -41 232 -41 194 -22 c 0,22,23
 156 -3 156 -3 123.5 38.5 c 0,24,25
 91 80 91 80 69.5 145.5 c 0,26,27
 48 211 48 211 48 305 c 0,28,29
 48 384 48 384 67 459.5 c 0,30,31
 86 535 86 535 123.5 604 c 0,32,33
 161 673 161 673 215 733.5 c 0,34,35
 269 794 269 794 340 842 c 0,36,37
 367 860 367 860 399.5 877 c 0,38,39
 432 894 432 894 467.5 907 c 0,40,41
 503 920 503 920 539 928 c 0,42,43
 575 936 575 936 610 936 c 0,44,45
 631 936 631 936 651 930.5 c 0,46,47
 671 925 671 925 690 916 c 0,48,49
 709 907 709 907 727 896.5 c 0,50,51
 745 886 745 886 761 876 c 0,52,53
 787 893 787 893 816 907.5 c 0,54,55
 845 922 845 922 872 936 c 0,56,-1
 896 891 l 0,57,58
 879 877 879 877 868 866 c 0,59,60
 857 855 857 855 848.5 840.5 c 0,61,62
 840 826 840 826 834 805 c 0,63,64
 828 784 828 784 821 750 c 0,65,66
 806 678 806 678 793 605 c 0,67,68
 780 532 780 532 770.5 469 c 0,69,70
 761 406 761 406 756 357.5 c 0,71,72
 751 309 751 309 751 287 c 0,73,74
 751 187 751 187 765 143 c 0,75,76
 779 99 779 99 802 99 c 0,77,78
 822 99 822 99 848 104.5 c 0,79,80
 874 110 874 110 914 127 c 0,81,-1
 927 81 l 0,0,1
597 414 m 0,82,83
 603 457 603 457 611 505 c 0,84,85
 619 553 619 553 627 598.5 c 0,86,87
 635 644 635 644 642 682.5 c 0,88,89
 649 721 649 721 654 747 c 0,90,91
 639 760 639 760 621.5 772.5 c 0,92,93
 604 785 604 785 585 795.5 c 0,94,95
 566 806 566 806 546 812.5 c 0,96,97
 526 819 526 819 505 819 c 0,98,99
 460 819 460 819 421.5 797 c 0,100,101
 383 775 383 775 350.5 739.5 c 0,102,103
 318 704 318 704 293 658 c 0,104,105
 268 612 268 612 250.5 563 c 0,106,107
 233 514 233 514 224 466 c 0,108,109
 215 418 215 418 215 379 c 0,110,111
 215 317 215 317 225 268.5 c 0,112,113
 235 220 235 220 252 186 c 0,114,115
 269 152 269 152 292.5 134 c 0,116,117
 316 116 316 116 342 116 c 0,118,119
 363 116 363 116 394 141 c 0,120,121
 425 166 425 166 459.5 208 c 0,122,123
 494 250 494 250 529.5 303.5 c 0,124,125
 565 357 565 357 597 414 c 0,82,83
EndSplineSet
EndChar

StartChar: b
Encoding: 69 98 69
Width: 977
Flags: W
LayerCount: 2
Fore
SplineSet
911 610 m 0,0,1
 909 504 909 504 875.5 396 c 0,2,3
 842 288 842 288 768 188 c 0,4,5
 734 143 734 143 692 101.5 c 0,6,7
 650 60 650 60 600 28.5 c 0,8,9
 550 -3 550 -3 493 -22 c 0,10,11
 436 -41 436 -41 373 -41 c 0,12,13
 352 -41 352 -41 325 -30.5 c 0,14,15
 298 -20 298 -20 270 -1 c 0,16,17
 242 18 242 18 215 43.5 c 0,18,19
 188 69 188 69 167 98.5 c 0,20,21
 146 128 146 128 133 160.5 c 0,22,23
 120 193 120 193 120 225 c 0,24,25
 120 251 120 251 126.5 306 c 0,26,27
 133 361 133 361 143 433.5 c 0,28,29
 153 506 153 506 166 592 c 0,30,31
 179 678 179 678 193 767 c 0,32,33
 207 856 207 856 220 943 c 0,34,35
 233 1030 233 1030 243 1105 c 0,36,37
 253 1180 253 1180 259.5 1237.5 c 0,38,39
 266 1295 266 1295 266 1326 c 0,40,41
 266 1349 266 1349 261 1362.5 c 0,42,43
 256 1376 256 1376 248 1382.5 c 0,44,45
 240 1389 240 1389 231 1391 c 0,46,47
 222 1393 222 1393 213 1393 c 0,48,49
 204 1393 204 1393 187.5 1388.5 c 0,50,51
 171 1384 171 1384 155 1379 c 0,52,53
 136 1373 136 1373 115 1366 c 0,54,-1
 101 1415 l 0,55,56
 144 1435 144 1435 192 1454 c 0,57,58
 240 1473 240 1473 283 1487.5 c 0,59,60
 326 1502 326 1502 359.5 1511 c 0,61,62
 393 1520 393 1520 407 1520 c 0,63,64
 436 1520 436 1520 447 1502 c 0,65,66
 458 1484 458 1484 458 1438 c 0,67,68
 458 1408 458 1408 453 1359.5 c 0,69,70
 448 1311 448 1311 440 1249 c 0,71,72
 432 1187 432 1187 421.5 1115 c 0,73,74
 411 1043 411 1043 399 966.5 c 0,75,76
 387 890 387 890 374.5 812 c 0,77,78
 362 734 362 734 351 660 c 0,79,80
 402 739 402 739 454 792 c 0,81,82
 506 845 506 845 553.5 877 c 0,83,84
 601 909 601 909 642 922.5 c 0,85,86
 683 936 683 936 713 936 c 0,87,88
 755 936 755 936 791.5 915 c 0,89,90
 828 894 828 894 855 852.5 c 0,91,92
 882 811 882 811 897 750 c 0,93,94
 912 689 912 689 911 610 c 0,0,1
610 788 m 0,95,96
 593 788 593 788 561 767 c 0,97,98
 529 746 529 746 489.5 706.5 c 0,99,100
 450 667 450 667 407.5 611 c 0,101,102
 365 555 365 555 326 485 c 0,103,104
 316 413 316 413 310 357.5 c 0,105,106
 304 302 304 302 304 271 c 0,107,108
 304 245 304 245 319.5 216 c 0,109,110
 335 187 335 187 359.5 162.5 c 0,111,112
 384 138 384 138 414.5 122 c 0,113,114
 445 106 445 106 475 106 c 0,115,116
 507 106 507 106 535 116.5 c 0,117,118
 563 127 563 127 586.5 145 c 0,119,120
 610 163 610 163 629.5 185.5 c 0,121,122
 649 208 649 208 664 232 c 0,123,124
 686 266 686 266 700 304 c 0,125,126
 714 342 714 342 722.5 381 c 0,127,128
 731 420 731 420 734 458 c 0,129,130
 737 496 737 496 737 530 c 0,131,132
 737 593 737 593 726 641.5 c 0,133,134
 715 690 715 690 697.5 722.5 c 0,135,136
 680 755 680 755 657 771.5 c 0,137,138
 634 788 634 788 610 788 c 0,95,96
EndSplineSet
EndChar

StartChar: c
Encoding: 70 99 70
Width: 821
Flags: W
LayerCount: 2
Fore
SplineSet
844 818 m 0,0,1
 823 801 823 801 797.5 781 c 0,2,3
 772 761 772 761 747.5 744 c 0,4,5
 723 727 723 727 701 715.5 c 0,6,7
 679 704 679 704 665 704 c 0,8,9
 653 704 653 704 636.5 722 c 0,10,11
 620 740 620 740 599 761.5 c 0,12,13
 578 783 578 783 552.5 801 c 0,14,15
 527 819 527 819 496 819 c 0,16,17
 453 819 453 819 417.5 798.5 c 0,18,19
 382 778 382 778 353 743.5 c 0,20,21
 324 709 324 709 302 663.5 c 0,22,23
 280 618 280 618 265 568 c 0,24,25
 250 518 250 518 242.5 466.5 c 0,26,27
 235 415 235 415 235 368 c 0,28,29
 235 303 235 303 248.5 251.5 c 0,30,31
 262 200 262 200 285.5 164 c 0,32,33
 309 128 309 128 342 108.5 c 0,34,35
 375 89 375 89 414 89 c 0,36,37
 435 89 435 89 464 96.5 c 0,38,39
 493 104 493 104 530.5 121.5 c 0,40,41
 568 139 568 139 613 168 c 0,42,43
 658 197 658 197 712 241 c 0,44,45
 720 230 720 230 732 214 c 0,46,47
 744 198 744 198 749 190 c 0,48,49
 671 119 671 119 608 74 c 0,50,51
 545 29 545 29 493 3.5 c 0,52,53
 441 -22 441 -22 398 -31.5 c 0,54,55
 355 -41 355 -41 316 -41 c 0,56,57
 279 -41 279 -41 234.5 -24 c 0,58,59
 190 -7 190 -7 151 35 c 0,60,61
 112 77 112 77 85.5 147 c 0,62,63
 59 217 59 217 59 322 c 0,64,65
 59 389 59 389 73 459.5 c 0,66,67
 87 530 87 530 118.5 597.5 c 0,68,69
 150 665 150 665 200.5 726.5 c 0,70,71
 251 788 251 788 325 837 c 0,72,73
 353 855 353 855 388 873 c 0,74,75
 423 891 423 891 461 905 c 0,76,77
 499 919 499 919 537.5 927.5 c 0,78,79
 576 936 576 936 611 936 c 0,80,81
 655 936 655 936 689.5 920 c 0,82,83
 724 904 724 904 752 883.5 c 0,84,85
 780 863 780 863 802.5 843.5 c 0,86,87
 825 824 825 824 844 818 c 0,0,1
EndSplineSet
EndChar

StartChar: d
Encoding: 71 100 71
Width: 985
Flags: W
LayerCount: 2
Fore
SplineSet
945 80 m 0,0,1
 860 23 860 23 798.5 -9 c 0,2,3
 737 -41 737 -41 701 -41 c 0,4,5
 683 -41 683 -41 665 -26.5 c 0,6,7
 647 -12 647 -12 633 22.5 c 0,8,9
 619 57 619 57 609.5 113 c 0,10,11
 600 169 600 169 598 253 c 0,12,13
 562 191 562 191 522 137.5 c 0,14,15
 482 84 482 84 440.5 44.5 c 0,16,17
 399 5 399 5 356.5 -18 c 0,18,19
 314 -41 314 -41 274 -41 c 0,20,21
 238 -41 238 -41 198.5 -20.5 c 0,22,23
 159 0 159 0 125.5 43.5 c 0,24,25
 92 87 92 87 70 154.5 c 0,26,27
 48 222 48 222 48 315 c 0,28,29
 48 394 48 394 66 468.5 c 0,30,31
 84 543 84 543 119.5 610.5 c 0,32,33
 155 678 155 678 208 736.5 c 0,34,35
 261 795 261 795 332 842 c 0,36,37
 360 860 360 860 393 876.5 c 0,38,39
 426 893 426 893 461 906.5 c 0,40,41
 496 920 496 920 531.5 928 c 0,42,43
 567 936 567 936 600 936 c 0,44,45
 620 936 620 936 642.5 924 c 0,46,47
 665 912 665 912 688 895 c 0,48,49
 699 963 699 963 708.5 1028 c 0,50,51
 718 1093 718 1093 725.5 1149.5 c 0,52,53
 733 1206 733 1206 737.5 1251.5 c 0,54,55
 742 1297 742 1297 742 1326 c 0,56,57
 742 1349 742 1349 738.5 1362.5 c 0,58,59
 735 1376 735 1376 728.5 1382.5 c 0,60,61
 722 1389 722 1389 714 1391 c 0,62,63
 706 1393 706 1393 697 1393 c 0,64,65
 688 1393 688 1393 670.5 1388.5 c 0,66,67
 653 1384 653 1384 636 1379 c 0,68,69
 616 1373 616 1373 592 1366 c 0,70,-1
 579 1415 l 0,71,72
 624 1436 624 1436 670 1455 c 0,73,74
 716 1474 716 1474 756.5 1488.5 c 0,75,76
 797 1503 797 1503 828 1511.5 c 0,77,78
 859 1520 859 1520 873 1520 c 0,79,80
 903 1520 903 1520 918 1502 c 0,81,82
 933 1484 933 1484 933 1438 c 0,83,84
 933 1399 933 1399 926 1337 c 0,85,86
 919 1275 919 1275 907.5 1198.5 c 0,87,88
 896 1122 896 1122 881.5 1035.5 c 0,89,90
 867 949 867 949 851.5 861 c 0,91,92
 836 773 836 773 821.5 687.5 c 0,93,94
 807 602 807 602 795.5 528 c 0,95,96
 784 454 784 454 777 396 c 0,97,98
 770 338 770 338 770 304 c 0,99,100
 770 198 770 198 782.5 149.5 c 0,101,102
 795 101 795 101 818 101 c 0,103,104
 844 101 844 101 870 106.5 c 0,105,106
 896 112 896 112 931 127 c 0,107,-1
 945 80 l 0,0,1
611 411 m 0,108,109
 619 473 619 473 632.5 552 c 0,110,111
 646 631 646 631 660 719 c 0,112,113
 643 737 643 737 625 754.5 c 0,114,115
 607 772 607 772 586.5 786.5 c 0,116,117
 566 801 566 801 543.5 810 c 0,118,119
 521 819 521 819 497 819 c 0,120,121
 453 819 453 819 415 797.5 c 0,122,123
 377 776 377 776 345.5 740 c 0,124,125
 314 704 314 704 289.5 658 c 0,126,127
 265 612 265 612 248.5 563 c 0,128,129
 232 514 232 514 223.5 466 c 0,130,131
 215 418 215 418 215 379 c 0,132,133
 215 317 215 317 226.5 268.5 c 0,134,135
 238 220 238 220 257.5 186 c 0,136,137
 277 152 277 152 302 134 c 0,138,139
 327 116 327 116 354 116 c 0,140,141
 377 116 377 116 406 137 c 0,142,143
 435 158 435 158 468 196.5 c 0,144,145
 501 235 501 235 537 289.5 c 0,146,147
 573 344 573 344 611 411 c 0,108,109
EndSplineSet
EndChar

StartChar: e
Encoding: 72 101 72
Width: 825
Flags: W
LayerCount: 2
Fore
SplineSet
394 767 m 0,0,1
 364 737 364 737 336 697.5 c 0,2,3
 308 658 308 658 285.5 612.5 c 0,4,5
 263 567 263 567 248.5 516.5 c 0,6,7
 234 466 234 466 231 414 c 0,8,9
 352 463 352 463 422.5 502.5 c 0,10,11
 493 542 493 542 529 577.5 c 0,12,13
 565 613 565 613 575 645.5 c 0,14,15
 585 678 585 678 585 713 c 0,16,17
 585 741 585 741 578 761.5 c 0,18,19
 571 782 571 782 559 795.5 c 0,20,21
 547 809 547 809 532 815 c 0,22,23
 517 821 517 821 501 821 c 0,24,25
 485 821 485 821 453.5 808 c 0,26,27
 422 795 422 795 394 767 c 0,0,1
775 760 m 0,28,29
 775 732 775 732 768.5 701.5 c 0,30,31
 762 671 762 671 742 637.5 c 0,32,33
 722 604 722 604 685 567.5 c 0,34,35
 648 531 648 531 588 492 c 0,36,37
 528 453 528 453 441 411.5 c 0,38,39
 354 370 354 370 233 326 c 0,40,41
 239 273 239 273 255.5 229 c 0,42,43
 272 185 272 185 294.5 154 c 0,44,45
 317 123 317 123 343 106 c 0,46,47
 369 89 369 89 395 89 c 0,48,49
 416 89 416 89 446.5 95 c 0,50,51
 477 101 477 101 516.5 118 c 0,52,53
 556 135 556 135 606 165.5 c 0,54,55
 656 196 656 196 716 244 c 0,56,57
 722 241 722 241 727.5 234 c 0,58,59
 733 227 733 227 738 219 c 0,60,61
 743 211 743 211 746 204 c 0,62,-1
 752 193 l 0,63,64
 670 122 670 122 606 76.5 c 0,65,66
 542 31 542 31 490.5 5 c 0,67,68
 439 -21 439 -21 396.5 -31 c 0,69,70
 354 -41 354 -41 315 -41 c 0,71,72
 279 -41 279 -41 234.5 -22.5 c 0,73,74
 190 -4 190 -4 151 36.5 c 0,75,76
 112 77 112 77 85 142.5 c 0,77,78
 58 208 58 208 58 303 c 0,79,80
 58 381 58 381 77 455.5 c 0,81,82
 96 530 96 530 131.5 598 c 0,83,84
 167 666 167 666 218.5 726.5 c 0,85,86
 270 787 270 787 335 839 c 0,87,88
 357 857 357 857 387 874.5 c 0,89,90
 417 892 417 892 451 905.5 c 0,91,92
 485 919 485 919 520.5 927.5 c 0,93,94
 556 936 556 936 590 936 c 0,95,96
 637 936 637 936 672 920.5 c 0,97,98
 707 905 707 905 730 880 c 0,99,100
 753 855 753 855 764 823.5 c 0,101,102
 775 792 775 792 775 760 c 0,28,29
EndSplineSet
EndChar

StartChar: f
Encoding: 73 102 73
Width: 592
Flags: W
LayerCount: 2
Fore
SplineSet
941 1401 m 0,0,1
 920 1386 920 1386 892.5 1365.5 c 0,2,3
 865 1345 865 1345 839 1326.5 c 0,4,5
 813 1308 813 1308 790 1295.5 c 0,6,7
 767 1283 767 1283 755 1283 c 0,8,9
 741 1283 741 1283 727 1301 c 0,10,11
 713 1319 713 1319 696.5 1340 c 0,12,13
 680 1361 680 1361 659.5 1379 c 0,14,15
 639 1397 639 1397 611 1397 c 0,16,17
 577 1397 577 1397 550 1376 c 0,18,19
 523 1355 523 1355 502.5 1319.5 c 0,20,21
 482 1284 482 1284 467 1238 c 0,22,23
 452 1192 452 1192 441.5 1142.5 c 0,24,25
 431 1093 431 1093 424 1043.5 c 0,26,27
 417 994 417 994 413 952 c 0,28,-1
 407 905 l 0,29,-1
 661 905 l 0,30,-1
 683 875 l 0,31,32
 673 861 673 861 655 843.5 c 0,33,34
 637 826 637 826 617.5 809 c 0,35,36
 598 792 598 792 579.5 778.5 c 0,37,38
 561 765 561 765 551 760 c 0,39,40
 546 774 546 774 535.5 782.5 c 0,41,42
 525 791 525 791 507.5 796 c 0,43,44
 490 801 490 801 464.5 803 c 0,45,46
 439 805 439 805 403 805 c 0,47,-1
 396 805 l 0,48,-1
 325 193 l 0,49,50
 312 83 312 83 276.5 -19.5 c 0,51,52
 241 -122 241 -122 189 -210.5 c 0,53,54
 137 -299 137 -299 71 -369.5 c 0,55,56
 5 -440 5 -440 -69 -485 c 0,57,-1
 -100 -415 l 0,58,59
 -50 -387 -50 -387 -9.5 -328 c 0,60,61
 31 -269 31 -269 61.5 -192.5 c 0,62,63
 92 -116 92 -116 112 -29.5 c 0,64,65
 132 57 132 57 141 139 c 0,66,-1
 218 805 l 0,67,-1
 71 805 l 0,68,-1
 53 839 l 0,69,-1
 164 905 l 0,70,-1
 229 905 l 0,71,72
 239 985 239 985 254 1059 c 0,73,74
 269 1133 269 1133 295.5 1199 c 0,75,76
 322 1265 322 1265 364 1322.5 c 0,77,78
 406 1380 406 1380 469 1427 c 0,79,80
 523 1466 523 1466 575 1493 c 0,81,82
 627 1520 627 1520 689 1520 c 0,83,84
 735 1520 735 1520 774 1503.5 c 0,85,86
 813 1487 813 1487 845 1466 c 0,87,88
 877 1445 877 1445 901.5 1425.5 c 0,89,90
 926 1406 926 1406 941 1401 c 0,0,1
EndSplineSet
EndChar

StartChar: g
Encoding: 74 103 74
Width: 928
Flags: W
LayerCount: 2
Fore
SplineSet
901 891 m 0,0,1
 867 863 867 863 847.5 822 c 0,2,3
 828 781 828 781 819 709 c 0,4,5
 805 590 805 590 799 493.5 c 0,6,7
 793 397 793 397 788 313 c 0,8,9
 783 229 783 229 777 153.5 c 0,10,11
 771 78 771 78 757 1 c 0,12,13
 739 -103 739 -103 690 -194 c 0,14,15
 641 -285 641 -285 574 -353 c 0,16,17
 507 -421 507 -421 428 -460.5 c 0,18,19
 349 -500 349 -500 271 -500 c 0,20,21
 226 -500 226 -500 176.5 -488 c 0,22,23
 127 -476 127 -476 85.5 -458.5 c 0,24,25
 44 -441 44 -441 17 -420.5 c 0,26,27
 -10 -400 -10 -400 -10 -382 c 0,28,29
 -10 -365 -10 -365 5 -341.5 c 0,30,31
 20 -318 20 -318 39.5 -296 c 0,32,33
 59 -274 59 -274 77.5 -259 c 0,34,35
 96 -244 96 -244 103 -244 c 0,36,37
 115 -244 115 -244 130 -263.5 c 0,38,39
 145 -283 145 -283 172 -306.5 c 0,40,41
 199 -330 199 -330 242 -349.5 c 0,42,43
 285 -369 285 -369 352 -369 c 0,44,45
 441 -369 441 -369 496.5 -291.5 c 0,46,47
 552 -214 552 -214 581 -48 c 0,48,49
 590 3 590 3 595 49 c 0,50,51
 600 95 600 95 603.5 137.5 c 0,52,53
 607 180 607 180 608.5 221 c 0,54,55
 610 262 610 262 612 304 c 0,56,57
 577 242 577 242 535 180 c 0,58,59
 493 118 493 118 447.5 69 c 0,60,61
 402 20 402 20 355 -10.5 c 0,62,63
 308 -41 308 -41 264 -41 c 0,64,65
 231 -41 231 -41 192.5 -22 c 0,66,67
 154 -3 154 -3 121 38.5 c 0,68,69
 88 80 88 80 66 145.5 c 0,70,71
 44 211 44 211 44 305 c 0,72,73
 44 384 44 384 62.5 459.5 c 0,74,75
 81 535 81 535 117.5 603.5 c 0,76,77
 154 672 154 672 209.5 732.5 c 0,78,79
 265 793 265 793 339 842 c 0,80,81
 367 860 367 860 399.5 877 c 0,82,83
 432 894 432 894 467 907 c 0,84,85
 502 920 502 920 538 928 c 0,86,87
 574 936 574 936 610 936 c 0,88,89
 631 936 631 936 651.5 929.5 c 0,90,91
 672 923 672 923 692 913.5 c 0,92,93
 712 904 712 904 730.5 892 c 0,94,95
 749 880 749 880 766 869 c 0,96,97
 793 890 793 890 820.5 906.5 c 0,98,99
 848 923 848 923 874 936 c 0,100,-1
 901 891 l 0,0,1
346 116 m 0,101,102
 364 116 364 116 395 142.5 c 0,103,104
 426 169 426 169 464.5 217 c 0,105,106
 503 265 503 265 544 331.5 c 0,107,108
 585 398 585 398 622 478 c 0,109,110
 626 522 626 522 631.5 569.5 c 0,111,112
 637 617 637 617 646 672 c 0,113,114
 648 689 648 689 653 705 c 0,115,116
 658 721 658 721 664 736 c 0,117,118
 648 749 648 749 630 764 c 0,119,120
 612 779 612 779 592 791 c 0,121,122
 572 803 572 803 550 811 c 0,123,124
 528 819 528 819 505 819 c 0,125,126
 460 819 460 819 421.5 797.5 c 0,127,128
 383 776 383 776 350.5 740 c 0,129,130
 318 704 318 704 292.5 658 c 0,131,132
 267 612 267 612 249.5 563 c 0,133,134
 232 514 232 514 222.5 466 c 0,135,136
 213 418 213 418 213 379 c 0,137,138
 213 317 213 317 223.5 268.5 c 0,139,140
 234 220 234 220 252 186 c 0,141,142
 270 152 270 152 294.5 134 c 0,143,144
 319 116 319 116 346 116 c 0,101,102
EndSplineSet
EndChar

StartChar: h
Encoding: 75 104 75
Width: 1033
Flags: W
LayerCount: 2
Fore
SplineSet
995 85 m 0,0,1
 902 31 902 31 828 -5 c 0,2,3
 754 -41 754 -41 708 -41 c 0,4,5
 679 -41 679 -41 656.5 -9.5 c 0,6,7
 634 22 634 22 634 76 c 0,8,9
 634 94 634 94 640 139.5 c 0,10,11
 646 185 646 185 655.5 244.5 c 0,12,13
 665 304 665 304 676 371 c 0,14,15
 687 438 687 438 696.5 499 c 0,16,17
 706 560 706 560 712 609 c 0,18,19
 718 658 718 658 718 680 c 0,20,21
 718 716 718 716 715 740 c 0,22,23
 712 764 712 764 705 778.5 c 0,24,25
 698 793 698 793 685.5 799 c 0,26,27
 673 805 673 805 654 805 c 0,28,29
 641 805 641 805 611 792 c 0,30,31
 581 779 581 779 543 752 c 0,32,33
 505 725 505 725 464 682.5 c 0,34,35
 423 640 423 640 388 582 c 0,36,37
 361 534 361 534 342.5 462.5 c 0,38,39
 324 391 324 391 310 301 c 0,40,41
 301 246 301 246 296 205.5 c 0,42,43
 291 165 291 165 288.5 134 c 0,44,45
 286 103 286 103 286 80 c 0,46,47
 286 57 286 57 287 38 c 0,48,49
 274 31 274 31 250.5 20 c 0,50,51
 227 9 227 9 201.5 -2 c 0,52,53
 176 -13 176 -13 152.5 -23.5 c 0,54,55
 129 -34 129 -34 117 -41 c 0,56,-1
 81 -8 l 0,57,58
 90 46 90 46 103.5 125 c 0,59,60
 117 204 117 204 132 298 c 0,61,62
 147 392 147 392 163.5 495.5 c 0,63,64
 180 599 180 599 196 703 c 0,65,66
 212 807 212 807 226 905 c 0,67,68
 240 1003 240 1003 250.5 1086 c 0,69,70
 261 1169 261 1169 267.5 1231.5 c 0,71,72
 274 1294 274 1294 274 1326 c 0,73,74
 274 1349 274 1349 270.5 1362.5 c 0,75,76
 267 1376 267 1376 261.5 1382.5 c 0,77,78
 256 1389 256 1389 248.5 1391 c 0,79,80
 241 1393 241 1393 233 1393 c 0,81,82
 223 1393 223 1393 204.5 1388.5 c 0,83,84
 186 1384 186 1384 167 1379 c 0,85,86
 145 1373 145 1373 120 1366 c 0,87,-1
 107 1415 l 0,88,89
 149 1434 149 1434 195.5 1452.5 c 0,90,91
 242 1471 242 1471 283.5 1486 c 0,92,93
 325 1501 325 1501 358 1510.5 c 0,94,95
 391 1520 391 1520 406 1520 c 0,96,97
 434 1520 434 1520 450.5 1502 c 0,98,99
 467 1484 467 1484 467 1438 c 0,100,101
 467 1414 467 1414 461 1360 c 0,102,103
 455 1306 455 1306 445.5 1235 c 0,104,105
 436 1164 436 1164 424.5 1084 c 0,106,107
 413 1004 413 1004 401.5 929.5 c 0,108,109
 390 855 390 855 380 792 c 0,110,111
 370 729 370 729 364 693 c 0,112,113
 422 760 422 760 478.5 806.5 c 0,114,115
 535 853 535 853 588.5 882 c 0,116,117
 642 911 642 911 691 923.5 c 0,118,119
 740 936 740 936 785 936 c 0,120,121
 816 936 816 936 839 927.5 c 0,122,123
 862 919 862 919 877 899 c 0,124,125
 892 879 892 879 899 846 c 0,126,127
 906 813 906 813 906 765 c 0,128,129
 906 730 906 730 899.5 679.5 c 0,130,131
 893 629 893 629 884 570.5 c 0,132,133
 875 512 875 512 863.5 451 c 0,134,135
 852 390 852 390 843 334 c 0,136,137
 834 278 834 278 827.5 232 c 0,138,139
 821 186 821 186 821 158 c 0,140,141
 821 124 821 124 832 111.5 c 0,142,143
 843 99 843 99 857 99 c 0,144,145
 885 99 885 99 912.5 107.5 c 0,146,147
 940 116 940 116 977 132 c 0,148,-1
 995 85 l 0,0,1
EndSplineSet
EndChar

StartChar: i
Encoding: 76 105 76
Width: 525
Flags: W
LayerCount: 2
Fore
SplineSet
508 1262 m 0,0,1
 508 1234 508 1234 498.5 1205.5 c 0,2,3
 489 1177 489 1177 471 1153.5 c 0,4,5
 453 1130 453 1130 427 1115.5 c 0,6,7
 401 1101 401 1101 368 1101 c 0,8,9
 330 1101 330 1101 310 1121.5 c 0,10,11
 290 1142 290 1142 290 1176 c 0,12,13
 290 1203 290 1203 300 1231.5 c 0,14,15
 310 1260 310 1260 328 1283.5 c 0,16,17
 346 1307 346 1307 372 1322.5 c 0,18,19
 398 1338 398 1338 431 1338 c 0,20,21
 469 1338 469 1338 488.5 1317 c 0,22,23
 508 1296 508 1296 508 1262 c 0,0,1
483 85 m 0,24,25
 389 29 389 29 317.5 -6 c 0,26,27
 246 -41 246 -41 198 -41 c 0,28,29
 164 -41 164 -41 142.5 -9.5 c 0,30,31
 121 22 121 22 121 76 c 0,32,33
 121 106 121 106 128.5 160 c 0,34,35
 136 214 136 214 146.5 279.5 c 0,36,37
 157 345 157 345 170 416 c 0,38,39
 183 487 183 487 193.5 551 c 0,40,41
 204 615 204 615 211.5 665 c 0,42,43
 219 715 219 715 219 740 c 0,44,45
 219 763 219 763 216 776.5 c 0,46,47
 213 790 213 790 208 796.5 c 0,48,49
 203 803 203 803 195 805 c 0,50,51
 187 807 187 807 178 807 c 0,52,53
 170 807 170 807 154 803.5 c 0,54,55
 138 800 138 800 121 795 c 0,56,57
 102 790 102 790 80 783 c 0,58,-1
 65 830 l 0,59,60
 107 849 107 849 152.5 868 c 0,61,62
 198 887 198 887 238.5 902 c 0,63,64
 279 917 279 917 311 926.5 c 0,65,66
 343 936 343 936 358 936 c 0,67,68
 386 936 386 936 398.5 917 c 0,69,70
 411 898 411 898 411 852 c 0,71,72
 411 823 411 823 403.5 768 c 0,73,74
 396 713 396 713 385 646 c 0,75,76
 374 579 374 579 360.5 505 c 0,77,78
 347 431 347 431 336 364 c 0,79,80
 325 297 325 297 317.5 242 c 0,81,82
 310 187 310 187 310 158 c 0,83,84
 310 127 310 127 316.5 113 c 0,85,86
 323 99 323 99 340 99 c 0,87,88
 371 99 371 99 398 107 c 0,89,90
 425 115 425 115 466 132 c 0,91,-1
 483 85 l 0,24,25
EndSplineSet
EndChar

StartChar: j
Encoding: 77 106 77
Width: 523
Flags: W
LayerCount: 2
Fore
SplineSet
484 1262 m 0,0,1
 484 1234 484 1234 474 1205.5 c 0,2,3
 464 1177 464 1177 446 1153.5 c 0,4,5
 428 1130 428 1130 401.5 1115.5 c 0,6,7
 375 1101 375 1101 342 1101 c 0,8,9
 304 1101 304 1101 284.5 1121.5 c 0,10,11
 265 1142 265 1142 265 1176 c 0,12,13
 265 1203 265 1203 274.5 1231.5 c 0,14,15
 284 1260 284 1260 302.5 1283.5 c 0,16,17
 321 1307 321 1307 347 1322.5 c 0,18,19
 373 1338 373 1338 406 1338 c 0,20,21
 444 1338 444 1338 464 1317 c 0,22,23
 484 1296 484 1296 484 1262 c 0,0,1
401 870 m 0,24,25
 401 859 401 859 398.5 831.5 c 0,26,27
 396 804 396 804 392 767 c 0,28,29
 388 730 388 730 383.5 687.5 c 0,30,31
 379 645 379 645 374.5 604.5 c 0,32,33
 370 564 370 564 366 529.5 c 0,34,35
 362 495 362 495 360 473 c 0,36,37
 352 404 352 404 342 301.5 c 0,38,39
 332 199 332 199 313 74 c 0,40,41
 294 -38 294 -38 264 -117 c 0,42,43
 234 -196 234 -196 197 -252 c 0,44,45
 160 -308 160 -308 118.5 -347.5 c 0,46,47
 77 -387 77 -387 36 -419 c 0,48,49
 9 -440 9 -440 -23 -455.5 c 0,50,51
 -55 -471 -55 -471 -86.5 -481 c 0,52,53
 -118 -491 -118 -491 -147 -495.5 c 0,54,55
 -176 -500 -176 -500 -197 -500 c 0,56,57
 -229 -500 -229 -500 -263 -491 c 0,58,59
 -297 -482 -297 -482 -325 -469 c 0,60,61
 -353 -456 -353 -456 -370.5 -441.5 c 0,62,63
 -388 -427 -388 -427 -388 -417 c 0,64,65
 -388 -404 -388 -404 -373 -380.5 c 0,66,67
 -358 -357 -358 -357 -338.5 -334.5 c 0,68,69
 -319 -312 -319 -312 -299 -295.5 c 0,70,71
 -279 -279 -279 -279 -269 -279 c 0,72,73
 -260 -279 -260 -279 -245.5 -292.5 c 0,74,75
 -231 -306 -231 -306 -210 -322.5 c 0,76,77
 -189 -339 -189 -339 -159 -352.5 c 0,78,79
 -129 -366 -129 -366 -88 -366 c 0,80,81
 -46 -366 -46 -366 -13.5 -342.5 c 0,82,83
 19 -319 19 -319 44 -271.5 c 0,84,85
 69 -224 69 -224 88 -153.5 c 0,86,87
 107 -83 107 -83 123 11 c 0,88,89
 136 85 136 85 145 152 c 0,90,91
 154 219 154 219 160.5 276 c 0,92,93
 167 333 167 333 171.5 377.5 c 0,94,95
 176 422 176 422 179 451 c 0,96,97
 181 475 181 475 185.5 517.5 c 0,98,99
 190 560 190 560 194.5 604 c 0,100,101
 199 648 199 648 202 686 c 0,102,103
 205 724 205 724 205 740 c 0,104,105
 205 763 205 763 202 776.5 c 0,106,107
 199 790 199 790 193.5 796.5 c 0,108,109
 188 803 188 803 180.5 805 c 0,110,111
 173 807 173 807 164 807 c 0,112,113
 155 807 155 807 139 803.5 c 0,114,115
 123 800 123 800 106 795 c 0,116,117
 87 790 87 790 66 783 c 0,118,-1
 50 830 l 0,119,120
 92 849 92 849 138 868 c 0,121,122
 184 887 184 887 225 902 c 0,123,124
 266 917 266 917 297.5 926.5 c 0,125,126
 329 936 329 936 343 936 c 0,127,128
 371 936 371 936 386 924 c 0,129,130
 401 912 401 912 401 870 c 0,24,25
EndSplineSet
EndChar

StartChar: k
Encoding: 78 107 78
Width: 934
Flags: W
LayerCount: 2
Fore
SplineSet
465 1417 m 0,0,1
 465 1378 465 1378 459 1320 c 0,2,3
 453 1262 453 1262 443.5 1189.5 c 0,4,5
 434 1117 434 1117 421 1034 c 0,6,7
 408 951 408 951 394 864 c 0,8,9
 380 777 380 777 365.5 688 c 0,10,11
 351 599 351 599 338 515 c 0,12,-1
 538 665 l 0,13,14
 607 717 607 717 650.5 753 c 0,15,16
 694 789 694 789 705.5 810.5 c 0,17,18
 717 832 717 832 693.5 841 c 0,19,20
 670 850 670 850 606 848 c 0,21,-1
 601 897 l 0,22,23
 667 906 667 906 730 918 c 0,24,25
 793 930 793 930 856 930 c 0,26,27
 882 930 882 930 898 926.5 c 0,28,29
 914 923 914 923 923 915 c 0,30,31
 932 907 932 907 935.5 895 c 0,32,33
 939 883 939 883 939 866 c 0,34,35
 939 851 939 851 917.5 824.5 c 0,36,37
 896 798 896 798 854.5 762 c 0,38,39
 813 726 813 726 754 683.5 c 0,40,41
 695 641 695 641 620 595 c 0,42,-1
 501 522 l 0,43,44
 527 491 527 491 552.5 448 c 0,45,46
 578 405 578 405 603.5 358 c 0,47,48
 629 311 629 311 653 264.5 c 0,49,50
 677 218 677 218 700 181.5 c 0,51,52
 723 145 723 145 744.5 122 c 0,53,54
 766 99 766 99 786 99 c 0,55,56
 809 99 809 99 838 102.5 c 0,57,58
 867 106 867 106 905 127 c 0,59,-1
 927 83 l 0,60,61
 861 27 861 27 801.5 -6 c 0,62,63
 742 -39 742 -39 701 -39 c 0,64,65
 666 -39 666 -39 632.5 -6.5 c 0,66,67
 599 26 599 26 567.5 77 c 0,68,69
 536 128 536 128 505.5 190 c 0,70,71
 475 252 475 252 446 311 c 0,72,73
 417 370 417 370 389 419.5 c 0,74,75
 361 469 361 469 335 494 c 0,76,77
 323 412 323 412 313 338.5 c 0,78,79
 303 265 303 265 297 205 c 0,80,81
 291 145 291 145 290 102.5 c 0,82,83
 289 60 289 60 295 40 c 0,84,85
 281 33 281 33 256.5 22 c 0,86,87
 232 11 232 11 205.5 -1 c 0,88,89
 179 -13 179 -13 155 -23.5 c 0,90,91
 131 -34 131 -34 119 -41 c 0,92,-1
 81 -8 l 0,93,94
 85 21 85 21 95 85.5 c 0,95,96
 105 150 105 150 119.5 237.5 c 0,97,98
 134 325 134 325 151 428.5 c 0,99,100
 168 532 168 532 185 640 c 0,101,102
 202 748 202 748 218 854 c 0,103,104
 234 960 234 960 246.5 1051.5 c 0,105,106
 259 1143 259 1143 266.5 1214 c 0,107,108
 274 1285 274 1285 274 1323 c 0,109,110
 274 1348 274 1348 271 1362 c 0,111,112
 268 1376 268 1376 262 1383 c 0,113,114
 256 1390 256 1390 247 1391.5 c 0,115,116
 238 1393 238 1393 226 1393 c 0,117,118
 218 1393 218 1393 200.5 1388.5 c 0,119,120
 183 1384 183 1384 165 1379 c 0,121,122
 144 1373 144 1373 120 1366 c 0,123,-1
 105 1415 l 0,124,125
 147 1434 147 1434 194 1452.5 c 0,126,127
 241 1471 241 1471 283.5 1486 c 0,128,129
 326 1501 326 1501 359 1510.5 c 0,130,131
 392 1520 392 1520 406 1520 c 0,132,133
 420 1520 420 1520 431 1517 c 0,134,135
 442 1514 442 1514 449.5 1503.5 c 0,136,137
 457 1493 457 1493 461 1472.5 c 0,138,139
 465 1452 465 1452 465 1417 c 0,0,1
EndSplineSet
EndChar

StartChar: l
Encoding: 79 108 79
Width: 503
Flags: W
LayerCount: 2
Fore
SplineSet
463 85 m 0,0,1
 364 23 364 23 294.5 -9 c 0,2,3
 225 -41 225 -41 170 -41 c 0,4,5
 142 -41 142 -41 120 -11 c 0,6,7
 98 19 98 19 98 78 c 0,8,9
 98 103 98 103 105.5 162 c 0,10,11
 113 221 113 221 124.5 302.5 c 0,12,13
 136 384 136 384 151.5 482 c 0,14,15
 167 580 167 580 182.5 682 c 0,16,17
 198 784 198 784 213.5 884 c 0,18,19
 229 984 229 984 240.5 1070.5 c 0,20,21
 252 1157 252 1157 259.5 1224 c 0,22,23
 267 1291 267 1291 267 1326 c 0,24,25
 267 1349 267 1349 262.5 1362.5 c 0,26,27
 258 1376 258 1376 251 1382.5 c 0,28,29
 244 1389 244 1389 234.5 1391 c 0,30,31
 225 1393 225 1393 216 1393 c 0,32,33
 208 1393 208 1393 191 1388.5 c 0,34,35
 174 1384 174 1384 157 1379 c 0,36,37
 137 1373 137 1373 115 1366 c 0,38,-1
 99 1415 l 0,39,40
 141 1434 141 1434 187.5 1452.5 c 0,41,42
 234 1471 234 1471 276 1486 c 0,43,44
 318 1501 318 1501 351 1510.5 c 0,45,46
 384 1520 384 1520 399 1520 c 0,47,48
 427 1520 427 1520 443.5 1502 c 0,49,50
 460 1484 460 1484 460 1438 c 0,51,52
 460 1399 460 1399 452.5 1331 c 0,53,54
 445 1263 445 1263 433 1176.5 c 0,55,56
 421 1090 421 1090 405.5 990 c 0,57,58
 390 890 390 890 374 788.5 c 0,59,60
 358 687 358 687 342.5 588.5 c 0,61,62
 327 490 327 490 315 405.5 c 0,63,64
 303 321 303 321 295.5 256.5 c 0,65,66
 288 192 288 192 288 158 c 0,67,68
 288 124 288 124 297.5 111.5 c 0,69,70
 307 99 307 99 323 99 c 0,71,72
 346 99 346 99 375.5 107 c 0,73,74
 405 115 405 115 450 132 c 0,75,-1
 463 85 l 0,0,1
EndSplineSet
EndChar

StartChar: m
Encoding: 80 109 80
Width: 1506
Flags: W
LayerCount: 2
Fore
SplineSet
1447 85 m 0,0,1
 1354 31 1354 31 1280.5 -5 c 0,2,3
 1207 -41 1207 -41 1160 -41 c 0,4,5
 1131 -41 1131 -41 1109.5 -9.5 c 0,6,7
 1088 22 1088 22 1088 76 c 0,8,9
 1088 94 1088 94 1094.5 137.5 c 0,10,11
 1101 181 1101 181 1111 239.5 c 0,12,13
 1121 298 1121 298 1133 364.5 c 0,14,15
 1145 431 1145 431 1155 494 c 0,16,17
 1165 557 1165 557 1171.5 611.5 c 0,18,19
 1178 666 1178 666 1178 699 c 0,20,21
 1178 756 1178 756 1166 780 c 0,22,23
 1154 804 1154 804 1136 804 c 0,24,25
 1120 804 1120 804 1094.5 793 c 0,26,27
 1069 782 1069 782 1037.5 757.5 c 0,28,29
 1006 733 1006 733 970.5 694 c 0,30,31
 935 655 935 655 899 600 c 0,32,33
 878 568 878 568 864 535.5 c 0,34,35
 850 503 850 503 840 466.5 c 0,36,37
 830 430 830 430 822.5 388 c 0,38,39
 815 346 815 346 807 295 c 0,40,41
 793 204 793 204 789.5 142 c 0,42,43
 786 80 786 80 789 38 c 0,44,45
 775 31 775 31 750.5 20 c 0,46,47
 726 9 726 9 700 -2 c 0,48,49
 674 -13 674 -13 650 -23.5 c 0,50,51
 626 -34 626 -34 613 -41 c 0,52,-1
 579 -8 l 0,53,54
 601 94 601 94 621 201.5 c 0,55,56
 641 309 641 309 656.5 404 c 0,57,58
 672 499 672 499 681 573.5 c 0,59,60
 690 648 690 648 690 685 c 0,61,62
 690 752 690 752 676 778 c 0,63,64
 662 804 662 804 636 804 c 0,65,66
 625 804 625 804 601 793 c 0,67,68
 577 782 577 782 545.5 758 c 0,69,70
 514 734 514 734 478 695.5 c 0,71,72
 442 657 442 657 407 602 c 0,73,74
 387 572 387 572 373 539.5 c 0,75,76
 359 507 359 507 348 469.5 c 0,77,78
 337 432 337 432 328.5 389 c 0,79,80
 320 346 320 346 311 295 c 0,81,82
 296 204 296 204 291 142 c 0,83,84
 286 80 286 80 288 38 c 0,85,86
 275 31 275 31 251.5 20 c 0,87,88
 228 9 228 9 202.5 -2 c 0,89,90
 177 -13 177 -13 153.5 -23.5 c 0,91,92
 130 -34 130 -34 118 -41 c 0,93,-1
 82 -8 l 0,94,95
 103 98 103 98 122.5 212 c 0,96,97
 142 326 142 326 158 429 c 0,98,99
 174 532 174 532 183.5 614.5 c 0,100,101
 193 697 193 697 193 740 c 0,102,103
 193 763 193 763 190 776.5 c 0,104,105
 187 790 187 790 181.5 797.5 c 0,106,107
 176 805 176 805 169 807 c 0,108,109
 162 809 162 809 154 809 c 0,110,111
 144 809 144 809 126.5 805 c 0,112,113
 109 801 109 801 92 796 c 0,114,115
 72 790 72 790 49 783 c 0,116,-1
 36 832 l 0,117,118
 78 850 78 850 124 868.5 c 0,119,120
 170 887 170 887 210.5 902 c 0,121,122
 251 917 251 917 283 926.5 c 0,123,124
 315 936 315 936 329 936 c 0,125,126
 344 936 344 936 353.5 931 c 0,127,128
 363 926 363 926 368 913.5 c 0,129,130
 373 901 373 901 374.5 878.5 c 0,131,132
 376 856 376 856 376 821 c 0,133,134
 376 811 376 811 375 796 c 0,135,136
 374 781 374 781 372.5 763.5 c 0,137,138
 371 746 371 746 369 727.5 c 0,139,140
 367 709 367 709 366 693 c 0,141,142
 425 761 425 761 476.5 807.5 c 0,143,144
 528 854 528 854 574 882.5 c 0,145,146
 620 911 620 911 662 923.5 c 0,147,148
 704 936 704 936 745 936 c 0,149,150
 782 936 782 936 807 921.5 c 0,151,152
 832 907 832 907 847 882.5 c 0,153,154
 862 858 862 858 868.5 827 c 0,155,156
 875 796 875 796 875 763 c 0,157,158
 875 748 875 748 874.5 735 c 0,159,160
 874 722 874 722 872 703 c 0,161,162
 930 767 930 767 978.5 811.5 c 0,163,164
 1027 856 1027 856 1070 883.5 c 0,165,166
 1113 911 1113 911 1151 923.5 c 0,167,168
 1189 936 1189 936 1227 936 c 0,169,170
 1256 936 1256 936 1280.5 926.5 c 0,171,172
 1305 917 1305 917 1322.5 896 c 0,173,174
 1340 875 1340 875 1350 841.5 c 0,175,176
 1360 808 1360 808 1360 760 c 0,177,178
 1360 722 1360 722 1353.5 670.5 c 0,179,180
 1347 619 1347 619 1337.5 561 c 0,181,182
 1328 503 1328 503 1317 443.5 c 0,183,184
 1306 384 1306 384 1296.5 329.5 c 0,185,186
 1287 275 1287 275 1280.5 230.5 c 0,187,188
 1274 186 1274 186 1274 158 c 0,189,190
 1274 124 1274 124 1284 112.5 c 0,191,192
 1294 101 1294 101 1311 101 c 0,193,194
 1340 101 1340 101 1367.5 108.5 c 0,195,196
 1395 116 1395 116 1436 132 c 0,197,-1
 1447 85 l 0,0,1
EndSplineSet
EndChar

StartChar: n
Encoding: 81 110 81
Width: 1035
Flags: W
LayerCount: 2
Fore
SplineSet
1001 85 m 0,0,1
 956 58 956 58 913.5 35 c 0,2,3
 871 12 871 12 834 -5 c 0,4,5
 797 -22 797 -22 767 -31.5 c 0,6,7
 737 -41 737 -41 716 -41 c 0,8,9
 681 -41 681 -41 660.5 -9.5 c 0,10,11
 640 22 640 22 640 76 c 0,12,13
 640 94 640 94 646.5 139.5 c 0,14,15
 653 185 653 185 662.5 244.5 c 0,16,17
 672 304 672 304 683.5 371 c 0,18,19
 695 438 695 438 704.5 499 c 0,20,21
 714 560 714 560 720.5 609 c 0,22,23
 727 658 727 658 727 680 c 0,24,25
 727 750 727 750 713 778 c 0,26,27
 699 806 699 806 659 806 c 0,28,29
 646 806 646 806 616.5 792.5 c 0,30,31
 587 779 587 779 550 751 c 0,32,33
 513 723 513 723 472.5 680.5 c 0,34,35
 432 638 432 638 398 580 c 0,36,37
 369 532 369 532 352 465 c 0,38,39
 335 398 335 398 318 301 c 0,40,41
 310 256 310 256 305 220 c 0,42,43
 300 184 300 184 297.5 152.5 c 0,44,45
 295 121 295 121 294.5 93.5 c 0,46,47
 294 66 294 66 295 38 c 0,48,49
 282 31 282 31 258 20 c 0,50,51
 234 9 234 9 208.5 -2 c 0,52,53
 183 -13 183 -13 159.5 -23.5 c 0,54,55
 136 -34 136 -34 124 -41 c 0,56,-1
 89 -8 l 0,57,58
 103 59 103 59 116.5 134 c 0,59,60
 130 209 130 209 142 284.5 c 0,61,62
 154 360 154 360 164.5 432 c 0,63,64
 175 504 175 504 182.5 565 c 0,65,66
 190 626 190 626 194.5 672.5 c 0,67,68
 199 719 199 719 199 742 c 0,69,70
 199 765 199 765 196.5 778.5 c 0,71,72
 194 792 194 792 189.5 798.5 c 0,73,74
 185 805 185 805 178 807 c 0,75,76
 171 809 171 809 162 809 c 0,77,78
 153 809 153 809 135.5 805 c 0,79,80
 118 801 118 801 101 796 c 0,81,82
 81 790 81 790 58 783 c 0,83,-1
 42 832 l 0,84,85
 84 850 84 850 131 868.5 c 0,86,87
 178 887 178 887 220 902 c 0,88,89
 262 917 262 917 294 926.5 c 0,90,91
 326 936 326 936 339 936 c 0,92,93
 353 936 353 936 361 931.5 c 0,94,95
 369 927 369 927 373.5 915 c 0,96,97
 378 903 378 903 379.5 881 c 0,98,99
 381 859 381 859 381 823 c 0,100,101
 381 812 381 812 380 795.5 c 0,102,103
 379 779 379 779 378 760 c 0,104,105
 377 741 377 741 375 723 c 0,106,107
 373 705 373 705 372 693 c 0,108,109
 426 757 426 757 481 803 c 0,110,111
 536 849 536 849 588.5 878.5 c 0,112,113
 641 908 641 908 690.5 922 c 0,114,115
 740 936 740 936 785 936 c 0,116,117
 816 936 816 936 840.5 927.5 c 0,118,119
 865 919 865 919 881.5 899.5 c 0,120,121
 898 880 898 880 906.5 847.5 c 0,122,123
 915 815 915 815 915 767 c 0,124,125
 915 732 915 732 908.5 681 c 0,126,127
 902 630 902 630 892 572 c 0,128,129
 882 514 882 514 870.5 452 c 0,130,131
 859 390 859 390 849 334 c 0,132,133
 839 278 839 278 832.5 232 c 0,134,135
 826 186 826 186 826 158 c 0,136,137
 826 124 826 124 835 111.5 c 0,138,139
 844 99 844 99 862 99 c 0,140,141
 885 99 885 99 912.5 107 c 0,142,143
 940 115 940 115 982 132 c 0,144,-1
 1001 85 l 0,0,1
EndSplineSet
EndChar

StartChar: o
Encoding: 82 111 82
Width: 879
Flags: W
LayerCount: 2
Fore
SplineSet
831 559 m 0,0,1
 831 492 831 492 815.5 423.5 c 0,2,3
 800 355 800 355 770 290.5 c 0,4,5
 740 226 740 226 696.5 167.5 c 0,6,7
 653 109 653 109 597 63 c 0,8,9
 571 42 571 42 541 23 c 0,10,11
 511 4 511 4 479.5 -10.5 c 0,12,13
 448 -25 448 -25 416.5 -33 c 0,14,15
 385 -41 385 -41 355 -41 c 0,16,17
 282 -41 282 -41 225 -11.5 c 0,18,19
 168 18 168 18 128.5 69.5 c 0,20,21
 89 121 89 121 68.5 191.5 c 0,22,23
 48 262 48 262 48 344 c 0,24,25
 48 416 48 416 60.5 482.5 c 0,26,27
 73 549 73 549 101 611.5 c 0,28,29
 129 674 129 674 175 731 c 0,30,31
 221 788 221 788 287 840 c 0,32,33
 338 880 338 880 402.5 908 c 0,34,35
 467 936 467 936 531 936 c 0,36,37
 609 936 609 936 666 908 c 0,38,39
 723 880 723 880 759.5 830 c 0,40,41
 796 780 796 780 813.5 711 c 0,42,43
 831 642 831 642 831 559 c 0,0,1
658 496 m 0,44,45
 658 649 658 649 605 730.5 c 0,46,47
 552 812 552 812 462 812 c 0,48,49
 417 812 417 812 381.5 793.5 c 0,50,51
 346 775 346 775 319.5 744.5 c 0,52,53
 293 714 293 714 274.5 673 c 0,54,55
 256 632 256 632 244 587 c 0,56,57
 232 542 232 542 227 495 c 0,58,59
 222 448 222 448 222 406 c 0,60,61
 222 339 222 339 238 280 c 0,62,63
 254 221 254 221 281 176.5 c 0,64,65
 308 132 308 132 344.5 106 c 0,66,67
 381 80 381 80 423 80 c 0,68,69
 466 80 466 80 500 99.5 c 0,70,71
 534 119 534 119 560 151.5 c 0,72,73
 586 184 586 184 604.5 226.5 c 0,74,75
 623 269 623 269 635 315 c 0,76,77
 647 361 647 361 652.5 408 c 0,78,79
 658 455 658 455 658 496 c 0,44,45
EndSplineSet
EndChar

StartChar: p
Encoding: 83 112 83
Width: 985
Flags: W
LayerCount: 2
Fore
SplineSet
373 870 m 0,0,1
 373 843 373 843 367 796 c 0,2,3
 361 749 361 749 350 674 c 0,4,5
 411 761 411 761 464 812.5 c 0,6,7
 517 864 517 864 561.5 891.5 c 0,8,9
 606 919 606 919 643 927.5 c 0,10,11
 680 936 680 936 711 936 c 0,12,13
 751 936 751 936 787.5 916 c 0,14,15
 824 896 824 896 851 856.5 c 0,16,17
 878 817 878 817 894 759.5 c 0,18,19
 910 702 910 702 910 627 c 0,20,21
 910 521 910 521 878.5 404 c 0,22,23
 847 287 847 287 786 181 c 0,24,25
 763 142 763 142 733.5 102.5 c 0,26,27
 704 63 704 63 669.5 31 c 0,28,29
 635 -1 635 -1 596 -21 c 0,30,31
 557 -41 557 -41 515 -41 c 0,32,33
 484 -41 484 -41 451.5 -22.5 c 0,34,35
 419 -4 419 -4 387.5 26.5 c 0,36,37
 356 57 356 57 325.5 96.5 c 0,38,39
 295 136 295 136 268 178 c 0,40,-1
 240 6 l 0,41,42
 223 -97 223 -97 213 -173.5 c 0,43,44
 203 -250 203 -250 198.5 -303.5 c 0,45,46
 194 -357 194 -357 195 -389 c 0,47,48
 196 -421 196 -421 201 -435 c 0,49,50
 186 -439 186 -439 161.5 -447.5 c 0,51,52
 137 -456 137 -456 111 -465.5 c 0,53,54
 85 -475 85 -475 61 -484.5 c 0,55,56
 37 -494 37 -494 24 -500 c 0,57,-1
 -11 -469 l 0,58,59
 -7 -440 -7 -440 3 -380 c 0,60,61
 13 -320 13 -320 27.5 -239.5 c 0,62,63
 42 -159 42 -159 59 -64 c 0,64,65
 76 31 76 31 93.5 129 c 0,66,67
 111 227 111 227 127 323 c 0,68,69
 143 419 143 419 155.5 501 c 0,70,71
 168 583 168 583 175.5 645.5 c 0,72,73
 183 708 183 708 183 740 c 0,74,75
 183 763 183 763 179 776.5 c 0,76,77
 175 790 175 790 168 796.5 c 0,78,79
 161 803 161 803 153 805 c 0,80,81
 145 807 145 807 136 807 c 0,82,83
 127 807 127 807 110.5 803.5 c 0,84,85
 94 800 94 800 78 795 c 0,86,87
 59 790 59 790 38 783 c 0,88,-1
 23 830 l 0,89,90
 66 850 66 850 113 869 c 0,91,92
 160 888 160 888 202 903 c 0,93,94
 244 918 244 918 277 927 c 0,95,96
 310 936 310 936 324 936 c 0,97,98
 346 936 346 936 359.5 922.5 c 0,99,100
 373 909 373 909 373 870 c 0,0,1
615 790 m 0,101,102
 592 790 592 790 555 768 c 0,103,104
 518 746 518 746 476.5 705.5 c 0,105,106
 435 665 435 665 393.5 608 c 0,107,108
 352 551 352 551 319 480 c 0,109,110
 313 441 313 441 305.5 397.5 c 0,111,112
 298 354 298 354 290 305 c 0,113,114
 305 277 305 277 332 245 c 0,115,116
 359 213 359 213 392.5 186 c 0,117,118
 426 159 426 159 462.5 141.5 c 0,119,120
 499 124 499 124 534 124 c 0,121,122
 585 124 585 124 623 151.5 c 0,123,124
 661 179 661 179 683 229 c 0,125,126
 699 264 699 264 709.5 303 c 0,127,128
 720 342 720 342 725 381.5 c 0,129,130
 730 421 730 421 732 459 c 0,131,132
 734 497 734 497 734 530 c 0,133,134
 734 594 734 594 723.5 643 c 0,135,136
 713 692 713 692 696.5 724.5 c 0,137,138
 680 757 680 757 658.5 773.5 c 0,139,140
 637 790 637 790 615 790 c 0,101,102
EndSplineSet
EndChar

StartChar: q
Encoding: 84 113 84
Width: 932
Flags: W
LayerCount: 2
Fore
SplineSet
356 116 m 0,0,1
 378 116 378 116 408.5 140.5 c 0,2,3
 439 165 439 165 473.5 206 c 0,4,5
 508 247 508 247 545 302 c 0,6,7
 582 357 582 357 618 417 c 0,8,9
 632 502 632 502 646 584.5 c 0,10,11
 660 667 660 667 673 746 c 0,12,13
 657 759 657 759 639 772 c 0,14,15
 621 785 621 785 601.5 795.5 c 0,16,17
 582 806 582 806 560 812.5 c 0,18,19
 538 819 538 819 515 819 c 0,20,21
 471 819 471 819 431 797.5 c 0,22,23
 391 776 391 776 356.5 740 c 0,24,25
 322 704 322 704 294.5 658 c 0,26,27
 267 612 267 612 247.5 563 c 0,28,29
 228 514 228 514 217.5 466 c 0,30,31
 207 418 207 418 207 379 c 0,32,33
 207 317 207 317 220.5 268.5 c 0,34,35
 234 220 234 220 255 186 c 0,36,37
 276 152 276 152 302.5 134 c 0,38,39
 329 116 329 116 356 116 c 0,0,1
914 891 m 0,40,41
 897 877 897 877 885.5 866 c 0,42,43
 874 855 874 855 865 840.5 c 0,44,45
 856 826 856 826 849.5 805 c 0,46,47
 843 784 843 784 837 750 c 0,48,-1
 793 484 l 0,49,50
 771 351 771 351 751 226.5 c 0,51,52
 731 102 731 102 715.5 -8.5 c 0,53,54
 700 -119 700 -119 691.5 -206.5 c 0,55,56
 683 -294 683 -294 682.5 -353.5 c 0,57,58
 682 -413 682 -413 693 -435 c 0,59,60
 679 -440 679 -440 654.5 -448 c 0,61,62
 630 -456 630 -456 603.5 -466 c 0,63,64
 577 -476 577 -476 552.5 -485 c 0,65,66
 528 -494 528 -494 516 -500 c 0,67,-1
 478 -469 l 0,68,69
 483 -433 483 -433 493.5 -363.5 c 0,70,71
 504 -294 504 -294 518.5 -202 c 0,72,73
 533 -110 533 -110 551 0 c 0,74,75
 569 110 569 110 588 228 c 0,76,77
 549 171 549 171 509.5 122 c 0,78,79
 470 73 470 73 430 36.5 c 0,80,81
 390 0 390 0 350.5 -20.5 c 0,82,83
 311 -41 311 -41 274 -41 c 0,84,85
 240 -41 240 -41 200.5 -22 c 0,86,87
 161 -3 161 -3 127 38.5 c 0,88,89
 93 80 93 80 70.5 145.5 c 0,90,91
 48 211 48 211 48 305 c 0,92,93
 48 384 48 384 68.5 460.5 c 0,94,95
 89 537 89 537 128 606.5 c 0,96,97
 167 676 167 676 222.5 736 c 0,98,99
 278 796 278 796 349 842 c 0,100,101
 377 860 377 860 410.5 877 c 0,102,103
 444 894 444 894 479.5 907 c 0,104,105
 515 920 515 920 550 928 c 0,106,107
 585 936 585 936 617 936 c 0,108,109
 660 936 660 936 700.5 915.5 c 0,110,111
 741 895 741 895 775 874 c 0,112,113
 801 891 801 891 830 906.5 c 0,114,115
 859 922 859 922 887 936 c 0,116,-1
 914 891 l 0,40,41
EndSplineSet
EndChar

StartChar: r
Encoding: 85 114 85
Width: 763
Flags: W
LayerCount: 2
Fore
SplineSet
809 850 m 0,0,1
 797 834 797 834 780.5 807 c 0,2,3
 764 780 764 780 747.5 754 c 0,4,5
 731 728 731 728 716 709 c 0,6,7
 701 690 701 690 691 690 c 0,8,9
 672 690 672 690 657.5 701 c 0,10,11
 643 712 643 712 629.5 725.5 c 0,12,13
 616 739 616 739 603.5 750.5 c 0,14,15
 591 762 591 762 576 762 c 0,16,17
 550 762 550 762 516.5 730 c 0,18,19
 483 698 483 698 449 644.5 c 0,20,21
 415 591 415 591 384.5 523 c 0,22,23
 354 455 354 455 333 383 c 0,24,25
 322 345 322 345 313.5 301.5 c 0,26,27
 305 258 305 258 298.5 212.5 c 0,28,29
 292 167 292 167 289 122.5 c 0,30,31
 286 78 286 78 288 38 c 0,32,33
 274 31 274 31 250.5 20 c 0,34,35
 227 9 227 9 201.5 -2 c 0,36,37
 176 -13 176 -13 153 -23.5 c 0,38,39
 130 -34 130 -34 118 -41 c 0,40,-1
 82 -8 l 0,41,42
 97 63 97 63 111 138 c 0,43,44
 125 213 125 213 137 286 c 0,45,46
 149 359 149 359 159.5 427.5 c 0,47,48
 170 496 170 496 177.5 555.5 c 0,49,50
 185 615 185 615 189 662.5 c 0,51,52
 193 710 193 710 193 740 c 0,53,54
 193 763 193 763 189.5 776.5 c 0,55,56
 186 790 186 790 180.5 796.5 c 0,57,58
 175 803 175 803 167.5 805 c 0,59,60
 160 807 160 807 152 807 c 0,61,62
 142 807 142 807 125.5 803.5 c 0,63,64
 109 800 109 800 92 795 c 0,65,66
 73 790 73 790 51 783 c 0,67,-1
 36 830 l 0,68,69
 78 849 78 849 124.5 868 c 0,70,71
 171 887 171 887 212.5 902 c 0,72,73
 254 917 254 917 286.5 926.5 c 0,74,75
 319 936 319 936 333 936 c 0,76,77
 347 936 347 936 355 931.5 c 0,78,79
 363 927 363 927 367.5 914.5 c 0,80,81
 372 902 372 902 373 880.5 c 0,82,83
 374 859 374 859 374 826 c 0,84,85
 374 815 374 815 371.5 791.5 c 0,86,87
 369 768 369 768 365.5 740 c 0,88,89
 362 712 362 712 358 684.5 c 0,90,91
 354 657 354 657 351 638 c 0,92,93
 399 730 399 730 441.5 788 c 0,94,95
 484 846 484 846 522 879 c 0,96,97
 560 912 560 912 594.5 924 c 0,98,99
 629 936 629 936 661 936 c 0,100,101
 679 936 679 936 696 926 c 0,102,103
 713 916 713 916 730.5 902 c 0,104,105
 748 888 748 888 767.5 873.5 c 0,106,107
 787 859 787 859 809 850 c 0,0,1
EndSplineSet
EndChar

StartChar: s
Encoding: 86 115 86
Width: 736
Flags: W
LayerCount: 2
Fore
SplineSet
728 844 m 0,0,1
 709 821 709 821 689 799.5 c 0,2,3
 669 778 669 778 650.5 761.5 c 0,4,5
 632 745 632 745 617 734.5 c 0,6,7
 602 724 602 724 594 724 c 0,8,9
 580 724 580 724 564 742.5 c 0,10,11
 548 761 548 761 527.5 783 c 0,12,13
 507 805 507 805 480.5 823.5 c 0,14,15
 454 842 454 842 420 842 c 0,16,17
 392 842 392 842 367 832.5 c 0,18,19
 342 823 342 823 323 806 c 0,20,21
 304 789 304 789 292.5 765 c 0,22,23
 281 741 281 741 281 712 c 0,24,25
 281 673 281 673 317 635 c 0,26,27
 353 597 353 597 434 559 c 0,28,29
 475 539 475 539 515.5 514.5 c 0,30,31
 556 490 556 490 588 457.5 c 0,32,33
 620 425 620 425 640 383.5 c 0,34,35
 660 342 660 342 660 289 c 0,36,37
 660 220 660 220 622.5 159.5 c 0,38,39
 585 99 585 99 526.5 54.5 c 0,40,41
 468 10 468 10 397.5 -15.5 c 0,42,43
 327 -41 327 -41 262 -41 c 0,44,45
 209 -41 209 -41 160.5 -26.5 c 0,46,47
 112 -12 112 -12 74 9.5 c 0,48,49
 36 31 36 31 13.5 56.5 c 0,50,51
 -9 82 -9 82 -9 103 c 0,52,53
 -9 115 -9 115 4 139 c 0,54,55
 17 163 17 163 34 187.5 c 0,56,57
 51 212 51 212 69 230 c 0,58,59
 87 248 87 248 98 248 c 0,60,61
 105 248 105 248 114 234.5 c 0,62,63
 123 221 123 221 135 200.5 c 0,64,65
 147 180 147 180 164 156.5 c 0,66,67
 181 133 181 133 205 112.5 c 0,68,69
 229 92 229 92 261.5 78.5 c 0,70,71
 294 65 294 65 337 65 c 0,72,73
 371 65 371 65 401 77 c 0,74,75
 431 89 431 89 452.5 110 c 0,76,77
 474 131 474 131 486.5 159.5 c 0,78,79
 499 188 499 188 499 221 c 0,80,81
 499 258 499 258 482.5 289 c 0,82,83
 466 320 466 320 439 345.5 c 0,84,85
 412 371 412 371 376.5 392 c 0,86,87
 341 413 341 413 304 431 c 0,88,89
 251 456 251 456 215.5 482 c 0,90,91
 180 508 180 508 158 535 c 0,92,93
 136 562 136 562 127 591.5 c 0,94,95
 118 621 118 621 118 653 c 0,96,97
 118 716 118 716 151 768 c 0,98,99
 184 820 184 820 235.5 857.5 c 0,100,101
 287 895 287 895 350 915.5 c 0,102,103
 413 936 413 936 473 936 c 0,104,105
 525 936 525 936 562 924 c 0,106,107
 599 912 599 912 628 896 c 0,108,109
 657 880 657 880 680.5 865 c 0,110,111
 704 850 704 850 728 844 c 0,0,1
EndSplineSet
EndChar

StartChar: t
Encoding: 87 116 87
Width: 650
Flags: W
LayerCount: 2
Fore
SplineSet
608 130 m 0,0,1
 557 90 557 90 505.5 58.5 c 0,2,3
 454 27 454 27 408.5 5 c 0,4,5
 363 -17 363 -17 325 -29 c 0,6,7
 287 -41 287 -41 263 -41 c 0,8,9
 236 -41 236 -41 211 -26 c 0,10,11
 186 -11 186 -11 166.5 15.5 c 0,12,13
 147 42 147 42 135 79 c 0,14,15
 123 116 123 116 123 160 c 0,16,17
 123 179 123 179 124 198 c 0,18,19
 125 217 125 217 126.5 237.5 c 0,20,21
 128 258 128 258 130.5 281 c 0,22,23
 133 304 133 304 137 332 c 0,24,-1
 212 805 l 0,25,-1
 72 805 l 0,26,-1
 54 839 l 0,27,-1
 161 905 l 0,28,-1
 228 905 l 0,29,-1
 234 940 l 0,30,31
 240 981 240 981 246.5 1007 c 0,32,33
 253 1033 253 1033 261.5 1049.5 c 0,34,35
 270 1066 270 1066 280 1076.5 c 0,36,37
 290 1087 290 1087 303 1097 c 0,38,-1
 434 1176 l 0,39,-1
 462 1151 l 0,40,41
 455 1142 455 1142 447 1119 c 0,42,43
 440 1099 440 1099 430.5 1062 c 0,44,45
 421 1025 421 1025 411 963 c 0,46,-1
 402 905 l 0,47,-1
 649 905 l 0,48,-1
 671 875 l 0,49,50
 661 861 661 861 643 843.5 c 0,51,52
 625 826 625 826 605.5 809 c 0,53,54
 586 792 586 792 568 778.5 c 0,55,56
 550 765 550 765 541 760 c 0,57,58
 529 788 529 788 495 796.5 c 0,59,60
 461 805 461 805 390 805 c 0,61,-1
 386 805 l 0,62,-1
 320 379 l 0,63,64
 317 360 317 360 314.5 338.5 c 0,65,66
 312 317 312 317 310.5 297.5 c 0,67,68
 309 278 309 278 308.5 261 c 0,69,70
 308 244 308 244 308 234 c 0,71,72
 308 172 308 172 329.5 143.5 c 0,73,74
 351 115 351 115 379 115 c 0,75,76
 414 115 414 115 463 130 c 0,77,78
 512 145 512 145 587 179 c 0,79,-1
 608 130 l 0,0,1
EndSplineSet
EndChar

StartChar: u
Encoding: 88 117 88
Width: 1048
Flags: W
LayerCount: 2
Fore
SplineSet
1006 81 m 0,0,1
 925 27 925 27 862 -7 c 0,2,3
 799 -41 799 -41 757 -41 c 0,4,5
 737 -41 737 -41 716.5 -24 c 0,6,7
 696 -7 696 -7 681 29.5 c 0,8,9
 666 66 666 66 658 124.5 c 0,10,11
 650 183 650 183 654 266 c 0,12,13
 614 199 614 199 569 143 c 0,14,15
 524 87 524 87 475.5 46 c 0,16,17
 427 5 427 5 376 -18 c 0,18,19
 325 -41 325 -41 274 -41 c 0,20,21
 251 -41 251 -41 224 -25.5 c 0,22,23
 197 -10 197 -10 173 21 c 0,24,25
 149 52 149 52 133 98 c 0,26,27
 117 144 117 144 117 205 c 0,28,29
 117 235 117 235 122.5 279.5 c 0,30,31
 128 324 128 324 136 375 c 0,32,33
 144 426 144 426 153 480.5 c 0,34,35
 162 535 162 535 170 584.5 c 0,36,37
 178 634 178 634 183.5 674.5 c 0,38,39
 189 715 189 715 189 740 c 0,40,41
 189 763 189 763 186 776.5 c 0,42,43
 183 790 183 790 177.5 796.5 c 0,44,45
 172 803 172 803 164.5 805 c 0,46,47
 157 807 157 807 148 807 c 0,48,49
 139 807 139 807 122.5 803.5 c 0,50,51
 106 800 106 800 89 795 c 0,52,53
 70 790 70 790 47 783 c 0,54,-1
 34 830 l 0,55,56
 76 849 76 849 122.5 868 c 0,57,58
 169 887 169 887 210.5 902 c 0,59,60
 252 917 252 917 284.5 926.5 c 0,61,62
 317 936 317 936 331 936 c 0,63,64
 360 936 360 936 370 917 c 0,65,66
 380 898 380 898 380 852 c 0,67,68
 380 823 380 823 374 776 c 0,69,70
 368 729 368 729 359 673.5 c 0,71,72
 350 618 350 618 340 558.5 c 0,73,74
 330 499 330 499 321 443.5 c 0,75,76
 312 388 312 388 306 341 c 0,77,78
 300 294 300 294 300 265 c 0,79,80
 300 182 300 182 319.5 143.5 c 0,81,82
 339 105 339 105 370 105 c 0,83,84
 389 105 389 105 420 122.5 c 0,85,86
 451 140 451 140 490 179.5 c 0,87,88
 529 219 529 219 575.5 282 c 0,89,90
 622 345 622 345 672 436 c 0,91,92
 678 478 678 478 685.5 520.5 c 0,93,94
 693 563 693 563 699.5 603 c 0,95,96
 706 643 706 643 710.5 678 c 0,97,98
 715 713 715 713 715 740 c 0,99,100
 715 763 715 763 712.5 776.5 c 0,101,102
 710 790 710 790 705 796.5 c 0,103,104
 700 803 700 803 693.5 805 c 0,105,106
 687 807 687 807 678 807 c 0,107,108
 669 807 669 807 654 803.5 c 0,109,110
 639 800 639 800 624 795 c 0,111,112
 606 790 606 790 587 783 c 0,113,-1
 571 830 l 0,114,115
 613 849 613 849 658 868 c 0,116,117
 703 887 703 887 743 902 c 0,118,119
 783 917 783 917 814 926.5 c 0,120,121
 845 936 845 936 860 936 c 0,122,123
 888 936 888 936 897 917 c 0,124,125
 906 898 906 898 906 852 c 0,126,127
 906 823 906 823 900 777.5 c 0,128,129
 894 732 894 732 885.5 678.5 c 0,130,131
 877 625 877 625 866.5 567 c 0,132,133
 856 509 856 509 847.5 454.5 c 0,134,135
 839 400 839 400 833 352.5 c 0,136,137
 827 305 827 305 827 272 c 0,138,139
 827 181 827 181 840.5 140 c 0,140,141
 854 99 854 99 879 99 c 0,142,143
 905 99 905 99 930 105.5 c 0,144,145
 955 112 955 112 991 127 c 0,146,-1
 1006 81 l 0,0,1
EndSplineSet
EndChar

StartChar: v
Encoding: 89 118 89
Width: 934
Flags: W
LayerCount: 2
Fore
SplineSet
919 852 m 0,0,1
 919 820 919 820 896.5 759 c 0,2,3
 874 698 874 698 823 598.5 c 0,4,5
 772 499 772 499 688.5 355.5 c 0,6,7
 605 212 605 212 482 15 c 0,8,9
 473 10 473 10 457.5 2.5 c 0,10,11
 442 -5 442 -5 424 -13 c 0,12,13
 406 -21 406 -21 389.5 -29 c 0,14,15
 373 -37 373 -37 363 -41 c 0,16,-1
 329 -8 l 0,17,18
 322 48 322 48 312 116 c 0,19,20
 302 184 302 184 290.5 255 c 0,21,22
 279 326 279 326 266.5 396.5 c 0,23,24
 254 467 254 467 241.5 529.5 c 0,25,26
 229 592 229 592 218 642 c 0,27,28
 207 692 207 692 198 723 c 0,29,30
 190 750 190 750 181 766 c 0,31,32
 172 782 172 782 162.5 791 c 0,33,34
 153 800 153 800 144 802.5 c 0,35,36
 135 805 135 805 126 805 c 0,37,38
 116 805 116 805 100 801.5 c 0,39,40
 84 798 84 798 68 793 c 0,41,42
 50 788 50 788 28 781 c 0,43,-1
 11 828 l 0,44,45
 53 847 53 847 95 866.5 c 0,46,47
 137 886 137 886 173 901.5 c 0,48,49
 209 917 209 917 236.5 926.5 c 0,50,51
 264 936 264 936 278 936 c 0,52,53
 307 936 307 936 323.5 907.5 c 0,54,55
 340 879 340 879 360 809 c 0,56,57
 367 783 367 783 378.5 730 c 0,58,59
 390 677 390 677 402.5 611.5 c 0,60,61
 415 546 415 546 427.5 474.5 c 0,62,63
 440 403 440 403 450 341.5 c 0,64,65
 460 280 460 280 466.5 235.5 c 0,66,67
 473 191 473 191 473 178 c 0,68,69
 546 295 546 295 597.5 394 c 0,70,71
 649 493 649 493 682 570 c 0,72,73
 715 647 715 647 730 698.5 c 0,74,75
 745 750 745 750 745 772 c 0,76,77
 745 794 745 794 729.5 805 c 0,78,79
 714 816 714 816 686 816 c 0,80,81
 669 816 669 816 649.5 812.5 c 0,82,83
 630 809 630 809 608 801 c 0,84,-1
 589 846 l 0,85,86
 619 861 619 861 655 877.5 c 0,87,88
 691 894 691 894 726.5 907 c 0,89,90
 762 920 762 920 793 928 c 0,91,92
 824 936 824 936 843 936 c 0,93,94
 878 936 878 936 898.5 918 c 0,95,96
 919 900 919 900 919 852 c 0,0,1
EndSplineSet
EndChar

StartChar: w
Encoding: 90 119 90
Width: 1323
Flags: W
LayerCount: 2
Fore
SplineSet
1316 860 m 0,0,1
 1316 833 1316 833 1310.5 799 c 0,2,3
 1305 765 1305 765 1290.5 717.5 c 0,4,5
 1276 670 1276 670 1250.5 606.5 c 0,6,7
 1225 543 1225 543 1185.5 458 c 0,8,9
 1146 373 1146 373 1090 264 c 0,10,11
 1034 155 1034 155 959 16 c 0,12,13
 950 11 950 11 934.5 3.5 c 0,14,15
 919 -4 919 -4 902 -12 c 0,16,-1
 869 -29 l 0,17,18
 853 -37 853 -37 843 -41 c 0,19,-1
 807 -8 l 0,20,21
 796 77 796 77 783 173 c 0,22,23
 770 269 770 269 756 359.5 c 0,24,25
 742 450 742 450 728 527 c 0,26,27
 714 604 714 604 701 650 c 0,28,29
 698 628 698 628 687 589 c 0,30,31
 676 550 676 550 657.5 499.5 c 0,32,33
 639 449 639 449 614.5 389.5 c 0,34,35
 590 330 590 330 561.5 268 c 0,36,37
 533 206 533 206 501.5 143.5 c 0,38,39
 470 81 470 81 437 25 c 0,40,41
 428 20 428 20 411 11 c 0,42,43
 394 2 394 2 375 -8 c 0,44,45
 356 -18 356 -18 338 -27.5 c 0,46,47
 320 -37 320 -37 310 -41 c 0,48,-1
 276 -8 l 0,49,50
 269 48 269 48 261.5 116 c 0,51,52
 254 184 254 184 246.5 255.5 c 0,53,54
 239 327 239 327 231.5 398 c 0,55,56
 224 469 224 469 216.5 531.5 c 0,57,58
 209 594 209 594 201 644 c 0,59,60
 193 694 193 694 186 723 c 0,61,62
 180 750 180 750 171.5 766 c 0,63,64
 163 782 163 782 153.5 791 c 0,65,66
 144 800 144 800 134 802.5 c 0,67,68
 124 805 124 805 115 805 c 0,69,70
 106 805 106 805 90 801.5 c 0,71,72
 74 798 74 798 57 793 c 0,73,74
 38 788 38 788 16 781 c 0,75,-1
 -1 828 l 0,76,77
 42 848 42 848 83.5 867.5 c 0,78,79
 125 887 125 887 160.5 902 c 0,80,81
 196 917 196 917 223 926.5 c 0,82,83
 250 936 250 936 264 936 c 0,84,85
 292 936 292 936 306 903.5 c 0,86,87
 320 871 320 871 337 799 c 0,88,89
 343 773 343 773 350.5 725.5 c 0,90,91
 358 678 358 678 366 619.5 c 0,92,93
 374 561 374 561 381.5 497 c 0,94,95
 389 433 389 433 395.5 374.5 c 0,96,97
 402 316 402 316 406.5 269 c 0,98,99
 411 222 411 222 413 197 c 0,100,101
 453 275 453 275 492.5 363.5 c 0,102,103
 532 452 532 452 564.5 539.5 c 0,104,105
 597 627 597 627 618 707 c 0,106,107
 639 787 639 787 643 849 c 0,108,109
 659 864 659 864 680.5 879.5 c 0,110,111
 702 895 702 895 723 907.5 c 0,112,113
 744 920 744 920 763 928 c 0,114,115
 782 936 782 936 794 936 c 0,116,117
 798 936 798 936 804 919.5 c 0,118,119
 810 903 810 903 817 876 c 0,120,121
 824 849 824 849 832 813.5 c 0,122,123
 840 778 840 778 847.5 741 c 0,124,125
 855 704 855 704 862 667 c 0,126,127
 869 630 869 630 874 600 c 0,128,129
 881 553 881 553 890.5 499 c 0,130,131
 900 445 900 445 908.5 390 c 0,132,133
 917 335 917 335 924.5 281 c 0,134,135
 932 227 932 227 937 180 c 0,136,137
 1005 303 1005 303 1050 399 c 0,138,139
 1095 495 1095 495 1121.5 567.5 c 0,140,141
 1148 640 1148 640 1159 692 c 0,142,143
 1170 744 1170 744 1170 779 c 0,144,145
 1170 800 1170 800 1155.5 812 c 0,146,147
 1141 824 1141 824 1115 824 c 0,148,149
 1101 824 1101 824 1079.5 820 c 0,150,151
 1058 816 1058 816 1036 809 c 0,152,-1
 1016 856 l 0,153,154
 1051 877 1051 877 1085 892.5 c 0,155,156
 1119 908 1119 908 1147.5 917.5 c 0,157,158
 1176 927 1176 927 1198 931.5 c 0,159,160
 1220 936 1220 936 1232 936 c 0,161,162
 1249 936 1249 936 1264 933.5 c 0,163,164
 1279 931 1279 931 1290.5 923 c 0,165,166
 1302 915 1302 915 1309 900 c 0,167,168
 1316 885 1316 885 1316 860 c 0,0,1
EndSplineSet
EndChar

StartChar: x
Encoding: 91 120 91
Width: 916
Flags: W
LayerCount: 2
Fore
SplineSet
895 82 m 0,0,1
 808 22 808 22 750 -9.5 c 0,2,3
 692 -41 692 -41 649 -41 c 0,4,5
 619 -41 619 -41 590 -11.5 c 0,6,7
 561 18 561 18 532 67.5 c 0,8,9
 503 117 503 117 475 181.5 c 0,10,11
 447 246 447 246 419 317 c 0,12,13
 374 256 374 256 311.5 174 c 0,14,15
 249 92 249 92 185 -5 c 0,16,17
 167 -7 167 -7 141 -11 c 0,18,19
 115 -15 115 -15 88 -20 c 0,20,21
 61 -25 61 -25 35.5 -30.5 c 0,22,23
 10 -36 10 -36 -9 -41 c 0,24,-1
 -34 -4 l 0,25,26
 11 36 11 36 64.5 87.5 c 0,27,28
 118 139 118 139 172.5 195.5 c 0,29,30
 227 252 227 252 280 310.5 c 0,31,32
 333 369 333 369 378 422 c 0,33,34
 349 496 349 496 321.5 565.5 c 0,35,36
 294 635 294 635 268 688.5 c 0,37,38
 242 742 242 742 216.5 774.5 c 0,39,40
 191 807 191 807 167 807 c 0,41,42
 158 807 158 807 137.5 803 c 0,43,44
 117 799 117 799 95 794 c 0,45,46
 69 788 69 788 41 781 c 0,47,-1
 25 830 l 0,48,49
 67 849 67 849 108 868 c 0,50,51
 149 887 149 887 184 902 c 0,52,53
 219 917 219 917 245.5 926.5 c 0,54,55
 272 936 272 936 284 936 c 0,56,57
 310 936 310 936 338 903 c 0,58,59
 366 870 366 870 394.5 816 c 0,60,61
 423 762 423 762 452.5 692 c 0,62,63
 482 622 482 622 511 547 c 0,64,65
 550 594 550 594 585 641 c 0,66,67
 620 688 620 688 647 726.5 c 0,68,69
 674 765 674 765 690 792 c 0,70,71
 706 819 706 819 706 826 c 0,72,73
 706 836 706 836 702 844 c 0,74,75
 698 852 698 852 687 856 c 0,76,77
 676 860 676 860 656 860.5 c 0,78,79
 636 861 636 861 604 858 c 0,80,-1
 601 909 l 0,81,82
 634 916 634 916 666.5 921 c 0,83,84
 699 926 699 926 728 929.5 c 0,85,86
 757 933 757 933 781 934.5 c 0,87,88
 805 936 805 936 820 936 c 0,89,90
 871 936 871 936 892 920 c 0,91,92
 913 904 913 904 913 883 c 0,93,94
 913 863 913 863 889.5 828.5 c 0,95,96
 866 794 866 794 820.5 740.5 c 0,97,98
 775 687 775 687 707 614.5 c 0,99,100
 639 542 639 542 550 447 c 0,101,102
 577 378 577 378 604 314.5 c 0,103,104
 631 251 631 251 656.5 202.5 c 0,105,106
 682 154 682 154 706 125 c 0,107,108
 730 96 730 96 752 96 c 0,109,110
 775 96 775 96 806.5 103 c 0,111,112
 838 110 838 110 875 129 c 0,113,-1
 895 82 l 0,0,1
EndSplineSet
EndChar

StartChar: y
Encoding: 92 121 92
Width: 944
Flags: W
LayerCount: 2
Fore
SplineSet
916 860 m 0,0,1
 916 826 916 826 895 766.5 c 0,2,3
 874 707 874 707 830.5 614 c 0,4,5
 787 521 787 521 720 390 c 0,6,7
 653 259 653 259 562 82 c 0,8,9
 494 -48 494 -48 427.5 -155.5 c 0,10,11
 361 -263 361 -263 290.5 -339.5 c 0,12,13
 220 -416 220 -416 144 -458 c 0,14,15
 68 -500 68 -500 -19 -500 c 0,16,17
 -52 -500 -52 -500 -82 -493.5 c 0,18,19
 -112 -487 -112 -487 -135 -477.5 c 0,20,21
 -158 -468 -158 -468 -172 -457 c 0,22,23
 -186 -446 -186 -446 -186 -437 c 0,24,25
 -186 -424 -186 -424 -174 -399.5 c 0,26,27
 -162 -375 -162 -375 -145 -349.5 c 0,28,29
 -128 -324 -128 -324 -109.5 -302.5 c 0,30,31
 -91 -281 -91 -281 -77 -274 c 0,32,33
 -29 -310 -29 -310 6.5 -321 c 0,34,35
 42 -332 42 -332 79 -332 c 0,36,37
 152 -332 152 -332 224 -260 c 0,38,39
 296 -188 296 -188 374 -55 c 0,40,41
 364 4 364 4 349 76 c 0,42,43
 334 148 334 148 316.5 224.5 c 0,44,45
 299 301 299 301 279.5 377 c 0,46,47
 260 453 260 453 241 520 c 0,48,49
 222 587 222 587 204 640.5 c 0,50,51
 186 694 186 694 172 725 c 0,52,53
 149 776 149 776 133 791.5 c 0,54,55
 117 807 117 807 100 807 c 0,56,57
 91 807 91 807 74.5 803.5 c 0,58,59
 58 800 58 800 42 795 c 0,60,61
 23 790 23 790 2 783 c 0,62,-1
 -12 830 l 0,63,64
 31 850 31 850 72 869 c 0,65,66
 113 888 113 888 148 903 c 0,67,68
 183 918 183 918 209.5 927 c 0,69,70
 236 936 236 936 250 936 c 0,71,72
 278 936 278 936 296 907 c 0,73,74
 314 878 314 878 338 809 c 0,75,76
 357 756 357 756 378.5 685.5 c 0,77,78
 400 615 400 615 422 533.5 c 0,79,80
 444 452 444 452 465.5 363.5 c 0,81,82
 487 275 487 275 505 187 c 0,83,84
 536 247 536 247 566 309 c 0,85,86
 596 371 596 371 623.5 430.5 c 0,87,88
 651 490 651 490 674.5 544 c 0,89,90
 698 598 698 598 715 642.5 c 0,91,92
 732 687 732 687 742 720.5 c 0,93,94
 752 754 752 754 752 771 c 0,95,96
 752 821 752 821 699 824 c 0,97,98
 682 826 682 826 660.5 820 c 0,99,100
 639 814 639 814 610 801 c 0,101,-1
 590 848 l 0,102,103
 662 890 662 890 727 913 c 0,104,105
 792 936 792 936 831 936 c 0,106,107
 848 936 848 936 863.5 933.5 c 0,108,109
 879 931 879 931 890.5 923 c 0,110,111
 902 915 902 915 909 900 c 0,112,113
 916 885 916 885 916 860 c 0,0,1
EndSplineSet
EndChar

StartChar: z
Encoding: 93 122 93
Width: 779
Flags: W
LayerCount: 2
Fore
SplineSet
779 881 m 0,0,1
 697 792 697 792 633.5 708 c 0,2,3
 570 624 570 624 510.5 538 c 0,4,5
 451 452 451 452 389 361.5 c 0,6,7
 327 271 327 271 248 170 c 0,8,9
 250 171 250 171 257 173 c 0,10,11
 265 176 265 176 276 179 c 0,12,13
 287 182 287 182 301 184 c 0,14,15
 315 186 315 186 330 186 c 0,16,17
 350 186 350 186 382.5 177 c 0,18,19
 415 168 415 168 452.5 156.5 c 0,20,21
 490 145 490 145 528.5 136 c 0,22,23
 567 127 567 127 600 127 c 0,24,25
 609 127 609 127 621.5 130 c 0,26,27
 634 133 634 133 649 144 c 0,28,29
 664 155 664 155 681.5 176.5 c 0,30,31
 699 198 699 198 719 236 c 0,32,-1
 762 211 l 0,33,34
 734 149 734 149 711.5 105 c 0,35,36
 689 61 689 61 663.5 33 c 0,37,38
 638 5 638 5 604.5 -7.5 c 0,39,40
 571 -20 571 -20 522 -20 c 0,41,42
 475 -20 475 -20 431.5 -9.5 c 0,43,44
 388 1 388 1 348.5 13.5 c 0,45,46
 309 26 309 26 274.5 36.5 c 0,47,48
 240 47 240 47 210 47 c 0,49,50
 194 47 194 47 176 42 c 0,51,52
 158 37 158 37 135.5 27 c 0,53,54
 113 17 113 17 84.5 2.5 c 0,55,56
 56 -12 56 -12 18 -31 c 0,57,-1
 -9 8 l 0,58,59
 41 68 41 68 93.5 138.5 c 0,60,61
 146 209 146 209 198 282.5 c 0,62,63
 250 356 250 356 300 429 c 0,64,65
 350 502 350 502 395 567 c 0,66,67
 440 632 440 632 478.5 685.5 c 0,68,69
 517 739 517 739 546 773 c 0,70,-1
 268 773 l 0,71,72
 244 773 244 773 227 768 c 0,73,74
 210 763 210 763 196 749 c 0,75,76
 182 735 182 735 169.5 709 c 0,77,78
 157 683 157 683 142 641 c 0,79,-1
 95 652 l 0,80,81
 114 742 114 742 134.5 817.5 c 0,82,83
 155 893 155 893 163 936 c 0,84,85
 182 931 182 931 207.5 923 c 0,86,87
 233 915 233 915 268 915 c 0,88,-1
 756 915 l 0,89,-1
 779 881 l 0,0,1
EndSplineSet
EndChar

StartChar: braceleft
Encoding: 94 123 94
Width: 657
Flags: W
LayerCount: 2
Fore
SplineSet
757 1542 m 0,0,1
 717 1518 717 1518 682 1488 c 0,2,3
 647 1458 647 1458 619.5 1422 c 0,4,5
 592 1386 592 1386 573 1344.5 c 0,6,7
 554 1303 554 1303 547 1256 c 0,8,9
 542 1218 542 1218 541 1189.5 c 0,10,11
 540 1161 540 1161 540.5 1136 c 0,12,13
 541 1111 541 1111 543 1089 c 0,14,15
 545 1067 545 1067 545.5 1042 c 0,16,17
 546 1017 546 1017 544.5 988 c 0,18,19
 543 959 543 959 538 922 c 0,20,21
 532 880 532 880 514.5 840 c 0,22,23
 497 800 497 800 470 764.5 c 0,24,25
 443 729 443 729 407 700 c 0,26,27
 371 671 371 671 329 653 c 0,28,29
 420 635 420 635 449.5 565 c 0,30,31
 479 495 479 495 463 385 c 0,32,33
 455 327 455 327 443 283.5 c 0,34,35
 431 240 431 240 418.5 201.5 c 0,36,37
 406 163 406 163 395 124.5 c 0,38,39
 384 86 384 86 377 38 c 0,40,41
 370 -13 370 -13 371 -52 c 0,42,43
 372 -91 372 -91 385 -124 c 0,44,45
 398 -157 398 -157 425 -186 c 0,46,47
 452 -215 452 -215 497 -244 c 0,48,-1
 463 -315 l 0,49,50
 387 -281 387 -281 332.5 -244.5 c 0,51,52
 278 -208 278 -208 245 -163 c 0,53,54
 212 -118 212 -118 200.5 -61.5 c 0,55,56
 189 -5 189 -5 199 67 c 0,57,58
 207 124 207 124 218.5 164 c 0,59,60
 230 204 230 204 242.5 241 c 0,61,62
 255 278 255 278 266.5 320 c 0,63,64
 278 362 278 362 287 422 c 0,65,66
 298 503 298 503 267.5 542 c 0,67,68
 237 581 237 581 171 581 c 0,69,-1
 152 581 l 0,70,71
 146 581 146 581 141 580.5 c 0,72,73
 136 580 136 580 129.5 578.5 c 0,74,75
 123 577 123 577 110 575 c 0,76,-1
 102 638 l 0,77,78
 215 669 215 669 276 728 c 0,79,80
 337 787 337 787 348 862 c 0,81,82
 353 901 353 901 354.5 930.5 c 0,83,84
 356 960 356 960 355 984 c 0,85,86
 354 1008 354 1008 352.5 1029.5 c 0,87,88
 351 1051 351 1051 350 1075.5 c 0,89,90
 349 1100 349 1100 350.5 1129.5 c 0,91,92
 352 1159 352 1159 358 1199 c 0,93,94
 367 1266 367 1266 398.5 1324.5 c 0,95,96
 430 1383 430 1383 479 1432.5 c 0,97,98
 528 1482 528 1482 593.5 1523.5 c 0,99,100
 659 1565 659 1565 736 1599 c 0,101,-1
 757 1542 l 0,0,1
EndSplineSet
EndChar

StartChar: bar
Encoding: 95 124 95
Width: 420
Flags: W
LayerCount: 2
Fore
SplineSet
182 -281 m 0,0,1
 172 -288 172 -288 158 -296 c 0,2,3
 144 -304 144 -304 128.5 -311.5 c 0,4,5
 113 -319 113 -319 97.5 -325.5 c 0,6,7
 82 -332 82 -332 70 -336 c 0,8,-1
 38 -309 l 0,9,-1
 300 1546 l 0,10,11
 328 1563 328 1563 355 1577 c 0,12,13
 382 1591 382 1591 411 1599 c 0,14,-1
 443 1575 l 0,15,-1
 182 -281 l 0,0,1
EndSplineSet
EndChar

StartChar: braceright
Encoding: 96 125 96
Width: 656
Flags: W
LayerCount: 2
Fore
SplineSet
572 646 m 0,0,1
 460 615 460 615 398.5 556.5 c 0,2,3
 337 498 337 498 326 422 c 0,4,5
 321 383 321 383 319.5 354 c 0,6,7
 318 325 318 325 319 300.5 c 0,8,9
 320 276 320 276 322 254.5 c 0,10,11
 324 233 324 233 325 209 c 0,12,13
 326 185 326 185 324.5 155.5 c 0,14,15
 323 126 323 126 318 86 c 0,16,17
 308 18 308 18 276 -40 c 0,18,19
 244 -98 244 -98 194.5 -148 c 0,20,21
 145 -198 145 -198 80 -239.5 c 0,22,23
 15 -281 15 -281 -61 -315 c 0,24,-1
 -82 -257 l 0,25,26
 -42 -233 -42 -233 -7 -203 c 0,27,28
 28 -173 28 -173 55.5 -137 c 0,29,30
 83 -101 83 -101 101.5 -59.5 c 0,31,32
 120 -18 120 -18 126 29 c 0,33,34
 134 85 134 85 134 123 c 0,35,36
 134 161 134 161 132 195.5 c 0,37,38
 130 230 130 230 129 268.5 c 0,39,40
 128 307 128 307 136 364 c 0,41,42
 142 405 142 405 160 445 c 0,43,44
 178 485 178 485 205 520.5 c 0,45,46
 232 556 232 556 268 584.5 c 0,47,48
 304 613 304 613 346 631 c 0,49,50
 255 651 255 651 226 720 c 0,51,52
 197 789 197 789 212 901 c 0,53,54
 220 958 220 958 232 1001.5 c 0,55,56
 244 1045 244 1045 256 1083.5 c 0,57,58
 268 1122 268 1122 279 1160.5 c 0,59,60
 290 1199 290 1199 296 1246 c 0,61,62
 304 1297 304 1297 303 1337 c 0,63,64
 302 1377 302 1377 289 1410 c 0,65,66
 276 1443 276 1443 248.5 1471 c 0,67,68
 221 1499 221 1499 176 1528 c 0,69,-1
 213 1599 l 0,70,71
 289 1566 289 1566 343.5 1529.5 c 0,72,73
 398 1493 398 1493 430.5 1448 c 0,74,75
 463 1403 463 1403 474.5 1347 c 0,76,77
 486 1291 486 1291 476 1219 c 0,78,79
 468 1162 468 1162 456.5 1122 c 0,80,81
 445 1082 445 1082 432.5 1044.5 c 0,82,83
 420 1007 420 1007 408.5 965.5 c 0,84,85
 397 924 397 924 389 864 c 0,86,87
 377 783 377 783 407.5 744 c 0,88,89
 438 705 438 705 504 705 c 0,90,-1
 533 705 l 0,91,92
 538 705 538 705 544.5 706.5 c 0,93,94
 551 708 551 708 566 711 c 0,95,-1
 572 646 l 0,0,1
EndSplineSet
EndChar

StartChar: asciitilde
Encoding: 97 126 97
Width: 983
Flags: W
LayerCount: 2
Fore
SplineSet
959 774 m 0,0,1
 933 725 933 725 896 672.5 c 0,2,3
 859 620 859 620 816 576.5 c 0,4,5
 773 533 773 533 727.5 505 c 0,6,7
 682 477 682 477 638 477 c 0,8,9
 598 477 598 477 557.5 502 c 0,10,11
 517 527 517 527 476.5 557 c 0,12,13
 436 587 436 587 395 612 c 0,14,15
 354 637 354 637 314 637 c 0,16,17
 268 637 268 637 224 598 c 0,18,19
 180 559 180 559 130 475 c 0,20,-1
 85 502 l 0,21,22
 111 551 111 551 148 603.5 c 0,23,24
 185 656 185 656 228 699.5 c 0,25,26
 271 743 271 743 316.5 771 c 0,27,28
 362 799 362 799 406 799 c 0,29,30
 449 799 449 799 490.5 774 c 0,31,32
 532 749 532 749 572.5 719 c 0,33,34
 613 689 613 689 651.5 664 c 0,35,36
 690 639 690 639 728 639 c 0,37,38
 773 639 773 639 818 678 c 0,39,40
 863 717 863 717 914 799 c 0,41,-1
 959 774 l 0,0,1
EndSplineSet
EndChar

StartChar: exclam.taml
Encoding: 99 -1 99
Width: 917
Flags: W
LayerCount: 2
Fore
SplineSet
784 1290 m 0,0,1
 874 1290 874 1290 874 1182 c 0,2,3
 874 1143 874 1143 869 1119.5 c 128,-1,4
 864 1096 864 1096 862 1085 c 0,5,6
 766 809 766 809 664 504 c 0,7,8
 627 393 627 393 567 211 c 1,9,-1
 549 211 l 1,10,11
 574 391 574 391 584 502 c 0,12,13
 621 842 621 842 621 1087 c 0,14,15
 621 1173 621 1173 667.5 1234.5 c 128,-1,16
 714 1296 714 1296 784 1290 c 0,0,1
516 31 m 0,17,18
 567 31 567 31 592.5 0 c 128,-1,19
 618 -31 618 -31 608 -82 c 256,20,21
 598 -133 598 -133 560 -169 c 128,-1,22
 522 -205 522 -205 471 -205 c 0,23,24
 424 -205 424 -205 397.5 -169 c 128,-1,25
 371 -133 371 -133 381 -82 c 0,26,27
 391 -37 391 -37 431 -3 c 128,-1,28
 471 31 471 31 516 31 c 0,17,18
EndSplineSet
EndChar

StartChar: quoteleft.taml
Encoding: 100 -1 100
Width: 716
Flags: W
LayerCount: 2
Fore
SplineSet
903 1858 m 1,0,1
 731 1805 731 1805 616 1667 c 0,2,3
 514 1544 514 1544 547 1516 c 0,4,5
 561 1506 561 1506 578 1505 c 0,6,7
 586 1505 586 1505 657 1542 c 0,8,9
 688 1558 688 1558 717 1559 c 0,10,11
 748 1559 748 1559 766 1542 c 0,12,13
 819 1499 819 1499 819 1419 c 0,14,15
 819 1345 819 1345 768 1286 c 0,16,17
 709 1212 709 1212 604 1212 c 0,18,19
 573 1212 573 1212 529 1217.5 c 128,-1,20
 485 1223 485 1223 452.5 1277 c 128,-1,21
 420 1331 420 1331 420 1411 c 0,22,23
 420 1479 420 1479 449 1544 c 0,24,25
 535 1747 535 1747 733 1864 c 0,26,27
 799 1901 799 1901 915 1939 c 1,28,-1
 903 1858 l 1,0,1
EndSplineSet
EndChar

StartChar: u20A8
Encoding: 101 8360 101
Width: 2293
Flags: W
LayerCount: 2
Fore
SplineSet
2046 246 m 0,0,1
 2023 135 2023 135 1923 59.5 c 128,-1,2
 1823 -16 1823 -16 1712 -16 c 0,3,4
 1661 -16 1661 -16 1581 0 c 128,-1,5
 1501 16 1501 16 1483 16 c 0,6,7
 1454 16 1454 16 1438 -2 c 1,8,-1
 1497 287 l 1,9,10
 1499 135 1499 135 1561 74 c 0,11,12
 1614 21 1614 21 1718 20 c 0,13,14
 1779 20 1779 20 1841 67.5 c 128,-1,15
 1903 115 1903 115 1913 168 c 0,16,17
 1915 176 1915 176 1915 185.5 c 128,-1,18
 1915 195 1915 195 1915 197 c 0,19,20
 1915 254 1915 254 1858 305 c 0,21,22
 1819 342 1819 342 1729 389 c 0,23,24
 1647 440 1647 440 1636 449 c 0,25,26
 1562 506 1562 506 1563 582 c 0,27,28
 1563 615 1563 615 1567 633 c 0,29,30
 1585 737 1585 737 1668 802.5 c 128,-1,31
 1751 868 1751 868 1855 868 c 0,32,33
 1906 868 1906 868 1947.5 860 c 128,-1,34
 1989 852 1989 852 2040 844 c 0,35,36
 2073 844 2073 844 2087 868 c 1,37,-1
 2114 868 l 1,38,-1
 2058 600 l 1,39,-1
 2034 600 l 1,40,41
 2034 733 2034 733 1989 787.5 c 128,-1,42
 1944 842 1944 842 1843 842 c 0,43,44
 1784 842 1784 842 1729.5 806 c 128,-1,45
 1675 770 1675 770 1668 736 c 128,-1,46
 1661 702 1661 702 1661 680 c 0,47,48
 1661 606 1661 606 1755 549 c 0,49,50
 1786 531 1786 531 1868 487 c 0,51,52
 1958 434 1958 434 1987 406 c 0,53,54
 2044 353 2044 353 2044 281 c 0,55,56
 2044 271 2044 271 2046 246 c 0,0,1
1276 8 m 1,57,-1
 948 8 l 1,58,-1
 643 614 l 1,59,-1
 496 610 l 1,60,-1
 410 227 l 2,61,62
 406 196 406 196 401.5 174 c 128,-1,63
 397 152 397 152 397 125 c 0,64,65
 397 68 397 68 420.5 56.5 c 128,-1,66
 444 45 444 45 512 45 c 2,67,-1
 555 45 l 1,68,-1
 551 14 l 1,69,-1
 27 14 l 1,70,-1
 31 45 l 1,71,-1
 59 45 l 2,72,73
 141 45 141 45 172 68 c 0,74,75
 223 105 223 105 250 229 c 2,76,-1
 426 1071 l 2,77,78
 436 1116 436 1116 436 1155 c 0,79,80
 436 1212 436 1212 407.5 1226.5 c 128,-1,81
 379 1241 379 1241 307 1241 c 2,82,-1
 274 1239 l 1,83,-1
 283 1276 l 1,84,-1
 735 1276 l 2,85,86
 975 1276 975 1276 1090.5 1225 c 128,-1,87
 1206 1174 1206 1174 1206 1042 c 0,88,89
 1206 1009 1206 1009 1198 967 c 0,90,91
 1173 852 1173 852 1085 772 c 0,92,93
 983 678 983 678 807 639 c 1,94,95
 897 459 897 459 944 371 c 0,96,97
 1089 97 1089 97 1118 82 c 0,98,99
 1141 66 1141 66 1189 56.5 c 128,-1,100
 1237 47 1237 47 1276 43 c 1,101,-1
 1276 8 l 1,57,-1
1001 942 m 0,102,103
 1009 975 1009 975 1010 1012 c 0,104,105
 1010 1108 1010 1108 956 1161 c 0,106,107
 890 1227 890 1227 752 1227 c 0,108,109
 705 1227 705 1227 618 1212 c 1,110,-1
 502 668 l 1,111,112
 518 666 518 666 534.5 666 c 128,-1,113
 551 666 551 666 569 666 c 0,114,115
 735 666 735 666 856.5 745.5 c 128,-1,116
 978 825 978 825 1001 942 c 0,102,103
EndSplineSet
EndChar

StartChar: percent.taml
Encoding: 102 -1 102
Width: 1665
Flags: W
LayerCount: 2
Fore
SplineSet
1524 449 m 0,0,1
 1481 240 1481 240 1362 131 c 0,2,3
 1262 41 1262 41 1151 41 c 0,4,5
 1104 41 1104 41 1077 51 c 0,6,7
 977 90 977 90 977 244 c 0,8,9
 977 299 977 299 993 381 c 0,10,11
 1030 553 1030 553 1114 662 c 0,12,13
 1229 805 1229 805 1360 805 c 0,14,15
 1432 805 1432 805 1477 766 c 0,16,17
 1543 709 1543 709 1542 590 c 0,18,19
 1542 531 1542 531 1524 449 c 0,0,1
1528 1442 m 1,20,-1
 406 33 l 1,21,-1
 291 33 l 1,22,-1
 1411 1442 l 1,23,-1
 1528 1442 l 1,20,-1
842 1096 m 0,24,25
 805 926 805 926 719 817 c 0,26,27
 604 674 604 674 473 674 c 0,28,29
 401 674 401 674 356 713 c 0,30,31
 290 770 290 770 291 889 c 0,32,33
 291 948 291 948 307 1030 c 0,34,35
 350 1239 350 1239 469 1348 c 0,36,37
 569 1438 569 1438 680 1438 c 0,38,39
 727 1438 727 1438 756 1427 c 0,40,41
 856 1388 856 1388 856 1235 c 0,42,43
 856 1178 856 1178 842 1096 c 0,24,25
1384 338 m 0,44,45
 1400 420 1400 420 1401 479 c 0,46,47
 1401 569 1401 569 1360 614 c 128,-1,48
 1319 659 1319 659 1260 659 c 0,49,50
 1164 659 1164 659 1133 516 c 0,51,52
 1117 430 1117 430 1116 369 c 0,53,54
 1116 179 1116 179 1264 178 c 0,55,56
 1351 178 1351 178 1384 338 c 0,44,45
696 954 m 0,57,58
 712 1040 712 1040 713 1102 c 0,59,60
 713 1292 713 1292 565 1292 c 0,61,62
 477 1292 477 1292 444 1135 c 0,63,64
 428 1053 428 1053 428 995 c 0,65,66
 428 901 428 901 469 856 c 128,-1,67
 510 811 510 811 571 811 c 0,68,69
 667 811 667 811 696 954 c 0,57,58
EndSplineSet
EndChar

StartChar: ampersand.taml
Encoding: 103 -1 103
Width: 1447
Flags: W
LayerCount: 2
Fore
SplineSet
1122 819 m 1,0,-1
 1499 819 l 1,1,-1
 1491 786 l 1,2,3
 1423 786 1423 786 1370 754 c 0,4,5
 1337 729 1337 729 1292 678 c 0,6,7
 1278 662 1278 662 1221 586 c 0,8,9
 1127 459 1127 459 983 315 c 1,10,11
 1012 270 1012 270 1038.5 240.5 c 128,-1,12
 1065 211 1065 211 1098 186 c 0,13,14
 1155 149 1155 149 1214 150 c 0,15,16
 1343 150 1343 150 1409 283 c 1,17,-1
 1440 258 l 1,18,19
 1381 135 1381 135 1297.5 72.5 c 128,-1,20
 1214 10 1214 10 1114 10 c 0,21,22
 1046 10 1046 10 967 49 c 0,23,24
 934 67 934 67 901 100 c 128,-1,25
 868 133 868 133 829 184 c 1,26,27
 710 96 710 96 595.5 51 c 128,-1,28
 481 6 481 6 393 6 c 0,29,30
 256 6 256 6 180 90 c 0,31,32
 129 149 129 149 129 229 c 0,33,34
 129 352 129 352 258 494 c 0,35,36
 356 603 356 603 602 719 c 1,37,38
 577 836 577 836 578 901 c 0,39,40
 578 940 578 940 586 987 c 0,41,42
 615 1120 615 1120 723 1201 c 128,-1,43
 831 1282 831 1282 965 1282 c 0,44,45
 1053 1282 1053 1282 1110 1234 c 128,-1,46
 1167 1186 1167 1186 1167 1110 c 0,47,48
 1167 1096 1167 1096 1163 1067 c 0,49,50
 1145 973 1145 973 1065 900 c 128,-1,51
 985 827 985 827 797 739 c 1,52,53
 840 620 840 620 875.5 536.5 c 128,-1,54
 911 453 911 453 958 367 c 1,55,56
 1146 553 1146 553 1184 686 c 1,57,58
 1200 776 1200 776 1120 786 c 1,59,-1
 1122 819 l 1,0,-1
778 797 m 1,60,61
 907 854 907 854 973.5 916.5 c 128,-1,62
 1040 979 1040 979 1057 1067 c 0,63,64
 1059 1077 1059 1077 1059 1100 c 0,65,66
 1059 1151 1059 1151 1029 1184 c 128,-1,67
 999 1217 999 1217 952 1217 c 0,68,69
 878 1217 878 1217 821 1163 c 0,70,71
 776 1118 776 1118 764 1067 c 128,-1,72
 752 1016 752 1016 752 977 c 0,73,74
 751 916 751 916 778 797 c 1,60,61
797 227 m 1,75,76
 725 370 725 370 688 460.5 c 128,-1,77
 651 551 651 551 621 653 c 1,78,79
 553 616 553 616 512 587.5 c 128,-1,80
 471 559 471 559 432 516 c 0,81,82
 342 418 342 418 342 301 c 0,83,84
 342 240 342 240 371 186 c 0,85,86
 396 149 396 149 431.5 127.5 c 128,-1,87
 467 106 467 106 512 106 c 0,88,89
 563 106 563 106 637 137 c 128,-1,90
 711 168 711 168 797 227 c 1,75,76
EndSplineSet
EndChar

StartChar: quoteright.taml
Encoding: 104 -1 104
Width: 716
Flags: W
LayerCount: 2
Fore
SplineSet
764 1577 m 0,0,1
 678 1374 678 1374 479 1257 c 0,2,3
 413 1220 413 1220 297 1182 c 1,4,-1
 315 1264 l 1,5,6
 485 1317 485 1317 600 1454 c 0,7,8
 700 1577 700 1577 668 1606 c 0,9,10
 654 1616 654 1616 637 1616 c 0,11,12
 629 1616 629 1616 557 1579 c 0,13,14
 526 1563 526 1563 498 1563 c 0,15,16
 467 1563 467 1563 449 1579 c 0,17,18
 396 1622 396 1622 395 1702 c 0,19,20
 395 1776 395 1776 446 1835 c 0,21,22
 479 1874 479 1874 522 1890.5 c 128,-1,23
 565 1907 565 1907 612 1907 c 0,24,25
 643 1907 643 1907 686 1901.5 c 128,-1,26
 729 1896 729 1896 762 1842 c 128,-1,27
 795 1788 795 1788 795 1708 c 0,28,29
 795 1640 795 1640 764 1577 c 0,0,1
EndSplineSet
EndChar

StartChar: parenleft.taml
Encoding: 105 -1 105
Width: 802
Flags: W
LayerCount: 2
Fore
SplineSet
713 -705 m 1,0,-1
 690 -723 l 1,1,2
 452 -576 452 -576 336.5 -340 c 128,-1,3
 221 -104 221 -104 221 193 c 0,4,5
 221 369 221 369 258 537 c 0,6,7
 344 940 344 940 582 1264 c 0,8,9
 836 1608 836 1608 1227 1804 c 1,10,-1
 1241 1788 l 1,11,12
 881 1544 881 1544 656.5 1064 c 128,-1,13
 432 584 432 584 432 109 c 0,14,15
 432 -149 432 -149 501 -357.5 c 128,-1,16
 570 -566 570 -566 713 -705 c 1,0,-1
EndSplineSet
EndChar

StartChar: parenright.taml
Encoding: 106 -1 106
Width: 802
Flags: W
LayerCount: 2
Fore
SplineSet
659 541 m 0,0,1
 573 138 573 138 336 -182 c 0,2,3
 82 -524 82 -524 -309 -721 c 1,4,-1
 -319 -702 l 1,5,6
 54 -440 54 -440 276 51 c 0,7,8
 487 514 487 514 487 983 c 0,9,10
 487 1243 487 1243 418.5 1448 c 128,-1,11
 350 1653 350 1653 211 1790 c 1,12,-1
 229 1806 l 1,13,14
 462 1654 462 1654 579 1414 c 128,-1,15
 696 1174 696 1174 696 885 c 0,16,17
 696 709 696 709 659 541 c 0,0,1
EndSplineSet
EndChar

StartChar: asterisk.taml
Encoding: 107 -1 107
Width: 1720
Flags: W
LayerCount: 2
Fore
SplineSet
1083 1149 m 1,0,1
 1015 1112 1015 1112 950 1059 c 0,2,3
 868 991 868 991 788 924 c 0,4,5
 757 901 757 901 725 901 c 0,6,7
 674 901 674 901 659 944 c 0,8,9
 645 977 645 977 667.5 1017 c 128,-1,10
 690 1057 690 1057 723 1068 c 128,-1,11
 756 1079 756 1079 924 1122 c 0,12,13
 1014 1145 1014 1145 1073 1176 c 1,14,15
 1034 1199 1034 1199 981 1214 c 0,16,17
 879 1243 879 1243 778 1274 c 0,18,19
 735 1288 735 1288 735 1341 c 0,20,21
 735 1370 735 1370 754 1403 c 1,22,23
 793 1446 793 1446 846 1446 c 0,24,25
 877 1446 877 1446 893 1427 c 0,26,27
 973 1323 973 1323 997 1290 c 0,28,29
 1040 1233 1040 1233 1092 1196 c 1,30,31
 1096 1225 1096 1225 1096 1254.5 c 128,-1,32
 1096 1284 1096 1284 1096 1300 c 0,33,34
 1096 1333 1096 1333 1094 1420 c 128,-1,35
 1092 1507 1092 1507 1092 1530 c 0,36,37
 1110 1632 1110 1632 1198 1632 c 0,38,39
 1264 1632 1264 1632 1264 1552 c 0,40,41
 1264 1536 1264 1536 1262 1528 c 0,42,43
 1219 1438 1219 1438 1190 1380 c 0,44,45
 1137 1269 1137 1269 1120 1202 c 1,46,47
 1194 1241 1194 1241 1290 1321 c 0,48,49
 1356 1374 1356 1374 1421 1427 c 0,50,51
 1444 1441 1444 1441 1473 1442 c 0,52,53
 1526 1442 1526 1442 1544 1403 c 0,54,55
 1554 1364 1554 1364 1530.5 1324 c 128,-1,56
 1507 1284 1507 1284 1484.5 1279 c 128,-1,57
 1462 1274 1462 1274 1274 1229 c 0,58,59
 1194 1211 1194 1211 1126 1180 c 1,60,61
 1177 1149 1177 1149 1257 1125.5 c 128,-1,62
 1337 1102 1337 1102 1425 1077 c 0,63,64
 1468 1063 1468 1063 1468 1012 c 0,65,66
 1468 983 1468 983 1450 954 c 0,67,68
 1413 909 1413 909 1356 909 c 0,69,70
 1331 909 1331 909 1315 928 c 0,71,72
 1286 959 1286 959 1206 1055 c 0,73,74
 1155 1116 1155 1116 1110 1147 c 1,75,76
 1102 1092 1102 1092 1102 1049 c 0,77,78
 1102 1010 1102 1010 1106 929 c 128,-1,79
 1110 848 1110 848 1110 823 c 0,80,81
 1102 780 1102 780 1073 749.5 c 128,-1,82
 1044 719 1044 719 1008 719 c 0,83,84
 936 719 936 719 936 799 c 0,85,86
 936 815 936 815 938 823 c 0,87,88
 969 895 969 895 1020 1006 c 0,89,90
 1063 1094 1063 1094 1083 1149 c 1,0,1
EndSplineSet
EndChar

StartChar: plus.taml
Encoding: 108 -1 108
Width: 1204
Flags: W
LayerCount: 2
Fore
SplineSet
662 741 m 1,0,-1
 707 956 l 1,1,-1
 901 956 l 1,2,-1
 856 741 l 1,3,-1
 1071 741 l 1,4,-1
 1032 547 l 1,5,-1
 819 547 l 1,6,-1
 774 332 l 1,7,-1
 580 332 l 1,8,-1
 625 547 l 1,9,-1
 412 547 l 1,10,-1
 451 741 l 1,11,-1
 662 741 l 1,0,-1
EndSplineSet
EndChar

StartChar: comma.taml
Encoding: 109 -1 109
Width: 630
Flags: W
LayerCount: 2
Fore
SplineSet
461 96 m 0,0,1
 428 -66 428 -66 289 -184 c 0,2,3
 107 -342 107 -342 -4 -342 c 1,4,-1
 12 -266 l 1,5,6
 63 -266 63 -266 182 -178 c 0,7,8
 327 -74 327 -74 350 37 c 0,9,10
 354 70 354 70 324 70 c 0,11,12
 306 70 306 70 257.5 43 c 128,-1,13
 209 16 209 16 186 16 c 0,14,15
 147 16 147 16 116.5 59 c 128,-1,16
 86 102 86 102 86 160 c 0,17,18
 86 178 86 178 88 186 c 0,19,20
 102 252 102 252 164.5 303 c 128,-1,21
 227 354 227 354 289 354 c 0,22,23
 375 354 375 354 422 295 c 128,-1,24
 469 236 469 236 469 150 c 0,25,26
 469 133 469 133 461 96 c 0,0,1
EndSplineSet
EndChar

StartChar: hyphen.taml
Encoding: 110 -1 110
Width: 1146
Flags: W
LayerCount: 2
Fore
SplineSet
1006 547 m 1,0,-1
 203 547 l 1,1,-1
 242 748 l 1,2,-1
 1042 748 l 1,3,-1
 1006 547 l 1,0,-1
EndSplineSet
EndChar

StartChar: period.taml
Encoding: 111 -1 111
Width: 630
Flags: W
LayerCount: 2
Fore
SplineSet
475 176 m 0,0,1
 461 102 461 102 395.5 51 c 128,-1,2
 330 0 330 0 256 0 c 0,3,4
 195 0 195 0 155 40 c 128,-1,5
 115 80 115 80 115 141 c 0,6,7
 115 164 115 164 117 174 c 0,8,9
 129 248 129 248 191.5 299 c 128,-1,10
 254 350 254 350 328 350 c 0,11,12
 394 350 394 350 434.5 309 c 128,-1,13
 475 268 475 268 475 207 c 0,14,15
 475 188 475 188 475 176 c 0,0,1
EndSplineSet
EndChar

StartChar: uni2215
Encoding: 113 8725 113
Width: 745
Flags: W
LayerCount: 2
Fore
SplineSet
1120 1759 m 1,0,-1
 2 -270 l 1,1,-1
 -111 -270 l 1,2,-1
 1010 1759 l 1,3,-1
 1120 1759 l 1,0,-1
EndSplineSet
EndChar

StartChar: zero.taml
Encoding: 114 -1 114
Width: 950
Flags: W
LayerCount: 2
Fore
SplineSet
1042 631 m 0,0,1
 995 398 995 398 872 221 c 0,2,3
 704 -21 704 -21 473 -20 c 0,4,5
 305 -20 305 -20 225 113 c 0,6,7
 159 224 159 224 160 403 c 0,8,9
 160 477 160 477 165 518 c 128,-1,10
 170 559 170 559 184 631 c 0,11,12
 235 862 235 862 354 1042 c 0,13,14
 520 1288 520 1288 752 1288 c 0,15,16
 924 1288 924 1288 1004 1155 c 0,17,18
 1070 1044 1070 1044 1069 862 c 0,19,20
 1069 786 1069 786 1063.5 745.5 c 128,-1,21
 1058 705 1058 705 1042 631 c 0,0,1
862 637 m 0,22,23
 880 737 880 737 889.5 828.5 c 128,-1,24
 899 920 899 920 899 965 c 0,25,26
 899 1090 899 1090 865 1165.5 c 128,-1,27
 831 1241 831 1241 741 1241 c 0,28,29
 622 1241 622 1241 524 1081.5 c 128,-1,30
 426 922 426 922 369 635 c 0,31,32
 353 559 353 559 338.5 466 c 128,-1,33
 324 373 324 373 324 297 c 0,34,35
 324 174 324 174 359.5 103.5 c 128,-1,36
 395 33 395 33 485 33 c 0,37,38
 643 33 643 33 754 279 c 0,39,40
 813 412 813 412 862 637 c 0,22,23
EndSplineSet
EndChar

StartChar: one.taml
Encoding: 115 -1 115
Width: 950
Flags: W
LayerCount: 2
Fore
SplineSet
223 0 m 1,0,-1
 227 29 l 1,1,2
 327 29 327 29 365 47 c 0,3,4
 422 78 422 78 440 174 c 2,5,-1
 623 1036 l 2,6,7
 627 1063 627 1063 627 1079 c 0,8,9
 627 1120 627 1120 575 1120 c 0,10,11
 552 1120 552 1120 543 1118 c 0,12,13
 498 1102 498 1102 442 1083 c 1,14,-1
 446 1108 l 1,15,-1
 827 1282 l 1,16,-1
 838 1278 l 1,17,-1
 594 135 l 2,18,19
 592 125 592 125 592 113.5 c 128,-1,20
 592 102 592 102 592 98 c 0,21,22
 592 55 592 55 624.5 41 c 128,-1,23
 657 27 657 27 752 27 c 1,24,-1
 748 -2 l 1,25,-1
 223 0 l 1,0,-1
EndSplineSet
EndChar

StartChar: two.taml
Encoding: 116 -1 116
Width: 950
Flags: W
LayerCount: 2
Fore
SplineSet
958 260 m 1,0,-1
 799 0 l 1,1,-1
 57 0 l 1,2,-1
 61 23 l 1,3,-1
 473 383 l 2,4,5
 778 645 778 645 825 870 c 0,6,7
 829 909 829 909 829 934 c 0,8,9
 829 1022 829 1022 791 1069 c 0,10,11
 738 1137 738 1137 612 1137 c 0,12,13
 497 1137 497 1137 410 1055 c 0,14,15
 357 1004 357 1004 291 893 c 1,16,-1
 252 901 l 1,17,18
 334 1102 334 1102 473 1198 c 0,19,20
 592 1280 592 1280 735 1280 c 0,21,22
 852 1280 852 1280 932 1208.5 c 128,-1,23
 1012 1137 1012 1137 1012 1014 c 0,24,25
 1012 977 1012 977 1004 938 c 0,26,27
 975 807 975 807 856 664 c 0,28,29
 795 590 795 590 666 475 c 2,30,-1
 274 141 l 1,31,-1
 729 141 l 2,32,33
 801 141 801 141 839 170 c 128,-1,34
 877 199 877 199 934 264 c 1,35,-1
 958 260 l 1,0,-1
EndSplineSet
EndChar

StartChar: three.taml
Encoding: 117 -1 117
Width: 950
Flags: W
LayerCount: 2
Fore
SplineSet
911 412 m 1,0,1
 868 211 868 211 694 92 c 128,-1,2
 520 -27 520 -27 291 -27 c 0,3,4
 215 -27 215 -27 172 -12 c 0,5,6
 90 13 90 13 104 80 c 0,7,8
 112 113 112 113 139 128 c 128,-1,9
 166 143 166 143 190 143 c 0,10,11
 221 143 221 143 332 72 c 0,12,13
 389 35 389 35 434 35 c 0,14,15
 559 35 559 35 647 125 c 0,16,17
 727 205 727 205 752 328 c 0,18,19
 756 357 756 357 756 381 c 0,20,21
 756 475 756 475 696 535 c 0,22,23
 610 621 610 621 420 621 c 1,24,-1
 424 645 l 1,25,26
 582 688 582 688 670 756 c 0,27,28
 779 838 779 838 803 963 c 0,29,30
 807 996 807 996 807 1010 c 0,31,32
 807 1071 807 1071 764 1114 c 128,-1,33
 721 1157 721 1157 639 1157 c 0,34,35
 524 1157 524 1157 424 1077 c 0,36,37
 365 1030 365 1030 313 956 c 1,38,-1
 289 965 l 1,39,40
 375 1131 375 1131 508 1210 c 0,41,42
 612 1271 612 1271 723 1272 c 0,43,44
 862 1272 862 1272 924 1200 c 0,45,46
 969 1147 969 1147 969 1061 c 0,47,48
 969 1030 969 1030 967 1016 c 0,49,50
 951 936 951 936 896.5 874.5 c 128,-1,51
 842 813 842 813 731 752 c 1,52,53
 807 715 807 715 840 682 c 0,54,55
 908 610 908 610 907 500 c 0,56,57
 907 477 907 477 907 455 c 0,58,59
 899 422 899 422 911 412 c 1,0,1
EndSplineSet
EndChar

StartChar: four.taml
Encoding: 118 -1 118
Width: 950
Flags: W
LayerCount: 2
Fore
SplineSet
993 440 m 1,0,-1
 969 317 l 1,1,-1
 774 317 l 1,2,-1
 707 0 l 1,3,-1
 561 0 l 1,4,-1
 629 317 l 1,5,-1
 94 317 l 1,6,-1
 119 440 l 1,7,-1
 897 1288 l 1,8,-1
 979 1288 l 1,9,-1
 799 440 l 1,10,-1
 993 440 l 1,0,-1
651 440 m 1,11,-1
 788 1087 l 1,12,-1
 803 1087 l 2,13,14
 795 1087 795 1087 641 922 c 0,15,16
 502 770 502 770 354 610 c 0,17,18
 278 524 278 524 203 442 c 1,19,-1
 651 440 l 1,11,-1
EndSplineSet
EndChar

StartChar: five.taml
Encoding: 119 -1 119
Width: 950
Flags: W
LayerCount: 2
Fore
SplineSet
578 1112 m 1,0,-1
 465 950 l 1,1,2
 621 925 621 925 688 897 c 0,3,4
 807 850 807 850 862.5 759 c 128,-1,5
 918 668 918 668 918 592 c 0,6,7
 918 531 918 531 899 440 c 0,8,9
 856 245 856 245 687 115.5 c 128,-1,10
 518 -14 518 -14 293 -14 c 0,11,12
 182 -14 182 -14 125 16.5 c 128,-1,13
 68 47 68 47 78 98 c 0,14,15
 82 131 82 131 104.5 150.5 c 128,-1,16
 127 170 127 170 166 170 c 0,17,18
 223 170 223 170 324 90 c 0,19,20
 371 51 371 51 414 51 c 0,21,22
 516 51 516 51 610 133 c 0,23,24
 714 227 714 227 748 389 c 0,25,26
 756 432 756 432 756 469 c 0,27,28
 756 629 756 629 594 717 c 0,29,30
 461 789 461 789 293 788 c 0,31,32
 285 788 285 788 283 793.5 c 128,-1,33
 281 799 281 799 289 813 c 2,34,-1
 594 1262 l 1,35,-1
 991 1262 l 1,36,-1
 1022 1262 l 2,37,38
 1047 1264 1047 1264 1079 1282 c 0,39,40
 1083 1284 1083 1284 1094 1294 c 2,41,-1
 989 1126 l 2,42,43
 975 1110 975 1110 942 1110 c 2,44,-1
 578 1112 l 1,0,-1
EndSplineSet
EndChar

StartChar: six.taml
Encoding: 120 -1 120
Width: 950
Flags: W
LayerCount: 2
Fore
SplineSet
1128 1305 m 1,0,-1
 1124 1274 l 1,1,2
 880 1237 880 1237 686 1071 c 0,3,4
 518 926 518 926 449 735 c 1,5,6
 545 786 545 786 595 802.5 c 128,-1,7
 645 819 645 819 719 819 c 0,8,9
 844 819 844 819 919.5 743.5 c 128,-1,10
 995 668 995 668 995 537 c 0,11,12
 995 492 995 492 981 422 c 0,13,14
 948 268 948 268 850 152 c 0,15,16
 707 -16 707 -16 483 -16 c 0,17,18
 340 -16 340 -16 258 72 c 0,19,20
 168 172 168 172 168 356 c 0,21,22
 168 430 168 430 172 463 c 128,-1,23
 176 496 176 496 190 561 c 0,24,25
 251 858 251 858 518 1077 c 0,26,27
 794 1307 794 1307 1128 1305 c 1,0,-1
621 731 m 0,28,29
 564 731 564 731 516.5 719 c 128,-1,30
 469 707 469 707 430 674 c 0,31,32
 407 658 407 658 388 616.5 c 128,-1,33
 369 575 369 575 350.5 487 c 128,-1,34
 332 399 332 399 332 311 c 0,35,36
 332 174 332 174 384 105.5 c 128,-1,37
 436 37 436 37 524 37 c 0,38,39
 618 37 618 37 690 116 c 128,-1,40
 762 195 762 195 795 352 c 0,41,42
 813 446 813 446 813 512 c 0,43,44
 813 614 813 614 768 675.5 c 128,-1,45
 723 737 723 737 621 731 c 0,28,29
EndSplineSet
EndChar

StartChar: seven.taml
Encoding: 121 -1 121
Width: 950
Flags: W
LayerCount: 2
Fore
SplineSet
1126 1262 m 1,0,-1
 1118 1233 l 1,1,-1
 451 -14 l 1,2,-1
 326 -14 l 1,3,4
 402 129 402 129 481 274 c 0,5,6
 628 542 628 542 776 815 c 0,7,8
 938 1112 938 1112 938 1116 c 2,9,-1
 526 1116 l 2,10,11
 444 1116 444 1116 387 1077 c 0,12,13
 348 1048 348 1048 276 963 c 1,14,-1
 246 977 l 1,15,-1
 420 1257 l 1,16,-1
 1126 1262 l 1,0,-1
EndSplineSet
EndChar

StartChar: eight.taml
Encoding: 122 -1 122
Width: 950
Flags: W
LayerCount: 2
Fore
SplineSet
530 592 m 1,0,1
 450 539 450 539 412 494 c 0,2,3
 344 414 344 414 319 299 c 0,4,5
 311 260 311 260 311 229 c 0,6,7
 311 28 311 28 502 29 c 0,8,9
 590 29 590 29 662.5 87 c 128,-1,10
 735 145 735 145 754 242 c 0,11,12
 758 281 758 281 758 297 c 0,13,14
 758 383 758 383 672 469 c 0,15,16
 653 488 653 488 530 592 c 1,0,1
166 276 m 0,17,18
 189 391 189 391 264 467 c 0,19,20
 311 514 311 514 485 629 c 1,21,22
 413 703 413 703 385 739 c 0,23,24
 317 825 317 825 317 911 c 0,25,26
 317 944 317 944 326 983 c 0,27,28
 355 1116 355 1116 483.5 1197 c 128,-1,29
 612 1278 612 1278 745 1278 c 256,30,31
 878 1278 878 1278 950 1218.5 c 128,-1,32
 1022 1159 1022 1159 1022 1063 c 0,33,34
 1022 1049 1022 1049 1018 1010 c 0,35,36
 993 893 993 893 891 811 c 0,37,38
 834 766 834 766 702 705 c 1,39,40
 819 605 819 605 867 524.5 c 128,-1,41
 915 444 915 444 915 369 c 0,42,43
 915 351 915 351 911 327 c 128,-1,44
 907 303 907 303 905 289 c 0,45,46
 882 180 882 180 797 98 c 0,47,48
 672 -21 672 -21 463 -20 c 0,49,50
 316 -20 316 -20 239 51.5 c 128,-1,51
 162 123 162 123 162 227 c 0,52,53
 162 241 162 241 166 276 c 0,17,18
479 1047 m 0,54,55
 475 1018 475 1018 475 1004 c 0,56,57
 475 924 475 924 547 844 c 0,58,59
 586 801 586 801 657 748 c 1,60,61
 747 799 747 799 791 842 c 0,62,63
 871 922 871 922 893 1030 c 0,64,65
 897 1063 897 1063 897 1081 c 0,66,67
 897 1149 897 1149 856 1192 c 128,-1,68
 815 1235 815 1235 727 1235 c 0,69,70
 625 1235 625 1235 560 1180 c 128,-1,71
 495 1125 495 1125 479 1047 c 0,54,55
EndSplineSet
EndChar

StartChar: nine.taml
Encoding: 123 -1 123
Width: 950
Flags: W
LayerCount: 2
Fore
SplineSet
102 -43 m 1,0,-1
 104 -4 l 1,1,2
 337 33 337 33 517.5 185.5 c 128,-1,3
 698 338 698 338 799 549 c 1,4,5
 641 449 641 449 496 449 c 0,6,7
 353 449 353 449 281 539 c 0,8,9
 222 615 222 615 221 733 c 0,10,11
 221 776 221 776 229 819 c 0,12,13
 270 1016 270 1016 407.5 1147 c 128,-1,14
 545 1278 545 1278 727 1278 c 0,15,16
 872 1278 872 1278 958 1175.5 c 128,-1,17
 1044 1073 1044 1073 1044 897 c 0,18,19
 1044 829 1044 829 1028 748 c 0,20,21
 960 424 960 424 717 199 c 0,22,23
 450 -47 450 -47 102 -43 c 1,0,-1
827 672 m 2,24,-1
 844 745 l 2,25,26
 854 806 854 806 863 869 c 128,-1,27
 872 932 872 932 872 977 c 0,28,29
 872 1088 872 1088 840 1147 c 0,30,31
 795 1223 795 1223 692 1223 c 0,32,33
 581 1223 581 1223 508 1118 c 0,34,35
 449 1034 449 1034 420 895 c 0,36,37
 416 862 416 862 411 826.5 c 128,-1,38
 406 791 406 791 406 758 c 0,39,40
 406 658 406 658 446.5 593 c 128,-1,41
 487 528 487 528 588 528 c 0,42,43
 633 528 633 528 687 546.5 c 128,-1,44
 741 565 741 565 781 592 c 128,-1,45
 821 619 821 619 827 672 c 2,24,-1
EndSplineSet
EndChar

StartChar: colon.taml
Encoding: 124 -1 124
Width: 673
Flags: W
LayerCount: 2
Fore
SplineSet
662 950 m 0,0,1
 646 876 646 876 580 825 c 128,-1,2
 514 774 514 774 440 774 c 0,3,4
 379 774 379 774 339 811 c 128,-1,5
 299 848 299 848 299 913 c 0,6,7
 299 921 299 921 308 972.5 c 128,-1,8
 317 1024 317 1024 379.5 1075 c 128,-1,9
 442 1126 442 1126 516 1126 c 0,10,11
 582 1126 582 1126 623 1085 c 128,-1,12
 664 1044 664 1044 664 983 c 0,13,14
 664 964 664 964 662 950 c 0,0,1
489 152 m 0,15,16
 475 78 475 78 409.5 26.5 c 128,-1,17
 344 -25 344 -25 270 -25 c 0,18,19
 209 -25 209 -25 169 15 c 128,-1,20
 129 55 129 55 129 117 c 0,21,22
 129 140 129 140 131 150 c 0,23,24
 145 224 145 224 207.5 275 c 128,-1,25
 270 326 270 326 344 326 c 0,26,27
 410 326 410 326 451 285 c 128,-1,28
 492 244 492 244 492 182 c 0,29,30
 491 164 491 164 489 152 c 0,15,16
EndSplineSet
EndChar

StartChar: semicolon.taml
Encoding: 125 -1 125
Width: 673
Flags: W
LayerCount: 2
Fore
SplineSet
645 950 m 0,0,1
 629 876 629 876 563.5 825 c 128,-1,2
 498 774 498 774 424 774 c 0,3,4
 363 774 363 774 323 811 c 128,-1,5
 283 848 283 848 283 913 c 0,6,7
 283 921 283 921 292 972.5 c 128,-1,8
 301 1024 301 1024 363.5 1075 c 128,-1,9
 426 1126 426 1126 500 1126 c 0,10,11
 566 1126 566 1126 606.5 1085 c 128,-1,12
 647 1044 647 1044 647 983 c 0,13,14
 647 964 647 964 645 950 c 0,0,1
461 100 m 0,15,16
 428 -62 428 -62 289 -180 c 0,17,18
 107 -338 107 -338 -4 -338 c 1,19,-1
 6 -291 l 1,20,21
 53 -291 53 -291 178 -188 c 0,22,23
 325 -69 325 -69 348 41 c 0,24,25
 352 74 352 74 322 74 c 0,26,27
 304 74 304 74 255.5 47 c 128,-1,28
 207 20 207 20 184 20 c 0,29,30
 145 20 145 20 114.5 63 c 128,-1,31
 84 106 84 106 84 164 c 0,32,33
 84 182 84 182 86 190 c 0,34,35
 100 256 100 256 162.5 307 c 128,-1,36
 225 358 225 358 287 358 c 0,37,38
 373 358 373 358 420 299 c 128,-1,39
 467 240 467 240 467 154 c 0,40,41
 467 137 467 137 461 100 c 0,15,16
EndSplineSet
EndChar

StartChar: less.taml
Encoding: 126 -1 126
Width: 1509
Flags: W
LayerCount: 2
Fore
SplineSet
1251 137 m 1,0,-1
 1221 -16 l 1,1,-1
 174 510 l 1,2,-1
 203 649 l 1,3,-1
 1473 1174 l 1,4,-1
 1442 1020 l 1,5,-1
 379 580 l 1,6,-1
 1251 137 l 1,0,-1
EndSplineSet
EndChar

StartChar: equal.taml
Encoding: 127 -1 127
Width: 1615
Flags: W
LayerCount: 2
Fore
SplineSet
1606 1028 m 1,0,-1
 1575 881 l 1,1,-1
 418 881 l 1,2,-1
 449 1028 l 1,3,-1
 1606 1028 l 1,0,-1
1509 569 m 1,4,-1
 1479 422 l 1,5,-1
 322 422 l 1,6,-1
 352 569 l 1,7,-1
 1509 569 l 1,4,-1
EndSplineSet
EndChar

StartChar: greater.taml
Encoding: 128 -1 128
Width: 1509
Flags: W
LayerCount: 2
Fore
SplineSet
94 137 m 1,0,-1
 1157 578 l 1,1,-1
 285 1018 l 1,2,-1
 315 1171 l 1,3,-1
 1362 647 l 1,4,-1
 1333 508 l 1,5,-1
 63 -18 l 1,6,-1
 94 137 l 1,0,-1
EndSplineSet
EndChar

StartChar: question.taml
Encoding: 129 -1 129
Width: 1140
Flags: W
LayerCount: 2
Fore
SplineSet
520 119 m 1,0,-1
 481 119 l 1,1,2
 499 209 499 209 551 317 c 0,3,4
 559 335 559 335 616 438 c 2,5,-1
 713 586 l 2,6,7
 760 666 760 666 805 761 c 128,-1,8
 850 856 850 856 861 908.5 c 128,-1,9
 872 961 872 961 872 999 c 0,10,11
 872 1093 872 1093 829 1147 c 0,12,13
 778 1208 778 1208 676 1208 c 0,14,15
 602 1208 602 1208 524 1167 c 128,-1,16
 446 1126 446 1126 436 1069 c 0,17,18
 432 1044 432 1044 451 1014 c 0,19,20
 496 942 496 942 487 899 c 0,21,22
 479 866 479 866 453.5 837.5 c 128,-1,23
 428 809 428 809 381 809 c 256,24,25
 334 809 334 809 312.5 832.5 c 128,-1,26
 291 856 291 856 291 901 c 0,27,28
 291 915 291 915 295 948 c 0,29,30
 328 1108 328 1108 475 1198 c 0,31,32
 598 1274 598 1274 737 1274 c 0,33,34
 833 1274 833 1274 919.5 1236 c 128,-1,35
 1006 1198 1006 1198 1038 1145 c 0,36,37
 1083 1071 1083 1071 1083 999 c 0,38,39
 1083 962 1083 962 1068 888.5 c 128,-1,40
 1053 815 1053 815 971 707 c 0,41,42
 912 627 912 627 823 541 c 0,43,44
 706 432 706 432 645 346 c 0,45,46
 573 250 573 250 520 119 c 1,0,-1
422 -283 m 0,47,48
 383 -283 383 -283 353.5 -263.5 c 128,-1,49
 324 -244 324 -244 324 -197 c 0,50,51
 324 -181 324 -181 331 -151 c 128,-1,52
 338 -121 338 -121 382 -84 c 128,-1,53
 426 -47 426 -47 473 -47 c 256,54,55
 520 -47 520 -47 549 -84 c 128,-1,56
 578 -121 578 -121 569 -168 c 0,57,58
 555 -225 555 -225 511 -255 c 128,-1,59
 467 -285 467 -285 422 -283 c 0,47,48
EndSplineSet
EndChar

StartChar: uni0952
Encoding: 133 2386 133
Width: 28
Flags: W
LayerCount: 2
Fore
SplineSet
-504 -311 m 1,0,-1
 -1798 -311 l 1,1,-1
 -1866 -150 l 1,2,-1
 -571 -150 l 1,3,-1
 -504 -311 l 1,0,-1
6 715 m 1,4,-1
 2 719 l 1,5,-1
 6 715 l 1,4,-1
6 715 m 1,6,-1
 2 719 l 1,7,-1
 6 715 l 1,6,-1
EndSplineSet
EndChar

StartChar: u0B83
Encoding: 136 2947 136
Width: 1462
Flags: W
LayerCount: 2
Fore
SplineSet
856 1272 m 0,0,1
 913 1272 913 1272 950 1235 c 128,-1,2
 987 1198 987 1198 987 1141 c 0,3,4
 987 1123 987 1123 985 1112 c 0,5,6
 975 1046 975 1046 915.5 998 c 128,-1,7
 856 950 856 950 791 950 c 0,8,9
 732 950 732 950 695.5 988 c 128,-1,10
 659 1026 659 1026 659 1083 c 0,11,12
 659 1101 659 1101 662 1110 c 0,13,14
 676 1176 676 1176 733 1224 c 128,-1,15
 790 1272 790 1272 856 1272 c 0,0,1
242 344 m 0,16,17
 299 344 299 344 335 308 c 128,-1,18
 371 272 371 272 371 215 c 0,19,20
 371 192 371 192 369 182 c 0,21,22
 359 116 359 116 299.5 68 c 128,-1,23
 240 20 240 20 174 20 c 0,24,25
 115 20 115 20 79 58 c 128,-1,26
 43 96 43 96 43 152 c 0,27,28
 43 170 43 170 45 178 c 0,29,30
 59 244 59 244 119 292 c 128,-1,31
 179 340 179 340 242 344 c 0,16,17
1092 340 m 0,32,33
 1147 340 1147 340 1183 304 c 128,-1,34
 1219 268 1219 268 1219 211 c 0,35,36
 1219 188 1219 188 1217 178 c 0,37,38
 1207 112 1207 112 1147 64 c 128,-1,39
 1087 16 1087 16 1022 16 c 0,40,41
 963 16 963 16 927 54 c 128,-1,42
 891 92 891 92 891 147 c 0,43,44
 891 165 891 165 893 174 c 0,45,46
 907 240 907 240 966.5 288 c 128,-1,47
 1026 336 1026 336 1092 340 c 0,32,33
EndSplineSet
EndChar

StartChar: u0B85
Encoding: 137 2949 137
Width: 2351
Flags: HW
AnchorPoint: "V" 1217.5 1254.42 basechar 0
AnchorPoint: "N" 1217.5 -215 basechar 0
LayerCount: 2
Fore
SplineSet
2032 -215 m 1,0,-1
 1817 -215 l 1,1,-1
 1946 387 l 1,2,-1
 1671 387 l 1,3,4
 1519 201 1519 201 1280.5 100.5 c 128,-1,5
 1042 0 1042 0 770 0 c 0,6,7
 446 0 446 0 272 125 c 0,8,9
 147 215 147 215 96 367 c 0,10,11
 86 404 86 404 112.5 443.5 c 128,-1,12
 139 483 139 483 201 483 c 2,13,-1
 1522 483 l 1,14,15
 1639 622 1639 622 1669 782 c 0,16,17
 1673 800 1673 800 1675 830 c 128,-1,18
 1677 860 1677 860 1677 883 c 0,19,20
 1677 994 1677 994 1611.5 1062 c 128,-1,21
 1546 1130 1546 1130 1430 1159 c 1,22,23
 1506 1108 1506 1108 1505 985 c 0,24,25
 1505 960 1505 960 1505 938 c 0,26,27
 1497 905 1497 905 1495 889 c 0,28,29
 1470 760 1470 760 1391 684 c 0,30,31
 1297 594 1297 594 1143 594 c 0,32,33
 1032 594 1032 594 978 660.5 c 128,-1,34
 924 727 924 727 924 838 c 0,35,36
 924 861 924 861 928 890.5 c 128,-1,37
 932 920 932 920 934 936 c 0,38,39
 965 1083 965 1083 1079 1178 c 0,40,41
 1204 1280 1204 1280 1384 1280 c 0,42,43
 1609 1280 1609 1280 1732 1177.5 c 128,-1,44
 1855 1075 1855 1075 1855 879 c 0,45,46
 1855 811 1855 811 1840 735 c 128,-1,47
 1825 659 1825 659 1803.5 607 c 128,-1,48
 1782 555 1782 555 1739 483 c 1,49,-1
 1964 483 l 1,50,-1
 2134 1286 l 1,51,-1
 2349 1286 l 1,52,-1
 2032 -215 l 1,0,-1
1333 913 m 0,53,54
 1341 952 1341 952 1341 985 c 0,55,56
 1341 1046 1341 1046 1322 1086 c 128,-1,57
 1303 1126 1303 1126 1272 1141 c 1,58,59
 1192 1151 1192 1151 1122.5 1086.5 c 128,-1,60
 1053 1022 1053 1022 1034 928 c 0,61,62
 1030 905 1030 905 1030 868 c 0,63,64
 1030 802 1030 802 1064 771.5 c 128,-1,65
 1098 741 1098 741 1149 741 c 0,66,67
 1221 741 1221 741 1272 792 c 128,-1,68
 1323 843 1323 843 1333 913 c 0,53,54
1438 381 m 1,69,-1
 268 381 l 2,70,71
 229 381 229 381 213 368.5 c 128,-1,72
 197 356 197 356 207 324 c 0,73,74
 254 224 254 224 371 166 c 0,75,76
 510 98 510 98 735 98 c 0,77,78
 932 98 932 98 1112.5 172 c 128,-1,79
 1293 246 1293 246 1438 381 c 1,69,-1
EndSplineSet
EndChar

StartChar: u0B86
Encoding: 138 2950 138
Width: 2895
Flags: HW
AnchorPoint: "V" 1373 1277.74 basechar 0
AnchorPoint: "N" 1373 -715 basechar 0
LayerCount: 2
Fore
SplineSet
2638 131 m 0,0,1
 2552 -275 2552 -275 2236 -500 c 0,2,3
 1939 -715 1939 -715 1528 -715 c 0,4,5
 1188 -715 1188 -715 1006.5 -635 c 128,-1,6
 825 -555 825 -555 825 -401 c 0,7,8
 825 -387 825 -387 829 -348 c 0,9,10
 854 -229 854 -229 974 -166.5 c 128,-1,11
 1094 -104 1094 -104 1247 -104 c 0,12,13
 1358 -104 1358 -104 1452 -140 c 128,-1,14
 1546 -176 1546 -176 1604 -238 c 1,15,-1
 1565 -289 l 1,16,17
 1508 -236 1508 -236 1412.5 -207 c 128,-1,18
 1317 -178 1317 -178 1217 -178 c 0,19,20
 1098 -178 1098 -178 1019 -222 c 128,-1,21
 940 -266 940 -266 931 -318.5 c 128,-1,22
 922 -371 922 -371 922 -385 c 0,23,24
 922 -502 922 -502 1094 -563 c 0,25,26
 1237 -614 1237 -614 1462 -614 c 0,27,28
 1820 -614 1820 -614 2087.5 -401 c 128,-1,29
 2355 -188 2355 -188 2421 121 c 0,30,31
 2429 152 2429 152 2431 182.5 c 128,-1,32
 2433 213 2433 213 2433 250 c 0,33,34
 2433 359 2433 359 2385 414 c 128,-1,35
 2337 469 2337 469 2269 469 c 0,36,37
 2216 469 2216 469 2177 436 c 1,38,-1
 2038 -217 l 1,39,-1
 1823 -217 l 1,40,-1
 1952 385 l 1,41,-1
 1677 385 l 1,42,43
 1525 199 1525 199 1287 98.5 c 128,-1,44
 1049 -2 1049 -2 776 -2 c 0,45,46
 452 -2 452 -2 279 123 c 0,47,48
 154 213 154 213 102 365 c 0,49,50
 92 402 92 402 118.5 441.5 c 128,-1,51
 145 481 145 481 207 481 c 2,52,-1
 1528 481 l 1,53,54
 1645 620 1645 620 1675 780 c 0,55,56
 1679 798 1679 798 1681 828 c 128,-1,57
 1683 858 1683 858 1683 881 c 0,58,59
 1683 992 1683 992 1617.5 1060 c 128,-1,60
 1552 1128 1552 1128 1436 1157 c 1,61,62
 1512 1106 1512 1106 1511 983 c 0,63,64
 1511 958 1511 958 1511 936 c 0,65,66
 1503 903 1503 903 1501 887 c 0,67,68
 1476 758 1476 758 1397 682 c 0,69,70
 1303 592 1303 592 1149 592 c 0,71,72
 1038 592 1038 592 984 658.5 c 128,-1,73
 930 725 930 725 930 836 c 0,74,75
 930 859 930 859 934 888.5 c 128,-1,76
 938 918 938 918 940 934 c 0,77,78
 971 1081 971 1081 1085 1176 c 0,79,80
 1210 1278 1210 1278 1391 1278 c 0,81,82
 1616 1278 1616 1278 1739 1175.5 c 128,-1,83
 1862 1073 1862 1073 1862 877 c 0,84,85
 1862 809 1862 809 1846.5 733 c 128,-1,86
 1831 657 1831 657 1809.5 605 c 128,-1,87
 1788 553 1788 553 1745 481 c 1,88,-1
 1970 481 l 1,89,-1
 2140 1284 l 1,90,-1
 2355 1284 l 1,91,-1
 2195 530 l 1,92,93
 2277 598 2277 598 2378 598 c 0,94,95
 2501 598 2501 598 2577.5 512 c 128,-1,96
 2654 426 2654 426 2654 272 c 0,97,98
 2654 205 2654 205 2638 131 c 0,0,1
1337 911 m 0,99,100
 1345 950 1345 950 1346 983 c 0,101,102
 1346 1044 1346 1044 1326.5 1084 c 128,-1,103
 1307 1124 1307 1124 1276 1139 c 1,104,105
 1196 1149 1196 1149 1126.5 1084.5 c 128,-1,106
 1057 1020 1057 1020 1038 926 c 0,107,108
 1034 903 1034 903 1034 866 c 0,109,110
 1034 800 1034 800 1068 769.5 c 128,-1,111
 1102 739 1102 739 1153 739 c 0,112,113
 1225 739 1225 739 1276 790 c 128,-1,114
 1327 841 1327 841 1337 911 c 0,99,100
1442 379 m 1,115,-1
 272 379 l 2,116,117
 233 379 233 379 217 366.5 c 128,-1,118
 201 354 201 354 211 322 c 0,119,120
 258 222 258 222 375 164 c 0,121,122
 514 96 514 96 739 96 c 0,123,124
 936 96 936 96 1116.5 170 c 128,-1,125
 1297 244 1297 244 1442 379 c 1,115,-1
EndSplineSet
EndChar

StartChar: u0B87
Encoding: 139 2951 139
Width: 2207
Flags: HW
AnchorPoint: "V" 1072 1810.63 basechar 0
AnchorPoint: "N" 1072 -258 basechar 0
LayerCount: 2
Fore
SplineSet
963 918 m 0,0,1
 971 957 971 957 971 989 c 0,2,3
 971 1050 971 1050 951.5 1090 c 128,-1,4
 932 1130 932 1130 901 1145 c 1,5,6
 821 1155 821 1155 751.5 1090.5 c 128,-1,7
 682 1026 682 1026 664 932 c 0,8,9
 660 909 660 909 659 872 c 0,10,11
 659 806 659 806 693 775.5 c 128,-1,12
 727 745 727 745 778 745 c 0,13,14
 850 745 850 745 901.5 796.5 c 128,-1,15
 953 848 953 848 963 918 c 0,0,1
834 -125 m 1,16,17
 936 -158 936 -158 1059 -158 c 0,18,19
 1206 -158 1206 -158 1303.5 -79 c 128,-1,20
 1401 0 1401 0 1425 115 c 0,21,22
 1427 123 1427 123 1427 132 c 128,-1,23
 1427 141 1427 141 1427 143 c 0,24,25
 1427 194 1427 194 1396.5 241.5 c 128,-1,26
 1366 289 1366 289 1309 328 c 1,27,28
 1121 33 1121 33 834 -125 c 1,16,17
287 221 m 1,29,30
 133 127 133 127 109 16 c 0,31,32
 107 6 107 6 106 -12 c 0,33,34
 106 -78 106 -78 168.5 -118 c 128,-1,35
 231 -158 231 -158 336 -158 c 0,36,37
 445 -158 445 -158 561 -113 c 1,38,39
 444 -31 444 -31 365 86 c 0,40,41
 328 139 328 139 324 150 c 0,42,43
 307 178 307 178 287 221 c 1,29,30
389 279 m 1,44,45
 422 207 422 207 469 135 c 0,46,47
 559 18 559 18 678 -57 c 1,48,49
 965 105 965 105 1147 395 c 1,50,51
 1053 420 1053 420 944 420 c 0,52,53
 811 420 811 420 666.5 383.5 c 128,-1,54
 522 347 522 347 389 279 c 1,44,45
1200 492 m 1,55,56
 1253 594 1253 594 1282 723 c 0,57,58
 1298 805 1298 805 1298 866 c 0,59,60
 1298 995 1298 995 1237 1061.5 c 128,-1,61
 1176 1128 1176 1128 1057 1157 c 1,62,63
 1133 1106 1133 1106 1133 983 c 0,64,65
 1133 958 1133 958 1133 936 c 0,66,67
 1125 903 1125 903 1122 887 c 0,68,69
 1097 758 1097 758 1018 682 c 0,70,71
 924 592 924 592 770 592 c 0,72,73
 659 592 659 592 605 658.5 c 128,-1,74
 551 725 551 725 551 836 c 0,75,76
 551 859 551 859 555 888.5 c 128,-1,77
 559 918 559 918 561 934 c 0,78,79
 592 1081 592 1081 707 1176 c 0,80,81
 832 1278 832 1278 1012 1278 c 0,82,83
 1237 1278 1237 1278 1360 1175.5 c 128,-1,84
 1483 1073 1483 1073 1483 877 c 0,85,86
 1483 809 1483 809 1466 727 c 0,87,88
 1437 584 1437 584 1370 444 c 1,89,90
 1487 399 1487 399 1556.5 326.5 c 128,-1,91
 1626 254 1626 254 1626 160 c 0,92,93
 1626 142 1626 142 1622 109 c 0,94,95
 1583 -73 1583 -73 1425.5 -164.5 c 128,-1,96
 1268 -256 1268 -256 1034 -256 c 0,97,98
 854 -256 854 -256 694 -186 c 1,99,100
 612 -217 612 -217 517 -236.5 c 128,-1,101
 422 -256 422 -256 334 -256 c 0,102,103
 187 -256 187 -256 96.5 -201.5 c 128,-1,104
 6 -147 6 -147 6 -33 c 0,105,106
 6 -2 6 -2 18.5 53.5 c 128,-1,107
 31 109 31 109 93.5 181.5 c 128,-1,108
 156 254 156 254 252 315 c 1,109,110
 184 510 184 510 184 719 c 0,111,112
 184 828 184 828 207 940 c 0,113,114
 297 1366 297 1366 631 1612 c 0,115,116
 942 1839 942 1839 1346 1839 c 0,117,118
 1721 1839 1721 1839 1929.5 1633 c 128,-1,119
 2138 1427 2138 1427 2138 1044 c 0,120,121
 2138 878 2138 878 2101 702 c 0,122,123
 2050 469 2050 469 1946 223 c 0,124,125
 1821 -68 1821 -68 1681 -258 c 1,126,-1
 1614 -227 l 1,127,128
 1700 -116 1700 -116 1800 92 c 0,129,130
 1933 373 1933 373 1991 641 c 0,131,132
 2022 793 2022 793 2021 911 c 0,133,134
 2021 1249 2021 1249 1825.5 1442.5 c 128,-1,135
 1630 1636 1630 1636 1307 1636 c 0,136,137
 940 1636 940 1636 655.5 1431.5 c 128,-1,138
 371 1227 371 1227 305 924 c 0,139,140
 297 877 297 877 292 831.5 c 128,-1,141
 287 786 287 786 287 735 c 0,142,143
 287 549 287 549 354 373 c 1,144,145
 487 439 487 439 657 478.5 c 128,-1,146
 827 518 827 518 973 518 c 0,147,148
 1100 519 1100 519 1200 492 c 1,55,56
EndSplineSet
EndChar

StartChar: u0B88
Encoding: 140 2952 140
Width: 1490
Flags: HW
AnchorPoint: "V" 689 1286 basechar 0
AnchorPoint: "N" 689 -4 basechar 0
LayerCount: 2
Fore
SplineSet
1329 645 m 0,0,1
 1319 594 1319 594 1275 557 c 128,-1,2
 1231 520 1231 520 1178 520 c 0,3,4
 1078 520 1078 520 1077 616 c 0,5,6
 1077 634 1077 634 1084.5 665 c 128,-1,7
 1092 696 1092 696 1135 733 c 128,-1,8
 1178 770 1178 770 1231 770 c 0,9,10
 1333 770 1333 770 1333 668 c 0,11,12
 1333 651 1333 651 1329 645 c 0,0,1
1356 1186 m 1,13,-1
 1069 1186 l 1,14,-1
 817 -4 l 1,15,-1
 602 -4 l 1,16,-1
 854 1186 l 1,17,-1
 352 1186 l 1,18,-1
 100 -4 l 1,19,-1
 0 -4 l 1,20,-1
 274 1286 l 1,21,-1
 1378 1286 l 1,22,-1
 1356 1186 l 1,13,-1
614 641 m 0,23,24
 604 590 604 590 560 553 c 128,-1,25
 516 516 516 516 463 516 c 0,26,27
 363 516 363 516 362 612 c 0,28,29
 362 630 362 630 369.5 661 c 128,-1,30
 377 692 377 692 420 729 c 128,-1,31
 463 766 463 766 516 766 c 0,32,33
 618 766 618 766 618 664 c 0,34,35
 618 647 618 647 614 641 c 0,23,24
EndSplineSet
EndChar

StartChar: u0B89
Encoding: 141 2953 141
Width: 2322
Flags: HW
AnchorPoint: "V" 1106 1191.51 basechar 0
AnchorPoint: "N" 1106 0 basechar 0
LayerCount: 2
Fore
SplineSet
2107 0 m 2,0,-1
 227 0 l 2,1,2
 131 0 131 0 84 41 c 128,-1,3
 37 82 37 82 37 147 c 0,4,5
 37 229 37 229 110.5 294.5 c 128,-1,6
 184 360 184 360 303 360 c 2,7,-1
 666 360 l 2,8,9
 795 360 795 360 905 483 c 0,10,11
 1005 594 1005 594 1036 733 c 0,12,13
 1052 819 1052 819 1053 891 c 0,14,15
 1053 1034 1053 1034 974 1108 c 128,-1,16
 895 1182 895 1182 715 1182 c 0,17,18
 572 1182 572 1182 441.5 1099 c 128,-1,19
 311 1016 311 1016 297 920 c 1,20,21
 391 1039 391 1039 537 1038 c 0,22,23
 639 1038 639 1038 694.5 974.5 c 128,-1,24
 750 911 750 911 750 811 c 0,25,26
 750 778 750 778 741 739 c 0,27,28
 712 602 712 602 614 523 c 128,-1,29
 516 444 516 444 383 444 c 0,30,31
 266 444 266 444 215 513 c 128,-1,32
 164 582 164 582 164 698 c 0,33,34
 164 729 164 729 169 773 c 128,-1,35
 174 817 174 817 182 864 c 0,36,37
 215 1030 215 1030 371 1149 c 0,38,39
 545 1280 545 1280 774 1280 c 0,40,41
 1007 1280 1007 1280 1127 1174.5 c 128,-1,42
 1247 1069 1247 1069 1247 883 c 0,43,44
 1247 852 1247 852 1245 815 c 128,-1,45
 1243 778 1243 778 1235 745 c 0,46,47
 1126 247 1126 247 639 248 c 2,48,-1
 352 248 l 2,49,50
 286 248 286 248 248.5 218 c 128,-1,51
 211 188 211 188 211 152 c 0,52,53
 211 84 211 84 313 84 c 2,54,-1
 2116 84 l 2,55,56
 2175 84 2175 84 2175 47 c 0,57,58
 2175 31 2175 31 2153.5 15.5 c 128,-1,59
 2132 0 2132 0 2107 0 c 2,0,-1
565 793 m 0,60,61
 565 844 565 844 529.5 876.5 c 128,-1,62
 494 909 494 909 442 909 c 0,63,64
 348 909 348 909 266 807 c 1,65,66
 258 768 258 768 258 731 c 0,67,68
 258 659 258 659 291 616 c 128,-1,69
 324 573 324 573 385 573 c 0,70,71
 461 573 461 573 512 646 c 128,-1,72
 563 719 563 719 565 793 c 0,60,61
EndSplineSet
EndChar

StartChar: u0B8A
Encoding: 142 2954 142
Width: 3725
Flags: HW
AnchorPoint: "V" 1886.5 1200.73 basechar 0
AnchorPoint: "N" 1886.5 2 basechar 0
LayerCount: 2
Fore
SplineSet
3721 1190 m 1,0,-1
 3434 1190 l 1,1,-1
 3219 172 l 1,2,-1
 3004 172 l 1,3,-1
 3219 1190 l 1,4,-1
 2890 1190 l 1,5,-1
 2675 172 l 1,6,-1
 2460 172 l 1,7,-1
 2613 899 l 2,8,9
 2617 932 2617 932 2617 950 c 0,10,11
 2617 1054 2617 1054 2524 1119 c 128,-1,12
 2431 1184 2431 1184 2265 1184 c 0,13,14
 2046 1184 2046 1184 1858 1069 c 0,15,16
 1690 967 1690 967 1667 862 c 1,17,18
 1712 909 1712 909 1792 938 c 128,-1,19
 1872 967 1872 967 1966 967 c 0,20,21
 2095 967 2095 967 2175 887 c 128,-1,22
 2255 807 2255 807 2255 676 c 0,23,24
 2255 653 2255 653 2255 635 c 0,25,26
 2247 602 2247 602 2245 586 c 0,27,28
 2206 396 2206 396 2105.5 286 c 128,-1,29
 2005 176 2005 176 1847 176 c 0,30,31
 1685 176 1685 176 1599 273.5 c 128,-1,32
 1513 371 1513 371 1513 553 c 0,33,34
 1513 639 1513 639 1516 662 c 0,35,36
 1530 713 1530 713 1532 735 c 0,37,38
 1589 993 1589 993 1792 1141.5 c 128,-1,39
 1995 1290 1995 1290 2263 1290 c 0,40,41
 2523 1290 2523 1290 2654 1223 c 0,42,43
 2763 1166 2763 1166 2777 1077 c 1,44,-1
 2822 1292 l 1,45,-1
 3740 1292 l 1,46,-1
 3721 1190 l 1,0,-1
3365 2 m 2,47,-1
 223 2 l 2,48,49
 127 2 127 2 80 43 c 128,-1,50
 33 84 33 84 33 150 c 0,51,52
 33 232 33 232 106.5 297 c 128,-1,53
 180 362 180 362 299 362 c 2,54,-1
 662 362 l 2,55,56
 791 362 791 362 901 485 c 0,57,58
 1001 596 1001 596 1032 735 c 0,59,60
 1048 821 1048 821 1049 893 c 0,61,62
 1049 1036 1049 1036 970 1110 c 128,-1,63
 891 1184 891 1184 711 1184 c 0,64,65
 568 1184 568 1184 437.5 1101 c 128,-1,66
 307 1018 307 1018 293 922 c 1,67,68
 387 1041 387 1041 532 1040 c 0,69,70
 634 1040 634 1040 689.5 976.5 c 128,-1,71
 745 913 745 913 745 813 c 0,72,73
 745 780 745 780 737 741 c 0,74,75
 708 604 708 604 610 525 c 128,-1,76
 512 446 512 446 379 446 c 0,77,78
 262 446 262 446 211 515 c 128,-1,79
 160 584 160 584 160 700 c 0,80,81
 160 731 160 731 165 775 c 128,-1,82
 170 819 170 819 178 866 c 0,83,84
 211 1032 211 1032 367 1151 c 0,85,86
 541 1282 541 1282 770 1282 c 0,87,88
 1003 1282 1003 1282 1123 1176.5 c 128,-1,89
 1243 1071 1243 1071 1243 885 c 0,90,91
 1243 854 1243 854 1241 817 c 128,-1,92
 1239 780 1239 780 1231 748 c 0,93,94
 1122 250 1122 250 635 250 c 2,95,-1
 348 250 l 2,96,97
 282 250 282 250 244.5 220 c 128,-1,98
 207 190 207 190 207 154 c 0,99,100
 207 86 207 86 309 86 c 2,101,-1
 3373 86 l 2,102,103
 3432 86 3432 86 3432 49 c 0,104,105
 3432 33 3432 33 3411 17.5 c 128,-1,106
 3390 2 3390 2 3365 2 c 2,47,-1
2009 590 m 0,107,108
 2013 623 2013 623 2013 639 c 0,109,110
 2013 715 2013 715 1968 772 c 128,-1,111
 1923 829 1923 829 1849 829 c 0,112,113
 1773 829 1773 829 1709 788.5 c 128,-1,114
 1645 748 1645 748 1614 688 c 1,115,116
 1606 645 1606 645 1606 598 c 0,117,118
 1606 498 1606 498 1647 425 c 128,-1,119
 1688 352 1688 352 1774 352 c 0,120,121
 1862 352 1862 352 1924 422 c 128,-1,122
 1986 492 1986 492 2009 590 c 0,107,108
563 795 m 0,123,124
 563 846 563 846 527.5 878.5 c 128,-1,125
 492 911 492 911 440 911 c 0,126,127
 346 911 346 911 264 809 c 1,128,129
 256 770 256 770 256 733 c 0,130,131
 256 661 256 661 289 618 c 128,-1,132
 322 575 322 575 383 575 c 0,133,134
 459 575 459 575 510 648 c 128,-1,135
 561 721 561 721 563 795 c 0,123,124
EndSplineSet
EndChar

StartChar: u0B8E
Encoding: 143 2958 143
Width: 1835
Flags: HW
AnchorPoint: "V" 965.5 1290 basechar 0
AnchorPoint: "N" 965.5 0 basechar 0
LayerCount: 2
Fore
SplineSet
1800 1190 m 1,0,-1
 1513 1190 l 1,1,-1
 1262 0 l 1,2,-1
 1047 0 l 1,3,-1
 1298 1190 l 1,4,-1
 893 1190 l 2,5,6
 635 1190 635 1190 453 1030 c 0,7,8
 306 899 306 899 262 733 c 1,9,10
 307 780 307 780 391 814 c 128,-1,11
 475 848 475 848 563 848 c 0,12,13
 706 848 706 848 785 767 c 128,-1,14
 864 686 864 686 864 547 c 0,15,16
 864 516 864 516 864 487 c 0,17,18
 856 456 856 456 854 446 c 0,19,20
 811 245 811 245 711 131 c 0,21,22
 600 6 600 6 438 6 c 0,23,24
 106 6 106 6 106 383 c 0,25,26
 106 477 106 477 131 596 c 0,27,28
 199 915 199 915 403.5 1102.5 c 128,-1,29
 608 1290 608 1290 891 1290 c 2,30,-1
 1825 1290 l 1,31,-1
 1800 1190 l 1,0,-1
635 436 m 0,32,33
 639 454 639 454 639 494 c 0,34,35
 639 580 639 580 594 642.5 c 128,-1,36
 549 705 549 705 473 705 c 0,37,38
 391 705 391 705 324.5 660.5 c 128,-1,39
 258 616 258 616 225 545 c 1,40,41
 209 469 209 469 209 403 c 0,42,43
 209 299 209 299 253 236.5 c 128,-1,44
 297 174 297 174 387 174 c 0,45,46
 481 174 481 174 550 253 c 128,-1,47
 619 332 619 332 635 436 c 0,32,33
EndSplineSet
EndChar

StartChar: u0B8F
Encoding: 144 2959 144
Width: 1835
Flags: HW
AnchorPoint: "V" 963.5 1290 basechar 0
AnchorPoint: "N" 963.5 -401 basechar 0
LayerCount: 2
Fore
SplineSet
1800 1190 m 1,0,-1
 1513 1190 l 1,1,-1
 1262 0 l 1,2,-1
 702 -401 l 1,3,-1
 530 -401 l 1,4,-1
 1044 0 l 1,5,-1
 1296 1190 l 1,6,-1
 891 1190 l 2,7,8
 633 1190 633 1190 451 1030 c 0,9,10
 304 899 304 899 260 733 c 1,11,12
 305 780 305 780 389 814 c 128,-1,13
 473 848 473 848 561 848 c 0,14,15
 704 848 704 848 783 767 c 128,-1,16
 862 686 862 686 862 547 c 0,17,18
 862 516 862 516 862 487 c 0,19,20
 854 456 854 456 852 446 c 0,21,22
 809 245 809 245 709 131 c 0,23,24
 598 6 598 6 436 6 c 0,25,26
 104 6 104 6 104 383 c 0,27,28
 104 477 104 477 129 596 c 0,29,30
 197 915 197 915 401.5 1102.5 c 128,-1,31
 606 1290 606 1290 889 1290 c 2,32,-1
 1823 1290 l 1,33,-1
 1800 1190 l 1,0,-1
633 436 m 0,34,35
 637 454 637 454 637 494 c 0,36,37
 637 580 637 580 592 642.5 c 128,-1,38
 547 705 547 705 471 705 c 0,39,40
 389 705 389 705 322.5 660.5 c 128,-1,41
 256 616 256 616 223 545 c 1,42,43
 207 469 207 469 207 403 c 0,44,45
 207 299 207 299 251 236.5 c 128,-1,46
 295 174 295 174 385 174 c 0,47,48
 479 174 479 174 548 253 c 128,-1,49
 617 332 617 332 633 436 c 0,34,35
EndSplineSet
EndChar

